<svg xmlns="http://www.w3.org/2000/svg" xmlns:xlink="http://www.w3.org/1999/xlink" width="354.503" height="352.772" viewBox="0 0 354.503 352.772">
  <defs>
    <filter id="Path_1608" x="156.805" y="44.602" width="115.312" height="166.917" filterUnits="userSpaceOnUse">
      <feOffset dy="3" input="SourceAlpha"/>
      <feGaussianBlur stdDeviation="3.5" result="blur"/>
      <feFlood flood-opacity="0.71"/>
      <feComposite operator="in" in2="blur"/>
      <feComposite in="SourceGraphic"/>
    </filter>
  </defs>
  <g id="BAR" transform="matrix(0.921, 0.391, -0.391, 0.921, 106.612, -2.6)">
    <g id="Path_1610" data-name="Path 1610" transform="matrix(0.602, -0.799, 0.799, 0.602, -46.083, 164.288)" fill="none" stroke-dasharray="406">
      <path d="M130.54,0c72.141.045,130.659,57.505,130.7,128.34s-58.4,128.222-130.54,128.176S.045,199.011,0,128.176,58.4-.045,130.54,0Z" stroke="none"/>
      <path d="M 130.4550323486328 6.103515625e-05 L 130.4550323486328 38.00004577636719 L 130.4550323486328 6.103515625e-05 C 130.4550323486328 6.103515625e-05 130.4550323486328 6.103515625e-05 130.4550323486328 6.103515625e-05 Z M 130.4550323486328 6.103515625e-05 L 130.5165405273438 38.00004577636719 L 130.4550323486328 6.103515625e-05 Z M 130.5403900146484 6.103515625e-05 C 202.6810302734375 0.045196533203125 261.1992492675781 57.50505065917969 261.2444763183594 128.3400573730469 C 261.2444763183594 128.3400573730469 261.2444763183594 128.3400573730469 261.2444763183594 128.3400573730469 C 261.2445068359375 128.3874359130859 261.2445068359375 128.4385223388672 261.2444763183594 128.4859008789062 C 261.2444763183594 128.4902191162109 261.2444763183594 128.4909973144531 261.2444763183594 128.4953308105469 C 261.2444763183594 128.5082397460938 261.2444458007812 128.5207061767578 261.2444458007812 128.5336303710938 C 261.2444458007812 128.5379486083984 261.2444458007812 128.5425415039062 261.2444458007812 128.546875 C 261.2444152832031 128.5597839355469 261.2444152832031 128.5688323974609 261.244384765625 128.5817565917969 C 261.244384765625 128.5860595703125 261.244384765625 128.5944213867188 261.244384765625 128.5987396240234 C 261.2443542480469 128.6116638183594 261.2443237304688 128.6229248046875 261.2443237304688 128.6358489990234 C 261.2442932128906 128.6401672363281 261.2442932128906 128.64599609375 261.2442932128906 128.6502990722656 C 261.2442626953125 128.6632232666016 261.2442626953125 128.6715698242188 261.2442321777344 128.6844787597656 C 261.2442016601562 128.6888122558594 261.2442016601562 128.6978759765625 261.2442016601562 128.7022094726562 C 261.2441711425781 128.7108154296875 261.2441711425781 128.715087890625 261.244140625 128.7236938476562 C 261.2441101074219 128.7323303222656 261.2440795898438 128.7458038330078 261.2440795898438 128.7544403076172 C 261.2440490722656 128.7630462646484 261.2440490722656 128.7648468017578 261.2440185546875 128.7734680175781 C 261.2439880371094 128.7864074707031 261.2439575195312 128.7926940917969 261.2439270019531 128.8056335449219 C 261.243896484375 128.8185577392578 261.2438659667969 128.8262939453125 261.2438049316406 128.8392028808594 C 261.2438049316406 128.8435211181641 261.2437744140625 128.8528900146484 261.2437438964844 128.8572082519531 C 261.2437133789062 128.8701171875 261.2436828613281 128.8762512207031 261.24365234375 128.88916015625 C 261.2436218261719 128.8977966308594 261.2435913085938 128.9004821777344 261.2435607910156 128.9091186523438 C 261.2435302734375 128.917724609375 261.2435302734375 128.9228820800781 261.2434692382812 128.9314880371094 C 261.2434387207031 128.9401092529297 261.243408203125 128.9527587890625 261.2433776855469 128.9613952636719 C 261.2433471679688 128.9656982421875 261.2433166503906 128.9711303710938 261.2432861328125 128.9754333496094 C 261.2432556152344 128.9883880615234 261.2431945800781 129.0004272460938 261.2431335449219 129.0133666992188 C 261.2431030273438 129.0176696777344 261.2431030273438 129.0192565917969 261.2430725097656 129.0235595703125 C 261.2430114746094 129.0365142822266 261.2429504394531 129.0519714355469 261.2428894042969 129.0649261474609 C 261.2428588867188 129.0692291259766 261.2428283691406 129.0740966796875 261.2428283691406 129.0783996582031 C 261.2427368164062 129.0913543701172 261.24267578125 129.1039733886719 261.2426147460938 129.1169128417969 C 261.2425842285156 129.1212158203125 261.2425842285156 129.1220245361328 261.2425537109375 129.1263275146484 C 261.2424926757812 129.1392669677734 261.2424011230469 129.155517578125 261.2423400878906 129.16845703125 C 261.2423095703125 129.1727600097656 261.2422790527344 129.1770629882812 261.2422485351562 129.1813659667969 C 261.2421875 129.1943054199219 261.2420959472656 129.2074737548828 261.2420043945312 129.2204284667969 C 261.2420043945312 129.2247161865234 261.2419738769531 129.2256164550781 261.241943359375 129.2299194335938 C 261.2418823242188 129.2428588867188 261.2417602539062 129.2590637207031 261.24169921875 129.2720031738281 C 261.2416687011719 129.2763061523438 261.2416076660156 129.2816619873047 261.2415771484375 129.2859649658203 C 261.2415161132812 129.2989196777344 261.2414245605469 129.3103332519531 261.2413330078125 129.3232727050781 C 261.2412719726562 129.3318786621094 261.2412719726562 129.3341217041016 261.2412109375 129.3427124023438 C 261.2410888671875 129.3556518554688 261.2410583496094 129.3619079589844 261.240966796875 129.3748474121094 C 261.2409057617188 129.3834533691406 261.2408447265625 129.3906860351562 261.2407836914062 129.3992767333984 C 261.24072265625 129.4078979492188 261.2406311035156 129.41748046875 261.2405700683594 129.4261169433594 C 261.2405090332031 129.4347229003906 261.2404174804688 129.4444580078125 261.2403564453125 129.4530639648438 C 261.2402954101562 129.461669921875 261.240234375 129.4691467285156 261.2401733398438 129.4777526855469 C 261.2400817871094 129.4863586425781 261.2400207519531 129.4950256347656 261.2399291992188 129.5036315917969 C 261.2398681640625 129.5122680664062 261.2398071289062 129.5211334228516 261.2397155761719 129.5297546386719 C 261.2396545410156 129.5383605957031 261.2395935058594 129.5438537597656 261.2395324707031 129.5524597167969 C 261.2394409179688 129.5610809326172 261.2393493652344 129.5727233886719 261.2392578125 129.5813598632812 C 261.2391967773438 129.5899353027344 261.2391052246094 129.5999908447266 261.239013671875 129.6085815429688 C 261.2389221191406 129.6172180175781 261.2388610839844 129.6240081787109 261.2388000488281 129.6326293945312 C 261.2387084960938 129.6412353515625 261.2386169433594 129.6517639160156 261.238525390625 129.6603393554688 C 261.2384338378906 129.6689758300781 261.2383728027344 129.6756896972656 261.2383117675781 129.6843109130859 C 261.2381591796875 129.6972045898438 261.2381286621094 129.7025451660156 261.2379760742188 129.7154235839844 C 261.2378845214844 129.7240600585938 261.2378845214844 129.7269592285156 261.23779296875 129.735595703125 C 261.2376403808594 129.7484741210938 261.2375793457031 129.7541198730469 261.2374572753906 129.7669982910156 C 261.2373657226562 129.7756195068359 261.2373352050781 129.7786560058594 261.2372436523438 129.7872619628906 C 261.2371520996094 129.7958679199219 261.2369995117188 129.8089904785156 261.2369079589844 129.8175811767578 C 261.23681640625 129.8262023925781 261.2367858886719 129.8306579589844 261.2366943359375 129.8392639160156 C 261.2366027832031 129.8478698730469 261.2364807128906 129.8570861816406 261.2363891601562 129.8656768798828 C 261.2362976074219 129.8742980957031 261.2362060546875 129.8823852539062 261.2361145019531 129.8910217285156 C 261.2359924316406 129.8995971679688 261.2359008789062 129.9074249267578 261.2358093261719 129.916015625 C 261.2357177734375 129.9246368408203 261.235595703125 129.9344482421875 261.2355041503906 129.9430694580078 C 261.2353820800781 129.95166015625 261.2353515625 129.9559020996094 261.2352294921875 129.9645080566406 C 261.2350769042969 129.9774169921875 261.2350463867188 129.9817657470703 261.23486328125 129.9946899414062 C 261.2347717285156 130.0032806396484 261.2346801757812 130.0103912353516 261.2345581054688 130.0189819335938 C 261.2344665527344 130.0276031494141 261.2343444824219 130.0373840332031 261.2342224121094 130.0459899902344 C 261.234130859375 130.0545806884766 261.2340393066406 130.0617828369141 261.2339172363281 130.0703735351562 C 261.2338256835938 130.0789794921875 261.2336730957031 130.089111328125 261.2335815429688 130.0977325439453 C 261.2334594726562 130.1063232421875 261.2333374023438 130.1145629882812 261.2332458496094 130.1231689453125 C 261.2331237792969 130.1317749023438 261.2330017089844 130.1405181884766 261.2328796386719 130.1491394042969 C 261.2327880859375 130.15771484375 261.232666015625 130.1656188964844 261.2325439453125 130.1742095947266 C 261.232421875 130.1828308105469 261.2322998046875 130.1921997070312 261.232177734375 130.2008209228516 C 261.2320556640625 130.2094116210938 261.2319641113281 130.2164916992188 261.2318420410156 130.2250671386719 C 261.2317199707031 130.2336883544922 261.2315673828125 130.2443542480469 261.2314453125 130.2529602050781 C 261.2313232421875 130.2615509033203 261.2312927246094 130.2641296386719 261.2311706542969 130.2727203369141 C 261.2309875488281 130.28564453125 261.2308959960938 130.291748046875 261.230712890625 130.3046722412109 C 261.2305908203125 130.3132629394531 261.2305297851562 130.3172607421875 261.2303771972656 130.3258514404297 C 261.2301940917969 130.3387756347656 261.2301330566406 130.3432006835938 261.2299499511719 130.3561248779297 C 261.2297973632812 130.3647155761719 261.2297668457031 130.3675537109375 261.2296447753906 130.3761291503906 C 261.2294311523438 130.3890533447266 261.2293395996094 130.3948974609375 261.2291564941406 130.4078063964844 C 261.2290344238281 130.4163970947266 261.2289428710938 130.4210510253906 261.2288208007812 130.4296417236328 C 261.2286071777344 130.4425659179688 261.2285461425781 130.4462738037109 261.2283630371094 130.4591979980469 C 261.2282104492188 130.4677734375 261.2281494140625 130.4717407226562 261.2279968261719 130.4803314208984 C 261.2278137207031 130.4932556152344 261.2277221679688 130.4980773925781 261.2275085449219 130.510986328125 C 261.2273864746094 130.5195617675781 261.227294921875 130.523681640625 261.2271728515625 130.5322570800781 C 261.2269592285156 130.545166015625 261.2268981933594 130.549560546875 261.2266540527344 130.5624694824219 C 261.2265319824219 130.571044921875 261.2264709472656 130.5742492675781 261.226318359375 130.5828247070312 C 261.2261047363281 130.5957336425781 261.2260131835938 130.6012878417969 261.2257995605469 130.6141967773438 C 261.2256469726562 130.6227722167969 261.2255859375 130.626708984375 261.2254333496094 130.6352996826172 C 261.2252197265625 130.6482086181641 261.2251281738281 130.6527557373047 261.2249145507812 130.6656646728516 C 261.2247619628906 130.6742401123047 261.2247009277344 130.6771240234375 261.2245483398438 130.6856994628906 C 261.2243347167969 130.6986083984375 261.2242126464844 130.7046356201172 261.2239990234375 130.7175445556641 C 261.2238464355469 130.7261199951172 261.2238159179688 130.7267303466797 261.2236633300781 130.7353210449219 C 261.2234497070312 130.7482299804688 261.2232666015625 130.7569580078125 261.2230529785156 130.7698669433594 C 261.222900390625 130.7784423828125 261.2229309082031 130.7757568359375 261.2227783203125 130.7843322753906 C 261.2225341796875 130.7972412109375 261.2223510742188 130.8078002929688 261.2221069335938 130.8207092285156 C 261.2219543457031 130.8292846679688 261.2218933105469 130.8320007324219 261.2217407226562 130.840576171875 C 261.2214965820312 130.8534851074219 261.2213745117188 130.8592224121094 261.2211303710938 130.8721313476562 C 261.2209777832031 130.8807067871094 261.2209167480469 130.883544921875 261.2207336425781 130.8921203613281 C 261.2204895019531 130.905029296875 261.2203979492188 130.9103698730469 261.2201538085938 130.9232788085938 C 261.219970703125 130.9318542480469 261.2198791503906 130.9371643066406 261.2196960449219 130.9457397460938 C 261.2194519042969 130.9586486816406 261.2193908691406 130.9619445800781 261.2191162109375 130.9748382568359 C 261.2189636230469 130.9834136962891 261.2188720703125 130.987060546875 261.2187194824219 130.9956359863281 C 261.2184448242188 131.008544921875 261.2183532714844 131.0137329101562 261.2180786132812 131.0266265869141 C 261.2179260253906 131.0351867675781 261.2178344726562 131.0390930175781 261.2176513671875 131.0476684570312 C 261.2174072265625 131.0605773925781 261.2173156738281 131.0652618408203 261.217041015625 131.0781555175781 C 261.2168579101562 131.0867309570312 261.216796875 131.0902404785156 261.2166137695312 131.0988159179688 C 261.2163391113281 131.1117095947266 261.2162475585938 131.116455078125 261.2159729003906 131.1293640136719 C 261.2157897949219 131.137939453125 261.2156982421875 131.1420288085938 261.2155151367188 131.1506042480469 C 261.2152404785156 131.1634826660156 261.2151184082031 131.1688232421875 261.21484375 131.1817016601562 C 261.2146606445312 131.1902770996094 261.2146606445312 131.1909790039062 261.2144775390625 131.1995391845703 C 261.2141723632812 131.2124328613281 261.2140197753906 131.2197265625 261.2137451171875 131.2326354980469 C 261.2135620117188 131.2412109375 261.2134094238281 131.2474975585938 261.2132263183594 131.2560729980469 C 261.2130432128906 131.2646789550781 261.2128295898438 131.2747802734375 261.2126159667969 131.2833862304688 C 261.2124328613281 131.2919616699219 261.2122497558594 131.2999572753906 261.2120666503906 131.3085327148438 C 261.2118530273438 131.3171234130859 261.211669921875 131.3260498046875 261.2114562988281 131.3346557617188 C 261.2112731933594 131.3432159423828 261.2110900878906 131.35107421875 261.2109069824219 131.3596496582031 C 261.210693359375 131.3682403564453 261.2104797363281 131.3785247802734 261.2102661132812 131.3871154785156 C 261.2100830078125 131.3956909179688 261.2099914550781 131.3994445800781 261.2097778320312 131.4080047607422 C 261.20947265625 131.4208984375 261.2093811035156 131.4252777099609 261.2090759277344 131.4381713867188 C 261.2088623046875 131.4467468261719 261.2086791992188 131.4554748535156 261.2084655761719 131.4640502929688 C 261.208251953125 131.4726257324219 261.2080688476562 131.4803314208984 261.2078857421875 131.4889221191406 C 261.2076721191406 131.4974975585938 261.2074279785156 131.5073852539062 261.2072143554688 131.5159301757812 C 261.20703125 131.5245361328125 261.2068481445312 131.5316467285156 261.2066345214844 131.5402374267578 C 261.2063293457031 131.5530853271484 261.2062683105469 131.5552978515625 261.2059631347656 131.5681457519531 C 261.2057495117188 131.5767211914062 261.2055969238281 131.5833129882812 261.2053833007812 131.5919189453125 C 261.2051696777344 131.6004638671875 261.2049560546875 131.6087188720703 261.2047424316406 131.6172790527344 C 261.2045288085938 131.6258697509766 261.2042846679688 131.6351470947266 261.2040710449219 131.6437377929688 C 261.203857421875 131.6522979736328 261.2036437988281 131.6609802246094 261.2034301757812 131.6695556640625 C 261.2032165527344 131.6781463623047 261.2030029296875 131.6867523193359 261.2027893066406 131.6953430175781 C 261.2025451660156 131.7039031982422 261.2024230957031 131.7094268798828 261.2021789550781 131.7179870605469 C 261.2018737792969 131.7308654785156 261.2017822265625 131.7345123291016 261.2014465332031 131.7474060058594 C 261.2012023925781 131.7559509277344 261.2010498046875 131.7618103027344 261.2008361816406 131.7703552246094 C 261.2005004882812 131.7832489013672 261.200439453125 131.7855224609375 261.2001037597656 131.7984008789062 C 261.1998901367188 131.8069610595703 261.19970703125 131.8132934570312 261.1994934082031 131.8218536376953 C 261.1991271972656 131.8347320556641 261.1990966796875 131.836669921875 261.1987609863281 131.8495483398438 C 261.1985168457031 131.8580932617188 261.1982727050781 131.8666381835938 261.1980590820312 131.8751831054688 C 261.1978149414062 131.8837890625 261.1976013183594 131.8926391601562 261.1973571777344 131.9012451171875 C 261.1971130371094 131.9097900390625 261.1969604492188 131.9159240722656 261.1967163085938 131.9244689941406 C 261.1963806152344 131.9373474121094 261.1962890625 131.9397735595703 261.1959533691406 131.9526519775391 C 261.1957092285156 131.9612121582031 261.1955261230469 131.9683227539062 261.1952819824219 131.9768829345703 C 261.1949157714844 131.9897613525391 261.1948852539062 131.9916229248047 261.1945190429688 132.0045013427734 C 261.1943969726562 132.0087890625 261.1940307617188 132.0217895507812 261.1939086914062 132.0260772705078 C 261.1935424804688 132.0389556884766 261.1934509277344 132.0427856445312 261.1930847167969 132.0556640625 C 261.1929626464844 132.0599365234375 261.1924743652344 132.0767517089844 261.1923522949219 132.0810394287109 C 261.1921081542969 132.0896301269531 261.1918640136719 132.0978851318359 261.1916198730469 132.1064758300781 C 261.1913757324219 132.1150207519531 261.1911315917969 132.1233673095703 261.1908874511719 132.1319274902344 C 261.1905212402344 132.1447906494141 261.1905212402344 132.1450805664062 261.1901245117188 132.157958984375 C 261.1898803710938 132.16650390625 261.1896362304688 132.1748504638672 261.1893920898438 132.1834106445312 C 261.1889953613281 132.1962738037109 261.1889953613281 132.1969604492188 261.1885986328125 132.2098236083984 C 261.1884765625 132.2140960693359 261.1880493164062 132.2288208007812 261.1879272460938 132.2330932617188 C 261.1875305175781 132.2459716796875 261.1874694824219 132.2481994628906 261.1870727539062 132.2610778808594 C 261.1869506835938 132.2653503417969 261.1864624023438 132.2816925048828 261.1863403320312 132.2859802246094 C 261.1859436035156 132.2988433837891 261.1859130859375 132.3000030517578 261.1855163574219 132.3128662109375 C 261.1853942871094 132.3171539306641 261.1849975585938 132.33056640625 261.1848449707031 132.3348388671875 C 261.1844482421875 132.3477172851562 261.1843566894531 132.3515014648438 261.1839599609375 132.3643493652344 C 261.1838073730469 132.3686370849609 261.1833801269531 132.3826599121094 261.1832580566406 132.3869323730469 C 261.182861328125 132.3998107910156 261.1827392578125 132.4033660888672 261.1823425292969 132.4162292480469 C 261.1822204589844 132.4205017089844 261.1818237304688 132.4329223632812 261.1817016601562 132.4371948242188 C 261.1812744140625 132.4500427246094 261.18115234375 132.4539184570312 261.1807556152344 132.466796875 C 261.1806335449219 132.4710693359375 261.1801147460938 132.4868011474609 261.1799926757812 132.4910888671875 C 261.1795959472656 132.5039367675781 261.1795349121094 132.5056457519531 261.1791076660156 132.5184936523438 C 261.1789855957031 132.5227661132812 261.1785583496094 132.5362243652344 261.1784057617188 132.5404968261719 C 261.1780090332031 132.5533752441406 261.1778869628906 132.5570678710938 261.1774597167969 132.5699310302734 C 261.1773376464844 132.5742034912109 261.1768493652344 132.5889892578125 261.1766967773438 132.59326171875 C 261.1763000488281 132.6061248779297 261.1762084960938 132.6082458496094 261.17578125 132.6211242675781 C 261.1756591796875 132.6253967285156 261.1752014160156 132.6392364501953 261.175048828125 132.6435089111328 C 261.1746215820312 132.6563720703125 261.1745300292969 132.6596374511719 261.1741027832031 132.6724853515625 C 261.1739501953125 132.6767578125 261.1734313964844 132.6924438476562 261.1733093261719 132.6967163085938 C 261.1730041503906 132.7052917480469 261.1726684570312 132.7152099609375 261.1723937988281 132.7237854003906 C 261.1722412109375 132.7280578613281 261.1718139648438 132.7411499023438 261.1716613769531 132.7454223632812 C 261.1712341308594 132.7582702636719 261.1710510253906 132.76318359375 261.1706237792969 132.7760467529297 C 261.1704711914062 132.7803192138672 261.1700439453125 132.7933959960938 261.1698913574219 132.7976684570312 C 261.1695861816406 132.8062438964844 261.169189453125 132.8180541992188 261.1688842773438 132.8266296386719 C 261.1687622070312 132.8309020996094 261.1682739257812 132.8445129394531 261.1681213378906 132.8487854003906 C 261.1678466796875 132.8573608398438 261.1674194335938 132.8692626953125 261.1671142578125 132.8778381347656 C 261.1668395996094 132.8863677978516 261.1665649414062 132.8941650390625 261.166259765625 132.9027099609375 C 261.1659545898438 132.9112854003906 261.1656494140625 132.9203796386719 261.1653442382812 132.9289398193359 C 261.1651916503906 132.9332122802734 261.1646728515625 132.9476928710938 261.1645202636719 132.9519653320312 C 261.1642150878906 132.9605407714844 261.163818359375 132.9721069335938 261.1635131835938 132.9806823730469 C 261.1633605957031 132.9849548339844 261.162841796875 132.9992065429688 261.1626892089844 133.0034790039062 C 261.1622314453125 133.0163269042969 261.162109375 133.0198516845703 261.1616516113281 133.03271484375 C 261.1614990234375 133.0369720458984 261.1610717773438 133.048828125 261.1609191894531 133.0531005859375 C 261.1605834960938 133.0616760253906 261.1601257324219 133.0748596191406 261.1598205566406 133.0834197998047 C 261.1594848632812 133.0919647216797 261.1592712402344 133.0983581542969 261.1589660644531 133.1069030761719 C 261.1586303710938 133.1154632568359 261.1582336425781 133.1261138916016 261.1579284667969 133.1346740722656 C 261.1577758789062 133.1389465332031 261.1572570800781 133.1530456542969 261.1571044921875 133.1573181152344 C 261.1567687988281 133.1658935546875 261.1563720703125 133.1768646240234 261.1560668945312 133.1854248046875 C 261.1557312011719 133.1939697265625 261.1554260253906 133.2024841308594 261.1550903320312 133.2110290527344 C 261.15478515625 133.2195739746094 261.1544494628906 133.2282562255859 261.1541442871094 133.23681640625 C 261.1539611816406 133.2410888671875 261.1534118652344 133.2556304931641 261.1532592773438 133.2599029541016 C 261.1529541015625 133.2684631347656 261.1525268554688 133.2797241210938 261.1521911621094 133.2882843017578 C 261.15185546875 133.2968139648438 261.1515502929688 133.3048706054688 261.1512451171875 133.3134155273438 C 261.1509094238281 133.3219757080078 261.1505737304688 133.3307952880859 261.1502380371094 133.33935546875 C 261.1500854492188 133.3436279296875 261.1495056152344 133.3586578369141 261.1493225097656 133.3629150390625 C 261.1489868164062 133.3714904785156 261.1485595703125 133.3826904296875 261.1482238769531 133.3912353515625 C 261.1478881835938 133.3997802734375 261.1476745605469 133.4056396484375 261.1473388671875 133.4141540527344 C 261.1470031738281 133.4227294921875 261.1465759277344 133.4341430664062 261.146240234375 133.4426879882812 C 261.1459045410156 133.4512329101562 261.1456604003906 133.4570007324219 261.1453247070312 133.4655456542969 C 261.1449890136719 133.4741058349609 261.1445922851562 133.4840240478516 261.1442565917969 133.4925842285156 C 261.1439208984375 133.5011291503906 261.1434936523438 133.5117797851562 261.1431579589844 133.5202941894531 C 261.142822265625 133.5288696289062 261.142578125 133.5352783203125 261.1422119140625 133.5438232421875 C 261.1418762207031 133.5523681640625 261.1415710449219 133.5597686767578 261.1412353515625 133.5682983398438 C 261.1408996582031 133.5768585205078 261.1404418945312 133.5879516601562 261.1401062011719 133.5964965820312 C 261.1397705078125 133.6050415039062 261.1394958496094 133.6113586425781 261.13916015625 133.619873046875 C 261.1387939453125 133.6284332275391 261.1383972167969 133.6388244628906 261.1380310058594 133.6473846435547 C 261.1376953125 133.6559143066406 261.137451171875 133.6619567871094 261.1370849609375 133.6704864501953 C 261.1367492675781 133.6790466308594 261.1363220214844 133.6895599365234 261.1359558105469 133.6981201171875 C 261.1355895996094 133.7066497802734 261.1352233886719 133.7157897949219 261.1348571777344 133.7243347167969 C 261.134521484375 133.7328796386719 261.1341857910156 133.7406921386719 261.1338500976562 133.749267578125 C 261.1334838867188 133.7577819824219 261.1331787109375 133.7650299072266 261.1328125 133.7735595703125 C 261.1324768066406 133.7821044921875 261.1320190429688 133.7927398681641 261.1316528320312 133.8013000488281 C 261.1312866210938 133.809814453125 261.1310424804688 133.8159484863281 261.1306762695312 133.824462890625 C 261.1303100585938 133.8330078125 261.1298217773438 133.8445739746094 261.1294555664062 133.8531341552734 C 261.1293029785156 133.8573913574219 261.1287536621094 133.8698120117188 261.1285705566406 133.8740692138672 C 261.1282043457031 133.8826293945312 261.127685546875 133.8953552246094 261.1273193359375 133.9039001464844 C 261.126953125 133.9124145507812 261.1266174316406 133.9197540283203 261.1262512207031 133.9282836914062 C 261.1258850097656 133.9368286132812 261.12548828125 133.9459533691406 261.1251220703125 133.9545135498047 C 261.124755859375 133.9630432128906 261.1244506835938 133.9699401855469 261.1240844726562 133.9784545898438 C 261.1237182617188 133.9870147705078 261.123291015625 133.9970550537109 261.1228942871094 134.0055999755859 C 261.1225280761719 134.0141296386719 261.1221618652344 134.0227203369141 261.1217956542969 134.03125 C 261.1213989257812 134.039794921875 261.1210327148438 134.0487213134766 261.1206359863281 134.0572814941406 C 261.1202697753906 134.0657958984375 261.1200256347656 134.0710144042969 261.1196594238281 134.0795440673828 C 261.1192932128906 134.0881042480469 261.1187438964844 134.1004180908203 261.1183471679688 134.1089630126953 C 261.1179809570312 134.1174926757812 261.11767578125 134.1243591308594 261.1172790527344 134.1328887939453 C 261.1169128417969 134.1414337158203 261.1164855957031 134.1510925292969 261.1160888671875 134.1596374511719 C 261.11572265625 134.1681518554688 261.1154174804688 134.1743774414062 261.1150512695312 134.1829071044922 C 261.1146545410156 134.1914520263672 261.1141662597656 134.2024230957031 261.11376953125 134.2109680175781 C 261.1134033203125 134.219482421875 261.1130981445312 134.2257690429688 261.1127319335938 134.2342834472656 C 261.1123352050781 134.2428283691406 261.1117858886719 134.2550048828125 261.1113891601562 134.2635498046875 C 261.1112060546875 134.267822265625 261.1106872558594 134.2790832519531 261.1104736328125 134.2833404541016 C 261.110107421875 134.2918853759766 261.1094970703125 134.30517578125 261.1091003417969 134.313720703125 C 261.1087036132812 134.3222351074219 261.1083679199219 134.3292846679688 261.1079711914062 134.3377990722656 C 261.1075744628906 134.3463439941406 261.1071472167969 134.3559265136719 261.1067504882812 134.3644714355469 C 261.1063537597656 134.3729858398438 261.1060485839844 134.3790893554688 261.1056518554688 134.3876037597656 C 261.1052551269531 134.3961486816406 261.104736328125 134.4073333740234 261.1043395996094 134.4158782958984 C 261.1039428710938 134.4243927001953 261.1036376953125 134.4308471679688 261.1032409667969 134.4393615722656 C 261.1028442382812 134.4479064941406 261.102294921875 134.4592742919922 261.1018981933594 134.4678192138672 C 261.1015014648438 134.4763336181641 261.101318359375 134.47998046875 261.1009216308594 134.4884948730469 C 261.1005249023438 134.4970397949219 261.0998840332031 134.5101776123047 261.0994873046875 134.5187225341797 C 261.0990905761719 134.5272369384766 261.0987854003906 134.5335693359375 261.0983581542969 134.5420837402344 C 261.0979614257812 134.5506134033203 261.0974731445312 134.56103515625 261.0970458984375 134.569580078125 C 261.0966491699219 134.5780944824219 261.0964050292969 134.5827941894531 261.0960083007812 134.59130859375 C 261.0955810546875 134.599853515625 261.0949401855469 134.6134643554688 261.0945129394531 134.6220092773438 C 261.0941162109375 134.6305236816406 261.0939636230469 134.6330871582031 261.0935668945312 134.6416015625 C 261.0931396484375 134.650146484375 261.0924072265625 134.6655578613281 261.0919799804688 134.6741027832031 C 261.0917663574219 134.6783447265625 261.0913391113281 134.6873168945312 261.0911254882812 134.6915588378906 C 261.0906982421875 134.7001037597656 261.0899353027344 134.7155456542969 261.0895385742188 134.7240753173828 C 261.089111328125 134.7325897216797 261.0888977050781 134.7370910644531 261.0884704589844 134.74560546875 C 261.0880432128906 134.754150390625 261.0874328613281 134.7666015625 261.0870056152344 134.775146484375 C 261.0865783691406 134.7836456298828 261.0863952636719 134.7870025634766 261.0859985351562 134.7955017089844 C 261.0855712890625 134.8040466308594 261.0848999023438 134.817138671875 261.08447265625 134.82568359375 C 261.0840454101562 134.8341979980469 261.083740234375 134.8401794433594 261.0833129882812 134.8486785888672 C 261.0828857421875 134.8572082519531 261.0823364257812 134.868408203125 261.0819091796875 134.876953125 C 261.0814819335938 134.8854522705078 261.081298828125 134.8891296386719 261.0808410644531 134.8976440429688 C 261.0804138183594 134.9061889648438 261.0797119140625 134.9201049804688 261.0792846679688 134.9286346435547 C 261.078857421875 134.9371337890625 261.07861328125 134.9417572021484 261.0781860351562 134.9502563476562 C 261.0777282714844 134.9588012695312 261.0770874023438 134.9712982177734 261.07666015625 134.9798278808594 C 261.0762329101562 134.9883422851562 261.0760803222656 134.9909973144531 261.0756530761719 134.99951171875 C 261.0752258300781 135.0080261230469 261.0744323730469 135.0229187011719 261.0740051269531 135.0314483642578 C 261.0735778808594 135.0399475097656 261.0734252929688 135.0423583984375 261.072998046875 135.0508575439453 C 261.0725402832031 135.0593872070312 261.0717163085938 135.0753479003906 261.0712890625 135.0838928222656 C 261.071044921875 135.088134765625 261.0706787109375 135.0955810546875 261.0704345703125 135.0998229980469 C 261.0700073242188 135.1083679199219 261.069091796875 135.1255645751953 261.0686645507812 135.1340942382812 C 261.0682067871094 135.1426086425781 261.0680847167969 135.1449127197266 261.067626953125 135.1534118652344 C 261.0671997070312 135.1619567871094 261.06640625 135.177001953125 261.0659484863281 135.1855163574219 C 261.0657043457031 135.1897735595703 261.0652770996094 135.1983337402344 261.0650329589844 135.2025909423828 C 261.0645751953125 135.2111206054688 261.0636596679688 135.2282562255859 261.063232421875 135.2367858886719 C 261.0627746582031 135.2452850341797 261.0626831054688 135.2466125488281 261.0622253417969 135.2551116943359 C 261.0617980957031 135.2636413574219 261.0609436035156 135.2793273925781 261.0604858398438 135.2878570556641 C 261.0602416992188 135.2921142578125 261.059814453125 135.3004608154297 261.0595703125 135.3047180175781 C 261.0591125488281 135.313232421875 261.0582275390625 135.3299255371094 261.0577697753906 135.3384399414062 C 261.0572814941406 135.3469543457031 261.05712890625 135.3501586914062 261.0566711425781 135.3586730957031 C 261.0561828613281 135.3671875 261.0554809570312 135.3800964355469 261.0550231933594 135.3886413574219 C 261.0545654296875 135.3971252441406 261.0543823242188 135.400634765625 261.0538940429688 135.4091491699219 C 261.0534362792969 135.4176635742188 261.0527038574219 135.4310302734375 261.05224609375 135.4395751953125 C 261.0517883300781 135.4480590820312 261.0515441894531 135.4521789550781 261.0510864257812 135.4606781005859 C 261.0505981445312 135.4692077636719 261.0498046875 135.4837493896484 261.0493469238281 135.4922790527344 C 261.0488586425781 135.5007781982422 261.0488586425781 135.5008544921875 261.0484008789062 135.5093536376953 C 261.0479125976562 135.5178833007812 261.0469970703125 135.5341796875 261.0465393066406 135.5427093505859 C 261.0460510253906 135.5512084960938 261.0458984375 135.5539855957031 261.0454406738281 135.5624847412109 C 261.0449523925781 135.5710144042969 261.0441284179688 135.5854949951172 261.0436706542969 135.5940246582031 C 261.0431823730469 135.6025085449219 261.0431213378906 135.6037902832031 261.0426330566406 135.6122894287109 C 261.0421447753906 135.6208190917969 261.0412902832031 135.6363983154297 261.0408020019531 135.6449279785156 C 261.0403137207031 135.6534118652344 261.0401916503906 135.6555786132812 261.0397033691406 135.6640625 C 261.0392150878906 135.6725921630859 261.0382995605469 135.6886901855469 261.0378112792969 135.6972198486328 C 261.037353515625 135.7057189941406 261.0374145507812 135.7044982910156 261.0369262695312 135.7129821777344 C 261.0364379882812 135.7215118408203 261.0354614257812 135.7383728027344 261.0349731445312 135.7468872070312 C 261.0344848632812 135.75537109375 261.0342712402344 135.7592926025391 261.0337829589844 135.7677917480469 C 261.0332946777344 135.7763061523438 261.0325622558594 135.7889099121094 261.0320739746094 135.7974243164062 C 261.0315856933594 135.805908203125 261.0314331054688 135.8083648681641 261.0309448242188 135.8168640136719 C 261.0304565429688 135.8253784179688 261.0295715332031 135.8406219482422 261.0290832519531 135.8491363525391 C 261.0285949707031 135.8576354980469 261.0284118652344 135.8603820800781 261.0279235839844 135.8688659667969 C 261.0274353027344 135.8773956298828 261.0265808105469 135.8920288085938 261.0260925292969 135.9005432128906 C 261.0255737304688 135.9090270996094 261.0255432128906 135.9094848632812 261.0250549316406 135.91796875 C 261.0245666503906 135.9264831542969 261.0235595703125 135.9436340332031 261.0230407714844 135.9521484375 C 261.0225524902344 135.9606323242188 261.0225219726562 135.961181640625 261.0220031738281 135.9696655273438 C 261.0215148925781 135.9781799316406 261.0204772949219 135.9954986572266 261.0199890136719 136.0040130615234 C 261.0194702148438 136.0125122070312 261.0195617675781 136.0108642578125 261.0190734863281 136.0193481445312 C 261.0185546875 136.0278625488281 261.0175170898438 136.0455322265625 261.0169982910156 136.0540466308594 C 261.0164794921875 136.0625457763672 261.0164489746094 136.0634155273438 261.0159301757812 136.0718994140625 C 261.0154113769531 136.0804138183594 261.0143737792969 136.0975341796875 261.0138854980469 136.1060485839844 C 261.0133666992188 136.1145324707031 261.0134582519531 136.1127624511719 261.0129699707031 136.1212463378906 C 261.012451171875 136.1297607421875 261.0113830566406 136.1473541259766 261.0108642578125 136.1558685302734 C 261.0103454589844 136.1643676757812 261.0102233886719 136.16650390625 261.0097045898438 136.1750030517578 C 261.0091857910156 136.1835174560547 261.0082702636719 136.1985778808594 261.0077514648438 136.2070922851562 C 261.0072326660156 136.215576171875 261.0072326660156 136.2155456542969 261.0067138671875 136.2240295410156 C 261.0061950683594 136.2325439453125 261.005126953125 136.2501525878906 261.0046081542969 136.2586669921875 C 261.0040893554688 136.2671508789062 261.0040893554688 136.2667388916016 261.0035705566406 136.2752227783203 C 261.0030517578125 136.2837371826172 261.0018920898438 136.3026428222656 261.0013732910156 136.3111572265625 C 261.0008239746094 136.3196411132812 261.0010681152344 136.3159484863281 261.0005493164062 136.3244171142578 C 260.999755859375 136.3371887207031 260.9990539550781 136.3486328125 260.9982604980469 136.3613891601562 C 260.9977111816406 136.369873046875 260.997802734375 136.3687133789062 260.9972534179688 136.377197265625 C 260.9967346191406 136.3857116699219 260.9955749511719 136.404296875 260.9950256347656 136.4127960205078 C 260.9945068359375 136.4212799072266 260.9946899414062 136.4184875488281 260.994140625 136.4269714355469 C 260.9936218261719 136.4354858398438 260.9924621582031 136.4539794921875 260.9919128417969 136.4624938964844 C 260.9913940429688 136.4709625244141 260.9913330078125 136.4716491699219 260.9908142089844 136.4801330566406 C 260.9902648925781 136.4886474609375 260.9891662597656 136.5058288574219 260.9886474609375 136.5143432617188 C 260.9880981445312 136.5228271484375 260.9882507324219 136.5205078125 260.9877014160156 136.5289764404297 C 260.9871826171875 136.5374755859375 260.9859924316406 136.5559692382812 260.9854431152344 136.5644683837891 C 260.9848937988281 136.5729522705078 260.98486328125 136.5736389160156 260.9843139648438 136.5821228027344 C 260.9837646484375 136.5906219482422 260.982666015625 136.6078338623047 260.9821166992188 136.6163330078125 C 260.9815979003906 136.6248168945312 260.9817199707031 136.6228179931641 260.9811706542969 136.6313018798828 C 260.9806213378906 136.6398010253906 260.9794006347656 136.6586608886719 260.9788513183594 136.6671752929688 C 260.9783020019531 136.6756591796875 260.9783935546875 136.6742248535156 260.9778442382812 136.6827087402344 C 260.977294921875 136.6912078857422 260.9760131835938 136.7109222412109 260.9754638671875 136.7194213867188 C 260.9751892089844 136.7236633300781 260.9748840332031 136.7284088134766 260.974609375 136.7326354980469 C 260.9737854003906 136.7453918457031 260.9731140136719 136.7555236816406 260.9722900390625 136.7682800292969 C 260.9717102050781 136.7767486572266 260.9716796875 136.77734375 260.9711303710938 136.7858276367188 C 260.9705810546875 136.7943267822266 260.9693908691406 136.8121337890625 260.9688415527344 136.8206481933594 C 260.9685668945312 136.8248901367188 260.9681701660156 136.83056640625 260.9678955078125 136.8348083496094 C 260.9670715332031 136.8475646972656 260.96630859375 136.8588562011719 260.9654846191406 136.8716125488281 C 260.9651794433594 136.8758544921875 260.9647827148438 136.8818664550781 260.9645080566406 136.8860931396484 C 260.9639587402344 136.8945922851562 260.9625549316406 136.9154968261719 260.9619750976562 136.9240112304688 C 260.9617004394531 136.9282379150391 260.9614868164062 136.9316711425781 260.961181640625 136.9359130859375 C 260.9603576660156 136.9486694335938 260.9596557617188 136.9590759277344 260.9588012695312 136.9718322753906 C 260.9582214355469 136.9803009033203 260.9580993652344 136.9822692871094 260.95751953125 136.9907531738281 C 260.9569396972656 136.9992370605469 260.9559936523438 137.013671875 260.9554138183594 137.0221557617188 C 260.954833984375 137.0306396484375 260.9547729492188 137.0316772460938 260.9541931152344 137.0401611328125 C 260.95361328125 137.0486450195312 260.9524536132812 137.0657043457031 260.9518737792969 137.0741882324219 C 260.9513244628906 137.0826721191406 260.9513244628906 137.0825042724609 260.9507446289062 137.0909729003906 C 260.9501647949219 137.0994720458984 260.9489440917969 137.1175537109375 260.9483642578125 137.1260528564453 C 260.9480590820312 137.1302795410156 260.9476318359375 137.1366577148438 260.9473571777344 137.1408996582031 C 260.9467468261719 137.1493835449219 260.945556640625 137.1668395996094 260.9449768066406 137.1753387451172 C 260.9443969726562 137.1838073730469 260.9442749023438 137.1858520507812 260.9436645507812 137.1943054199219 C 260.9430847167969 137.2028045654297 260.9420776367188 137.2177276611328 260.9414672851562 137.2262268066406 C 260.9408874511719 137.2346801757812 260.9408569335938 137.2350463867188 260.9402770996094 137.2435302734375 C 260.939697265625 137.2520141601562 260.9384155273438 137.2705688476562 260.9378051757812 137.2790679931641 C 260.9375305175781 137.2832946777344 260.9371032714844 137.2891540527344 260.9368286132812 137.2933959960938 C 260.9356384277344 137.3103790283203 260.935302734375 137.315185546875 260.9341125488281 137.3321685791016 C 260.9338073730469 137.3363952636719 260.9336547851562 137.3386840820312 260.933349609375 137.3429260253906 C 260.9324645996094 137.3556518554688 260.9316711425781 137.3671722412109 260.9307556152344 137.3799133300781 C 260.9304809570312 137.3841400146484 260.9298400878906 137.3929443359375 260.9295654296875 137.3971862792969 C 260.928955078125 137.4056701660156 260.9276733398438 137.4236907958984 260.9270935058594 137.4321899414062 C 260.9267883300781 137.4364166259766 260.9264526367188 137.4412689208984 260.9261474609375 137.4454956054688 C 260.9252319335938 137.4582366943359 260.9244079589844 137.4699401855469 260.9234924316406 137.4826812744141 C 260.9232177734375 137.4869079589844 260.9227294921875 137.4934539794922 260.9224243164062 137.4976806640625 C 260.9218444824219 137.5061645507812 260.9203491210938 137.5269165039062 260.9197387695312 137.535400390625 C 260.91943359375 137.5396423339844 260.9192504882812 137.5424194335938 260.9189453125 137.5466613769531 C 260.9180297851562 137.5593872070312 260.9171752929688 137.5713043212891 260.916259765625 137.5840454101562 C 260.9159545898438 137.5882568359375 260.9154052734375 137.595947265625 260.9151000976562 137.6001892089844 C 260.9144897460938 137.6086730957031 260.9132080078125 137.6262664794922 260.91259765625 137.634765625 C 260.9122924804688 137.6389770507812 260.9118041992188 137.6458435058594 260.9114990234375 137.6500701904297 C 260.9105834960938 137.6628112792969 260.9097900390625 137.6735534667969 260.9088745117188 137.686279296875 C 260.9085693359375 137.6905059814453 260.9081115722656 137.696533203125 260.9078063964844 137.7007751464844 C 260.9068908691406 137.7135009765625 260.906005859375 137.7254638671875 260.9050903320312 137.7381896972656 C 260.9047546386719 137.7424163818359 260.9044494628906 137.7466583251953 260.9041442871094 137.7508850097656 C 260.9032287597656 137.7636108398438 260.9023132324219 137.7758026123047 260.9013977050781 137.7885437011719 C 260.9010620117188 137.7927551269531 260.9006958007812 137.7980346679688 260.900390625 137.8022766113281 C 260.8991394042969 137.8192443847656 260.8986511230469 137.8256683349609 260.8973999023438 137.8426361083984 C 260.8970947265625 137.8468627929688 260.8971252441406 137.8464965820312 260.8967895507812 137.8507385253906 C 260.8955383300781 137.8677062988281 260.8949279785156 137.8758087158203 260.8936767578125 137.8927764892578 C 260.8933715820312 137.8970031738281 260.8932800292969 137.8982543945312 260.8929443359375 137.9024810791016 C 260.8916931152344 137.9194488525391 260.8912048339844 137.9261779785156 260.8899230957031 137.9431457519531 C 260.8896179199219 137.9473571777344 260.8894348144531 137.9494934082031 260.8891296386719 137.9537200927734 C 260.88818359375 137.9664459228516 260.8872680664062 137.978515625 260.8863220214844 137.9912414550781 C 260.885986328125 137.9954528808594 260.885498046875 138.0021820068359 260.8851623535156 138.0064086914062 C 260.8842163085938 138.0191345214844 260.8833312988281 138.0309906005859 260.8823547363281 138.0437164306641 C 260.8820495605469 138.0479431152344 260.8817749023438 138.0513610839844 260.8814697265625 138.0555725097656 C 260.8804931640625 138.0682983398438 260.8794555664062 138.0819702148438 260.8785095214844 138.0946960449219 C 260.878173828125 138.0989074707031 260.8778991699219 138.1026000976562 260.8775939941406 138.1068420410156 C 260.8762817382812 138.1237945556641 260.875732421875 138.1312866210938 260.8744201660156 138.1482543945312 C 260.8740844726562 138.1524810791016 260.8741760253906 138.1513824462891 260.8738708496094 138.1556091308594 C 260.8728942871094 138.1683349609375 260.8717651367188 138.1831665039062 260.8707885742188 138.1958618164062 C 260.8704528808594 138.2001037597656 260.8700866699219 138.2049865722656 260.8697509765625 138.209228515625 C 260.8687744140625 138.2219390869141 260.8677368164062 138.2353515625 260.8667602539062 138.248046875 C 260.8664245605469 138.2522888183594 260.8662719726562 138.2541961669922 260.865966796875 138.2584228515625 C 260.864990234375 138.2711486816406 260.8639221191406 138.2848815917969 260.8629150390625 138.297607421875 C 260.8626098632812 138.3018341064453 260.8622436523438 138.3065185546875 260.8619079589844 138.3107299804688 C 260.8609313964844 138.3234558105469 260.8600463867188 138.3347473144531 260.8590393066406 138.3474426269531 C 260.8587036132812 138.3516693115234 260.8583068847656 138.3571166992188 260.8579711914062 138.361328125 C 260.8569641113281 138.3740539550781 260.8560485839844 138.3857116699219 260.8550720214844 138.3984069824219 C 260.854736328125 138.4026489257812 260.8543090820312 138.4079895019531 260.8539733886719 138.4122009277344 C 260.8526611328125 138.4291687011719 260.85205078125 138.4368896484375 260.8507080078125 138.4538269042969 C 260.8503723144531 138.4580688476562 260.8505249023438 138.4560546875 260.8501892089844 138.4602661132812 C 260.848876953125 138.4772186279297 260.8480529785156 138.4873352050781 260.8467102050781 138.5042877197266 C 260.8463745117188 138.5085144042969 260.8464660644531 138.5074157714844 260.8461303710938 138.5116577148438 C 260.8447875976562 138.5285949707031 260.8441467285156 138.5367126464844 260.8428039550781 138.5536499023438 C 260.8424682617188 138.557861328125 260.8423767089844 138.5591125488281 260.842041015625 138.5633239746094 C 260.8410034179688 138.5760498046875 260.8399658203125 138.589111328125 260.8389587402344 138.6018371582031 C 260.838623046875 138.6060485839844 260.8381958007812 138.6112670898438 260.8378601074219 138.615478515625 C 260.8368530273438 138.628173828125 260.8357849121094 138.6414794921875 260.8347473144531 138.6541900634766 C 260.8344116210938 138.6584167480469 260.8341979980469 138.6610260009766 260.8338623046875 138.6652526855469 C 260.8328552246094 138.6779479980469 260.8318786621094 138.6897277832031 260.8308715820312 138.7024383544922 C 260.8305358886719 138.7066650390625 260.8299865722656 138.7132568359375 260.8296508789062 138.7174987792969 C 260.8282775878906 138.7344207763672 260.8278198242188 138.7402038574219 260.8264465332031 138.7571411132812 C 260.8260803222656 138.7613525390625 260.8260803222656 138.761474609375 260.8257446289062 138.7657012939453 C 260.82470703125 138.7784118652344 260.8233947753906 138.7943420410156 260.8223571777344 138.8070373535156 C 260.822021484375 138.8112487792969 260.8218688964844 138.8132019042969 260.821533203125 138.8174133300781 C 260.8201293945312 138.8343505859375 260.8193359375 138.8442993164062 260.8179321289062 138.8612365722656 C 260.8175964355469 138.8654479980469 260.81787109375 138.8620300292969 260.8175354003906 138.8662414550781 C 260.8161315917969 138.8831787109375 260.8153076171875 138.8931884765625 260.8139038085938 138.9101257324219 C 260.8135681152344 138.9143371582031 260.8135986328125 138.9139709472656 260.8132629394531 138.9181823730469 C 260.8118591308594 138.9351196289062 260.8109741210938 138.9457092285156 260.8095703125 138.9626312255859 C 260.8092346191406 138.9668579101562 260.8094787597656 138.9637145996094 260.8091430664062 138.9679260253906 C 260.8080749511719 138.9806213378906 260.8066711425781 138.9974365234375 260.8056335449219 139.0101318359375 C 260.8052673339844 139.0143432617188 260.8051147460938 139.016357421875 260.8047485351562 139.0205688476562 C 260.8033447265625 139.0375061035156 260.8026733398438 139.0454711914062 260.80126953125 139.0623779296875 C 260.8009033203125 139.0666046142578 260.8009643554688 139.0660400390625 260.8005981445312 139.0702514648438 C 260.7995300292969 139.0829467773438 260.7983703613281 139.0970458984375 260.7973022460938 139.1097259521484 C 260.7969360351562 139.1139526367188 260.7965393066406 139.1187438964844 260.7961730957031 139.1229553222656 C 260.7947692871094 139.1398773193359 260.7942199707031 139.1461791992188 260.7927856445312 139.1630859375 C 260.7924499511719 139.1672973632812 260.7924194335938 139.1676635742188 260.7920532226562 139.1718902587891 C 260.7909851074219 139.1845703125 260.789794921875 139.1986541748047 260.7887268066406 139.2113342285156 C 260.7883605957031 139.2155456542969 260.7879638671875 139.2200927734375 260.7876281738281 139.2243041992188 C 260.7865295410156 139.2369995117188 260.7853393554688 139.2509765625 260.7842712402344 139.2636566162109 C 260.7839050292969 139.2678680419922 260.7837524414062 139.2696533203125 260.7833862304688 139.2738647460938 C 260.7823181152344 139.2865600585938 260.7811889648438 139.2996520996094 260.7800903320312 139.3123474121094 C 260.7797546386719 139.3165588378906 260.7793273925781 139.3215026855469 260.7789611816406 139.3257141113281 C 260.7774963378906 139.3426208496094 260.7768859863281 139.3499755859375 260.7754211425781 139.3668823242188 C 260.7750549316406 139.37109375 260.775146484375 139.3701171875 260.7747802734375 139.3743286132812 C 260.773681640625 139.3870239257812 260.7723083496094 139.4030151367188 260.7712097167969 139.4157104492188 C 260.7708435058594 139.419921875 260.7706604003906 139.4221801757812 260.7702941894531 139.4263916015625 C 260.7688293457031 139.4432983398438 260.7679443359375 139.4533996582031 260.7664794921875 139.4703063964844 C 260.7664794921875 139.4703063964844 260.7660522460938 139.4750671386719 260.7660522460938 139.4750671386719 C 260.7645874023438 139.4919738769531 260.7636413574219 139.5027008056641 260.7621765136719 139.5196075439453 C 260.7618103027344 139.5238189697266 260.7619323730469 139.5223846435547 260.7615661621094 139.5265960693359 C 260.7601013183594 139.5435028076172 260.7591247558594 139.554443359375 260.7576599121094 139.5713500976562 C 260.7576599121094 139.5713500976562 260.7571716308594 139.5767364501953 260.7571716308594 139.5767364501953 C 260.7557067871094 139.5936279296875 260.7548217773438 139.6034545898438 260.7533264160156 139.620361328125 C 260.7529602050781 139.6245727539062 260.7530212402344 139.6240386962891 260.7526550292969 139.6282501220703 C 260.7511596679688 139.6451416015625 260.7501220703125 139.65673828125 260.7486267089844 139.6736450195312 C 260.7486267089844 139.6736450195312 260.7482604980469 139.6777038574219 260.7482604980469 139.6777038574219 C 260.7467651367188 139.6946105957031 260.7455749511719 139.708251953125 260.7440490722656 139.7251586914062 C 260.7440490722656 139.7251586914062 260.7438049316406 139.7281799316406 260.7438049316406 139.7281799316406 C 260.7422790527344 139.7450866699219 260.7409057617188 139.7606353759766 260.7393798828125 139.7775268554688 C 260.7393798828125 139.7775268554688 260.7393188476562 139.7782287597656 260.7393188476562 139.7782287597656 C 260.7378234863281 139.7951354980469 260.7366943359375 139.8077239990234 260.7351684570312 139.8246154785156 C 260.7351684570312 139.8246154785156 260.7346496582031 139.8304443359375 260.7346496582031 139.8304443359375 C 260.7331237792969 139.8473205566406 260.7322387695312 139.8572998046875 260.730712890625 139.8741912841797 C 260.730712890625 139.8741912841797 260.7300720214844 139.8813323974609 260.7300720214844 139.8813323974609 C 260.7285461425781 139.8982238769531 260.7276611328125 139.9079742431641 260.7261352539062 139.9248657226562 C 260.7261352539062 139.9248657226562 260.7254943847656 139.9319458007812 260.7254943847656 139.9319458007812 C 260.7239685058594 139.9488220214844 260.722900390625 139.9605712890625 260.7213745117188 139.9774627685547 C 260.7213745117188 139.9774627685547 260.720947265625 139.9818725585938 260.720947265625 139.9818725585938 C 260.7194213867188 139.9987640380859 260.7184143066406 140.0098876953125 260.7168579101562 140.0267639160156 C 260.7168579101562 140.0267639160156 260.7162780761719 140.0331115722656 260.7162780761719 140.0331115722656 C 260.7147521972656 140.0499877929688 260.71337890625 140.0647277832031 260.7118530273438 140.0816192626953 C 260.7118530273438 140.0816192626953 260.7117919921875 140.0822448730469 260.7117919921875 140.0822448730469 C 260.7102355957031 140.09912109375 260.7089233398438 140.1134185791016 260.7073669433594 140.1303100585938 C 260.7073669433594 140.1303100585938 260.7070617675781 140.1335906982422 260.7070617675781 140.1335906982422 C 260.7039489746094 140.1673583984375 260.7012023925781 140.1971282958984 260.6980590820312 140.2308959960938 C 260.6980590820312 140.2308959960938 260.6976623535156 140.2351684570312 260.6976623535156 140.2351684570312 C 260.6960754394531 140.2520446777344 260.6947021484375 140.2666931152344 260.6931457519531 140.2835693359375 C 260.6931457519531 140.2835693359375 260.6929931640625 140.2850189208984 260.6929931640625 140.2850189208984 C 260.6882629394531 140.3356475830078 260.6835327148438 140.3859252929688 260.6787414550781 140.4365539550781 C 260.6787414550781 140.4365539550781 260.6787414550781 140.4365844726562 260.6787414550781 140.4365844726562 C 260.67236328125 140.5040588378906 260.6662902832031 140.5678405761719 260.6597900390625 140.6352996826172 C 260.6597900390625 140.6352996826172 260.6593017578125 140.6401977539062 260.6593017578125 140.6401977539062 C 260.6576843261719 140.6570739746094 260.6563720703125 140.6708068847656 260.6547241210938 140.6876831054688 C 260.6547241210938 140.6876831054688 260.6545104980469 140.6900634765625 260.6545104980469 140.6900634765625 C 260.6528625488281 140.7069244384766 260.6515197753906 140.7209320068359 260.6498718261719 140.73779296875 C 260.6498718261719 140.73779296875 260.6495971679688 140.7408142089844 260.6495971679688 140.7408142089844 C 260.6463012695312 140.7745513916016 260.6432495117188 140.8058471679688 260.6399536132812 140.8395690917969 C 260.6399536132812 140.8395690917969 260.6397399902344 140.8418273925781 260.6397399902344 140.8418273925781 C 260.6331481933594 140.9092407226562 260.6265563964844 140.9759216308594 260.6198425292969 141.0433349609375 C 260.6198425292969 141.0433349609375 260.6198120117188 141.0436401367188 260.6198120117188 141.0436401367188 C 254.1895446777344 205.6585845947266 198.9102478027344 256.1674194335938 131.4941101074219 256.5144958496094 L 131.2968902587891 218.5150451660156 C 182.0285339355469 218.2518310546875 223.2760314941406 177.8104095458984 223.2444763183594 128.3643341064453 C 223.2126770019531 78.56925964355469 181.6151733398438 38.03205871582031 130.5165405273438 38.00004577636719 L 130.5403900146484 6.103515625e-05 Z M 130.4550323486328 6.103515625e-05 L 130.4550323486328 38.00004577636719 L 129.4409027099609 38.00526428222656 L 129.0466156005859 0.00732421875 C 129.3187561035156 0.0045166015625 129.5951690673828 0.00250244140625 129.8677215576172 0.001312255859375 C 129.8970184326172 0.001220703125 129.9268188476562 0.001068115234375 129.9561157226562 0.0009765625 C 129.9815216064453 0.000823974609375 130.0023956298828 0.00079345703125 130.0277862548828 0.000732421875 C 130.0619964599609 0.000640869140625 130.0847778320312 0.000518798828125 130.1189880371094 0.000457763671875 C 130.1475219726562 0.000396728515625 130.1728973388672 0.000335693359375 130.2014465332031 0.000274658203125 C 130.2275085449219 0.000244140625 130.2610473632812 0.000152587890625 130.2872009277344 0.000152587890625 C 130.3158569335938 0.0001220703125 130.3486175537109 0.000335693359375 130.3772735595703 6.103515625e-05 C 130.4032135009766 6.103515625e-05 130.4291076660156 6.103515625e-05 130.4550323486328 6.103515625e-05 C 130.4550323486328 6.103515625e-05 130.4550323486328 6.103515625e-05 130.4550323486328 6.103515625e-05 Z" stroke="none" fill="#fff"/>
    </g>
    <g transform="matrix(0.92, -0.39, 0.39, 0.92, -97.12, 44.05)" filter="url(#Path_1608)">
      <path id="Path_1608-2" data-name="Path 1608" d="M13.073,133.26,42.9,0,1.217,129.983a6.53,6.53,0,1,0,10.9,7.176h0v-.018a6.491,6.491,0,0,0,.962-3.292A3.537,3.537,0,0,0,13.073,133.26Z" transform="matrix(0.92, 0.39, -0.39, 0.92, 222.13, 52.1)" fill="#25ffff"/>
    </g>
  </g>
</svg>
