<svg id="Component_9_3" data-name="Component 9 – 3" xmlns="http://www.w3.org/2000/svg" width="80.439" height="80.012" viewBox="0 0 80.439 80.012">
  <text id="COURSES" transform="translate(37.662 33.184)" fill="#50f8ff" font-size="12" font-family="Corbel" letter-spacing="-0.299em" opacity="0"><tspan x="0" y="11">C</tspan></text>
  <g id="Group_136" data-name="Group 136" transform="translate(0 32.758) rotate(-34)" opacity="0.51">
    <path id="Icon_feather-chevron-down" data-name="Icon feather-chevron-down" d="M0,0,5.739,5.739,11.477,0" transform="translate(23.649 51.261)" fill="none" stroke="#50f8ff" stroke-linecap="round" stroke-linejoin="round" stroke-width="2"/>
    <path id="Icon_feather-chevron-down-2" data-name="Icon feather-chevron-down" d="M0,0,5.739,5.739,11.477,0" transform="matrix(0.035, -0.999, 0.999, 0.035, 52.445, 34.828)" fill="none" stroke="#50f8ff" stroke-linecap="round" stroke-linejoin="round" stroke-width="2"/>
    <path id="Icon_feather-chevron-down-3" data-name="Icon feather-chevron-down" d="M0,0,5.739,5.739,11.477,0" transform="matrix(-0.999, -0.035, 0.035, -0.999, 35.119, 6.136)" fill="none" stroke="#50f8ff" stroke-linecap="round" stroke-linejoin="round" stroke-width="2"/>
    <path id="Icon_feather-chevron-down-4" data-name="Icon feather-chevron-down" d="M0,0,5.739,5.739,11.477,0" transform="matrix(-0.07, 0.998, -0.998, -0.07, 6.525, 22.481)" fill="none" stroke="#50f8ff" stroke-linecap="round" stroke-linejoin="round" stroke-width="2"/>
    <rect id="Rectangle_231" data-name="Rectangle 231" width="22.562" height="22.562" transform="translate(13.53 28.005) rotate(-45)" fill="#50f8ff"/>
  </g>
  <path id="Rectangle_341" data-name="Rectangle 341" d="M0,0H0A12,12,0,0,1,12,12v5A12,12,0,0,1,0,29H0a0,0,0,0,1,0,0V0A0,0,0,0,1,0,0Z" transform="translate(58.662 29.184)" fill="#777" opacity="0"/>
</svg>
