<svg xmlns="http://www.w3.org/2000/svg" width="275.417" height="427.311" viewBox="0 0 275.417 427.311">
  <g id="full_certifiacte_girl" data-name="full certifiacte girl" transform="translate(-194.633 -292.688)">
    <path id="Path_1453" data-name="Path 1453" d="M142.719,712.965l-5.951.5,43.174-103.229,5.961,1.694Z" transform="translate(68.732 1)" fill="#3f3d56"/>
    <path id="Path_1454" data-name="Path 1454" d="M320.9,720l3.716-1.112L278.942,610.231l-5.2,1.558Z" transform="translate(55.899)" fill="#3f3d56"/>
    <path id="Path_1455" data-name="Path 1455" d="M223.688,719.988l4.17.011,1.3-102.9-5.838-.016Z" transform="translate(71.968)" fill="#3f3d56"/>
    <path id="Path_1456" data-name="Path 1456" d="M291.127,589.357,305.093,645.8a44.826,44.826,0,0,0,32.642,32.721h0a238.261,238.261,0,0,0,118.547-.764l20.851-5.5c12.116-3.2,21.227-13.6,22.089-26.1a25.685,25.685,0,0,0-2.323-12.872q-.122-.26-.246-.515a34.064,34.064,0,0,0-29.6-19.138l-22.089-.713-80.445-35.64s-27.667-14.053-50.412-15.626C299.089,560.617,287.51,574.741,291.127,589.357Z" transform="translate(-95.827 -60.501)" fill="#c367f8"/>
    <g id="Group_299" data-name="Group 299" transform="translate(157.121 138.732)">
      <path id="Path_1389" data-name="Path 1389" d="M861.623,454a14.623,14.623,0,0,0-19.79,9.19,14.054,14.054,0,0,0-.426,1.907l-58.4,28.957L769.5,485.1l-16.815,19.358,20.634,16.758A14.817,14.817,0,0,0,791,521.9l59.247-40.972a13.941,13.941,0,0,0,1.349.492,14.623,14.623,0,0,0,18.62-11.378,14.226,14.226,0,0,0,.216-1.78A14.667,14.667,0,0,0,861.623,454Z" transform="translate(-593.613 -203.275)" fill="#ffb8b8"/>
      <path id="Path_1461" data-name="Path 1461" d="M374.992,422.108s-9.545,32.727-15,35.455,43.636,6.818,43.636,6.818-1.364-31.364,1.364-34.091S374.992,422.108,374.992,422.108Z" transform="translate(-207.048 -173.491)" fill="#ffb8b8"/>
      <path id="Path_1392" data-name="Path 1392" d="M501.264,498.456h16.293l7.752-42.259H501.261Z" transform="translate(-251.896 63.73)" fill="#ffb8b8"/>
      <path id="Path_1393" data-name="Path 1393" d="M736.95,705.166l52.538,0V704.5a20.449,20.449,0,0,0-20.449-20.449H736.949Z" transform="translate(-491.738 -127.187)" fill="#2f2e41"/>
      <path id="Path_1394" data-name="Path 1394" d="M844.407,705.553l32.483-72.842a26.7,26.7,0,0,0-11.72-34.268l-70.457-37.781-32.151-2.735-29.657-2.7-.214.362c-.273.462-6.65,11.476-2.34,23.553,3.269,9.161,11.774,16.316,25.277,21.267,31.517,11.556,67.926,21.433,82.116,25.143a4.587,4.587,0,0,1,2.939,2.339,4.649,4.649,0,0,1,.261,3.72l-30.178,67.8a5.981,5.981,0,0,0,5.063,8.013l22.55,1.642q.287.027.572.027a5.976,5.976,0,0,0,5.457-3.544Z" transform="translate(-570.669 -169.573)" fill="#2f2e41"/>
      <path id="Path_1395" data-name="Path 1395" d="M507.264,498.456h16.293l7.752-42.259H507.261Z" transform="translate(-265.87 63.73)" fill="#ffb8b8"/>
      <path id="Path_1396" data-name="Path 1396" d="M742.95,705.166l52.538,0V704.5a20.449,20.449,0,0,0-20.449-20.449H742.949Z" transform="translate(-505.712 -127.187)" fill="#2f2e41"/>
      <path id="Path_1397" data-name="Path 1397" d="M851.407,708.553l32.483-72.842a26.7,26.7,0,0,0-11.72-34.268l-70.457-37.781-32.151-2.735-29.657-2.7-.214.362c-.274.462-6.65,11.476-2.34,23.553,3.269,9.161,11.774,16.316,25.277,21.267,31.517,11.556,67.926,21.433,82.116,25.143a4.587,4.587,0,0,1,2.939,2.339,4.65,4.65,0,0,1,.261,3.72l-30.178,67.8a5.981,5.981,0,0,0,5.063,8.013l22.55,1.642q.287.027.572.027A5.976,5.976,0,0,0,851.407,708.553Z" transform="translate(-586.973 -168.586)" fill="#2f2e41"/>
      <path id="Path_1398" data-name="Path 1398" d="M782.464,526.758a222.618,222.618,0,0,0,32-59.716,5.718,5.718,0,0,0-2.7-6.884l-46.709-25.028a5.644,5.644,0,0,0-4.951-.2,5.74,5.74,0,0,0-3.271,3.833A136,136,0,0,1,727,494.437a5.74,5.74,0,0,0-1.38,4.846,5.644,5.644,0,0,0,2.91,4.011l46.71,25.028A5.718,5.718,0,0,0,782.464,526.758Z" transform="translate(-501.84 -209.314)" fill="#ccc"/>
      <path id="Path_1399" data-name="Path 1399" d="M778.288,523.376a1.726,1.726,0,0,1-2.156.445l-46.71-25.028a1.656,1.656,0,0,1-.867-1.192,1.751,1.751,0,0,1,.432-1.5,140,140,0,0,0,30.71-57.315,1.753,1.753,0,0,1,1.008-1.19,1.657,1.657,0,0,1,1.476.061l46.709,25.027a1.726,1.726,0,0,1,.824,2.043,218.637,218.637,0,0,1-31.425,58.647Z" transform="translate(-500.851 -208.326)" fill="#fff"/>
      <path id="Path_1400" data-name="Path 1400" d="M868.268,520.4,877.2,495.6a14.843,14.843,0,0,0-6.648-17.941C851.193,477.156,859.706,483.523,868.268,520.4Z" transform="translate(-706.238 -195.734)" fill="#6c63ff"/>
      <path id="Path_1401" data-name="Path 1401" d="M871.253,604.953a6.643,6.643,0,0,0,2.769-4.717c4.685-43.738,1.422-77.967-9.975-104.641a33.215,33.215,0,0,0-22.018-18.845l-29.57-1.493-.153.074A34.562,34.562,0,0,0,793.408,512c9.511,25.07,17.475,51.172,11.4,72.228a6.808,6.808,0,0,0,.643,5.294,6.491,6.491,0,0,0,4.141,3.069l56.323,13.4a6.6,6.6,0,0,0,5.338-1.033Z" transform="translate(-652.759 -195.888)" fill="#6c63ff"/>
      <path id="Path_1402" data-name="Path 1402" d="M743.793,464.081l25.44,11.23a3.991,3.991,0,0,0,5.258-2.037l.629-1.425a3.992,3.992,0,0,0-2.038-5.258l-25.44-11.23a3.992,3.992,0,0,0-5.258,2.037l-.629,1.425a3.991,3.991,0,0,0,2.037,5.258Z" transform="translate(-483.647 -202.546)" fill="#ccc"/>
      <path id="Path_1403" data-name="Path 1403" d="M750.793,477.081l25.44,11.23a3.991,3.991,0,0,0,5.258-2.037l.629-1.425a3.992,3.992,0,0,0-2.037-5.258l-25.44-11.23a3.992,3.992,0,0,0-5.258,2.037l-.629,1.425A3.992,3.992,0,0,0,750.793,477.081Z" transform="translate(-499.95 -198.268)" fill="#ccc"/>
      <path id="Path_1404" data-name="Path 1404" d="M768.948,543.735l56.716-44.743a13.973,13.973,0,0,0,1.377.406,14.655,14.655,0,0,0,11.719-2.248,14.5,14.5,0,0,0,6.149-10.278,14.621,14.621,0,0,0-28.754-5.051,14.052,14.052,0,0,0-.3,1.93l-56.46,32.572-14.05-8.089L729.776,528.61l21.815,15.549a14.542,14.542,0,0,0,17.357-.423Z" transform="translate(-537.724 -197.438)" fill="#ffb8b8"/>
      <path id="Path_1405" data-name="Path 1405" d="M807.155,531.345l32.36-22.005L824.308,487.8a14.843,14.843,0,0,0-18.512-4.838h0a14.843,14.843,0,0,0-7.834,17.653Z" transform="translate(-622.024 -193.828)" fill="#6c63ff"/>
      <g id="Group_166" data-name="Group 166" transform="translate(-3.425 -108.295)">
        <path id="Path_1458" data-name="Path 1458" d="M381.591,432.645l-12.685-3.092a32.657,32.657,0,0,1-32.051-39.124h0a42.685,42.685,0,0,1,42.631-42.738h0a42.685,42.685,0,0,1,42.738,42.631h0C429.417,415.35,406.891,438.812,381.591,432.645Z" transform="translate(-211.463 -65.056)" fill="#2f2e41"/>
        <circle id="Ellipse_190" data-name="Ellipse 190" cx="31.364" cy="31.364" r="31.364" transform="translate(152.62 309.324)" fill="#ffb8b8"/>
        <circle id="Ellipse_189" data-name="Ellipse 189" cx="20.26" cy="20.26" r="20.26" transform="translate(102.847 274.66)" fill="#2f2e41"/>
        <path id="Path_1457" data-name="Path 1457" d="M353.263,349.085a20.25,20.25,0,0,0-24.247-19.836,20.25,20.25,0,1,1,12.63,38.164,20.243,20.243,0,0,0,11.616-18.328Z" transform="translate(-211.463 -65.056)" fill="#2f2e41"/>
        <path id="Path_1459" data-name="Path 1459" d="M370.643,360.575l27.313-5.029,21,13.165a31.863,31.863,0,0,1,14.678,31.1L412.6,394.474l-4.711-11.812-5.61,9.2-29.334,37.75-16.47-10.488L341.793,396.11Z" transform="translate(-211.463 -65.056)" fill="#2f2e41"/>
      </g>
    </g>
  </g>
</svg>
