<svg id="gate_border" data-name="gate border" xmlns="http://www.w3.org/2000/svg" xmlns:xlink="http://www.w3.org/1999/xlink" width="294.297" height="486.172" viewBox="0 0 294.297 486.172">
  <defs>
    <filter id="Path_1659" x="130.796" y="0" width="30.814" height="25.274" filterUnits="userSpaceOnUse">
      <feOffset dy="3" input="SourceAlpha"/>
      <feGaussianBlur stdDeviation="3" result="blur"/>
      <feFlood flood-opacity="0.161" result="color"/>
      <feComposite operator="out" in="SourceGraphic" in2="blur"/>
      <feComposite operator="in" in="color"/>
      <feComposite operator="in" in2="SourceGraphic"/>
    </filter>
    <filter id="Path_1668" x="0" y="7.883" width="294.297" height="478.289" filterUnits="userSpaceOnUse">
      <feOffset dy="3" input="SourceAlpha"/>
      <feGaussianBlur stdDeviation="6" result="blur-2"/>
      <feFlood/>
      <feComposite operator="in" in2="blur-2"/>
      <feComposite in="SourceGraphic"/>
    </filter>
  </defs>
  <g data-type="innerShadowGroup">
    <g transform="matrix(1, 0, 0, 1, 0, 0)" filter="url(#Path_1659)">
      <g id="Path_1659-2" data-name="Path 1659" transform="translate(130.8)" fill="#fff">
        <path d="M3.8,24.334A11.816,11.816,0,0,1,1.874,18.7a19.919,19.919,0,0,1,.566-7.489A13.864,13.864,0,0,1,6.312,4.591,12.046,12.046,0,0,1,14.3,1.559a15.128,15.128,0,0,1,8.386,1.9,12.311,12.311,0,0,1,4.812,5.4A18.768,18.768,0,0,1,29.179,16.3a26.645,26.645,0,0,1-1.016,8.03" stroke="none"/>
        <path d="M 2.575309276580811 25.27367401123047 C 2.240559339523315 24.83625411987305 1.935508966445923 24.33075141906738 1.664185285568237 23.7685375213623 C 1.392861723899841 23.20632553100586 1.155264735221863 22.5874080657959 0.9549182057380676 21.92315483093262 C 0.7545716166496277 21.25890159606934 0.5909720659255981 20.5493106842041 0.4676431119441986 19.80575942993164 C 0.344817578792572 19.06221008300781 0.2622627317905426 18.28470039367676 0.2235022038221359 17.48460388183594 C 0.1827281564474106 16.63834190368652 0.1917890608310699 15.79136371612549 0.248671367764473 14.95344257354736 C 0.3055537045001984 14.11552143096924 0.411264181137085 13.28666210174561 0.5627825856208801 12.47663116455078 C 0.7143009901046753 11.66660118103027 0.912634015083313 10.87540817260742 1.155264735221863 10.11282157897949 C 1.397895574569702 9.350239753723145 1.685327410697937 8.616263389587402 2.015043497085571 7.920675754547119 C 2.287877321243286 7.34459114074707 2.587893724441528 6.797145843505859 2.914086103439331 6.279137134552002 C 3.240278482437134 5.761127948760986 3.592646837234497 5.272557258605957 3.970184326171875 4.814224720001221 C 4.347722053527832 4.355892181396484 4.750932216644287 3.92779803276062 5.179311275482178 3.530744552612305 C 5.607187271118164 3.133691072463989 6.060232162475586 2.76767635345459 6.536936283111572 2.433504581451416 C 7.076059818267822 2.055656433105469 7.642869472503662 1.721370458602905 8.235855102539062 1.431002855300903 C 8.828840255737305 1.140635251998901 9.448001861572266 0.8941857814788818 10.09283638000488 0.6920046210289001 C 10.73766994476318 0.4898234605789185 11.40717029571533 0.3319144546985626 12.10083198547363 0.2186296135187149 C 12.79449462890625 0.105342797935009 13.51181602478027 0.03668012842535973 14.25229263305664 0.01299554854631424 C 14.31370544433594 0.01103117410093546 14.37511825561523 0.00931455846875906 14.43602752685547 0.007841768674552441 C 14.4969367980957 0.006370945367962122 14.55784606933594 0.005145914852619171 14.61875534057617 0.004164710640907288 C 14.67966461181641 0.003183506429195404 14.74057483673096 0.002448094775900245 14.80098056793213 0.001958475913852453 C 14.8613862991333 0.001466890564188361 14.92179203033447 0.001223064260557294 14.98219871520996 0.001223064260557294 C 15.62552261352539 0.001223064260557294 16.25374412536621 0.02912544645369053 16.86585807800293 0.08478076756000519 C 17.47747039794922 0.1404360830783844 18.07297134399414 0.2238443493843079 18.65186309814453 0.3348619937896729 C 19.23075294494629 0.4458796679973602 19.79253005981445 0.5845027565956116 20.3366870880127 0.7505858540534973 C 20.88084411621094 0.9166689515113831 21.40687942504883 1.110211968421936 21.91429138183594 1.331069469451904 C 22.43730545043945 1.558809161186218 22.94068908691406 1.815206289291382 23.42292976379395 2.099664926528931 C 23.90517234802246 2.384123802185059 24.36627006530762 2.696644306182861 24.80622863769531 3.036632537841797 C 25.24568176269531 3.376620769500732 25.66349029541016 3.744076728820801 26.05864524841309 4.138404846191406 C 26.45430564880371 4.532734870910645 26.82781600952148 4.953935146331787 27.17766761779785 5.401415348052979 C 27.64631652832031 6.000374794006348 28.07167625427246 6.647271633148193 28.45173072814941 7.336760997772217 C 28.83228874206543 8.026248931884766 29.16804504394531 8.758331298828125 29.45648384094238 9.527666091918945 C 29.74542427062988 10.29700088500977 29.9870491027832 11.10359001159668 30.17984580993652 11.94208526611328 C 30.37264060974121 12.78058052062988 30.51660919189453 13.65098190307617 30.60923194885254 14.54795169830322 C 30.69379997253418 15.36397171020508 30.73658752441406 16.19657135009766 30.73809623718262 17.03978538513184 C 30.73910331726074 17.88299942016602 30.69883346557617 18.73683166503906 30.6182918548584 19.59532165527344 C 30.53775024414062 20.45380973815918 30.41643524169922 21.31695556640625 30.25484848022461 22.17879104614258 C 30.0937671661377 23.04062652587891 29.89191055297852 23.90115547180176 29.65078926086426 24.75441932678223 L 26.6747875213623 23.91307640075684 C 27.12732887268066 22.31229400634766 27.42080116271973 20.71400451660156 27.5587272644043 19.15700340270996 C 27.6966552734375 17.60000419616699 27.68004417419434 16.08429718017578 27.51292037963867 14.64868354797363 C 27.34579658508301 13.21306991577148 27.02816200256348 11.85754871368408 26.56505012512207 10.62092018127441 C 26.10143280029297 9.384292602539062 25.49183654785156 8.266561508178711 24.74129104614258 7.306520938873291 C 24.19411277770996 6.607256412506104 23.5789794921875 5.994329929351807 22.89739799499512 5.468276977539062 C 22.21581649780273 4.94222354888916 21.46728515625 4.503043174743652 20.6533145904541 4.15126895904541 C 19.8393440246582 3.79949426651001 18.95993423461914 3.535127401351929 18.01659393310547 3.358705520629883 C 17.07275009155273 3.182283401489258 16.06497573852539 3.093803882598877 14.9942798614502 3.093803882598877 C 14.94142436981201 3.093803882598877 14.88856887817383 3.094020128250122 14.8352108001709 3.094454765319824 C 14.78185176849365 3.094887256622314 14.72849369049072 3.095536231994629 14.67463111877441 3.096401453018188 C 14.62076950073242 3.097268581390381 14.56741046905518 3.098351955413818 14.51354885101318 3.09965181350708 C 14.45968627929688 3.100951433181763 14.40532112121582 3.102469444274902 14.35095596313477 3.104205846786499 C 12.96010780334473 3.148694276809692 11.74846363067627 3.385811328887939 10.69337272644043 3.758708477020264 C 9.638280868530273 4.13160514831543 8.739237785339355 4.640278339385986 7.97459888458252 5.227875709533691 C 7.209959506988525 5.815473556518555 6.57871675491333 6.481996536254883 6.058722019195557 7.170587539672852 C 5.538726806640625 7.85917854309082 5.129979610443115 8.569839477539062 4.80982780456543 9.24571704864502 C 4.533470630645752 9.828378677368164 4.293356418609619 10.4449291229248 4.08998966217041 11.0870885848999 C 3.887126207351685 11.72924900054932 3.721513032913208 12.39702606201172 3.594660520553589 13.08215045928955 C 3.467807769775391 13.76727485656738 3.37971568107605 14.46974277496338 3.331894397735596 15.18128681182861 C 3.284576416015625 15.89283466339111 3.277529001235962 16.61345863342285 3.312765836715698 17.33489418029785 C 3.34397554397583 17.97233963012695 3.40740180015564 18.59198379516602 3.500024318695068 19.18233108520508 C 3.592646837234497 19.77267837524414 3.713962316513062 20.33372116088867 3.861453533172607 20.85396766662598 C 4.008944988250732 21.37421607971191 4.182612419128418 21.85366058349609 4.37842845916748 22.28079986572266 C 4.574244499206543 22.70794486999512 4.792712688446045 23.08278465270996 5.030813217163086 23.3938159942627 L 2.575309276580811 25.27367401123047 Z" stroke="none"/>
      </g>
    </g>
    <g id="Path_1659-3" data-name="Path 1659" transform="translate(130.796)" fill="none">
      <path d="M3.8,24.334A11.816,11.816,0,0,1,1.874,18.7a19.919,19.919,0,0,1,.566-7.489A13.864,13.864,0,0,1,6.312,4.591,12.046,12.046,0,0,1,14.3,1.559a15.128,15.128,0,0,1,8.386,1.9,12.311,12.311,0,0,1,4.812,5.4A18.768,18.768,0,0,1,29.179,16.3a26.645,26.645,0,0,1-1.016,8.03" stroke="none"/>
      <path d="M 2.575309276580811 25.27367401123047 C 2.240559339523315 24.83625411987305 1.935508966445923 24.33075141906738 1.664185285568237 23.7685375213623 C 1.392861723899841 23.20632553100586 1.155264735221863 22.5874080657959 0.9549182057380676 21.92315483093262 C 0.7545716166496277 21.25890159606934 0.5909720659255981 20.5493106842041 0.4676431119441986 19.80575942993164 C 0.344817578792572 19.06221008300781 0.2622627317905426 18.28470039367676 0.2235022038221359 17.48460388183594 C 0.1827281564474106 16.63834190368652 0.1917890608310699 15.79136371612549 0.248671367764473 14.95344257354736 C 0.3055537045001984 14.11552143096924 0.411264181137085 13.28666210174561 0.5627825856208801 12.47663116455078 C 0.7143009901046753 11.66660118103027 0.912634015083313 10.87540817260742 1.155264735221863 10.11282157897949 C 1.397895574569702 9.350239753723145 1.685327410697937 8.616263389587402 2.015043497085571 7.920675754547119 C 2.287877321243286 7.34459114074707 2.587893724441528 6.797145843505859 2.914086103439331 6.279137134552002 C 3.240278482437134 5.761127948760986 3.592646837234497 5.272557258605957 3.970184326171875 4.814224720001221 C 4.347722053527832 4.355892181396484 4.750932216644287 3.92779803276062 5.179311275482178 3.530744552612305 C 5.607187271118164 3.133691072463989 6.060232162475586 2.76767635345459 6.536936283111572 2.433504581451416 C 7.076059818267822 2.055656433105469 7.642869472503662 1.721370458602905 8.235855102539062 1.431002855300903 C 8.828840255737305 1.140635251998901 9.448001861572266 0.8941857814788818 10.09283638000488 0.6920046210289001 C 10.73766994476318 0.4898234605789185 11.40717029571533 0.3319144546985626 12.10083198547363 0.2186296135187149 C 12.79449462890625 0.105342797935009 13.51181602478027 0.03668012842535973 14.25229263305664 0.01299554854631424 C 14.31370544433594 0.01103117410093546 14.37511825561523 0.00931455846875906 14.43602752685547 0.007841768674552441 C 14.4969367980957 0.006370945367962122 14.55784606933594 0.005145914852619171 14.61875534057617 0.004164710640907288 C 14.67966461181641 0.003183506429195404 14.74057483673096 0.002448094775900245 14.80098056793213 0.001958475913852453 C 14.8613862991333 0.001466890564188361 14.92179203033447 0.001223064260557294 14.98219871520996 0.001223064260557294 C 15.62552261352539 0.001223064260557294 16.25374412536621 0.02912544645369053 16.86585807800293 0.08478076756000519 C 17.47747039794922 0.1404360830783844 18.07297134399414 0.2238443493843079 18.65186309814453 0.3348619937896729 C 19.23075294494629 0.4458796679973602 19.79253005981445 0.5845027565956116 20.3366870880127 0.7505858540534973 C 20.88084411621094 0.9166689515113831 21.40687942504883 1.110211968421936 21.91429138183594 1.331069469451904 C 22.43730545043945 1.558809161186218 22.94068908691406 1.815206289291382 23.42292976379395 2.099664926528931 C 23.90517234802246 2.384123802185059 24.36627006530762 2.696644306182861 24.80622863769531 3.036632537841797 C 25.24568176269531 3.376620769500732 25.66349029541016 3.744076728820801 26.05864524841309 4.138404846191406 C 26.45430564880371 4.532734870910645 26.82781600952148 4.953935146331787 27.17766761779785 5.401415348052979 C 27.64631652832031 6.000374794006348 28.07167625427246 6.647271633148193 28.45173072814941 7.336760997772217 C 28.83228874206543 8.026248931884766 29.16804504394531 8.758331298828125 29.45648384094238 9.527666091918945 C 29.74542427062988 10.29700088500977 29.9870491027832 11.10359001159668 30.17984580993652 11.94208526611328 C 30.37264060974121 12.78058052062988 30.51660919189453 13.65098190307617 30.60923194885254 14.54795169830322 C 30.69379997253418 15.36397171020508 30.73658752441406 16.19657135009766 30.73809623718262 17.03978538513184 C 30.73910331726074 17.88299942016602 30.69883346557617 18.73683166503906 30.6182918548584 19.59532165527344 C 30.53775024414062 20.45380973815918 30.41643524169922 21.31695556640625 30.25484848022461 22.17879104614258 C 30.0937671661377 23.04062652587891 29.89191055297852 23.90115547180176 29.65078926086426 24.75441932678223 L 26.6747875213623 23.91307640075684 C 27.12732887268066 22.31229400634766 27.42080116271973 20.71400451660156 27.5587272644043 19.15700340270996 C 27.6966552734375 17.60000419616699 27.68004417419434 16.08429718017578 27.51292037963867 14.64868354797363 C 27.34579658508301 13.21306991577148 27.02816200256348 11.85754871368408 26.56505012512207 10.62092018127441 C 26.10143280029297 9.384292602539062 25.49183654785156 8.266561508178711 24.74129104614258 7.306520938873291 C 24.19411277770996 6.607256412506104 23.5789794921875 5.994329929351807 22.89739799499512 5.468276977539062 C 22.21581649780273 4.94222354888916 21.46728515625 4.503043174743652 20.6533145904541 4.15126895904541 C 19.8393440246582 3.79949426651001 18.95993423461914 3.535127401351929 18.01659393310547 3.358705520629883 C 17.07275009155273 3.182283401489258 16.06497573852539 3.093803882598877 14.9942798614502 3.093803882598877 C 14.94142436981201 3.093803882598877 14.88856887817383 3.094020128250122 14.8352108001709 3.094454765319824 C 14.78185176849365 3.094887256622314 14.72849369049072 3.095536231994629 14.67463111877441 3.096401453018188 C 14.62076950073242 3.097268581390381 14.56741046905518 3.098351955413818 14.51354885101318 3.09965181350708 C 14.45968627929688 3.100951433181763 14.40532112121582 3.102469444274902 14.35095596313477 3.104205846786499 C 12.96010780334473 3.148694276809692 11.74846363067627 3.385811328887939 10.69337272644043 3.758708477020264 C 9.638280868530273 4.13160514831543 8.739237785339355 4.640278339385986 7.97459888458252 5.227875709533691 C 7.209959506988525 5.815473556518555 6.57871675491333 6.481996536254883 6.058722019195557 7.170587539672852 C 5.538726806640625 7.85917854309082 5.129979610443115 8.569839477539062 4.80982780456543 9.24571704864502 C 4.533470630645752 9.828378677368164 4.293356418609619 10.4449291229248 4.08998966217041 11.0870885848999 C 3.887126207351685 11.72924900054932 3.721513032913208 12.39702606201172 3.594660520553589 13.08215045928955 C 3.467807769775391 13.76727485656738 3.37971568107605 14.46974277496338 3.331894397735596 15.18128681182861 C 3.284576416015625 15.89283466339111 3.277529001235962 16.61345863342285 3.312765836715698 17.33489418029785 C 3.34397554397583 17.97233963012695 3.40740180015564 18.59198379516602 3.500024318695068 19.18233108520508 C 3.592646837234497 19.77267837524414 3.713962316513062 20.33372116088867 3.861453533172607 20.85396766662598 C 4.008944988250732 21.37421607971191 4.182612419128418 21.85366058349609 4.37842845916748 22.28079986572266 C 4.574244499206543 22.70794486999512 4.792712688446045 23.08278465270996 5.030813217163086 23.3938159942627 L 2.575309276580811 25.27367401123047 Z" stroke="none" fill="#02c2de"/>
    </g>
  </g>
  <g id="Path_1667" data-name="Path 1667" transform="translate(10.923 16.691)" fill="none" opacity="0.66">
    <path d="M0,0H270.681V457.327H0Z" stroke="none"/>
    <path d="M 257.27880859375 443.9248046875 L 257.27880859375 13.40208053588867 L 13.40208721160889 13.40208053588867 L 13.40208721160889 443.9248046875 L 257.27880859375 443.9248046875 M 270.680908203125 457.3268737792969 L 8.666584108141251e-06 457.3268737792969 L 8.666584108141251e-06 1.820569764277025e-06 L 270.680908203125 1.820569764277025e-06 L 270.680908203125 457.3268737792969 Z" stroke="none" fill="#292726"/>
  </g>
  <g transform="matrix(1, 0, 0, 1, 0, 0)" filter="url(#Path_1668)">
    <g id="Path_1668-2" data-name="Path 1668" transform="translate(0 7.88)" fill="none">
      <path d="M18,15H276.3V457.289H18Z" stroke="none"/>
      <path d="M 263.9257202148438 444.9178161621094 L 263.9257202148438 27.37112998962402 L 30.37118148803711 27.37112998962402 L 30.37118148803711 444.9178161621094 L 263.9257202148438 444.9178161621094 M 276.296875 457.2889709472656 L 18.00003242492676 457.2889709472656 L 18.00003242492676 14.99997997283936 L 276.296875 14.99997997283936 L 276.296875 457.2889709472656 Z" stroke="none" fill="#2e90a9"/>
    </g>
  </g>
</svg>
