<svg xmlns="http://www.w3.org/2000/svg" width="172.194" height="237.814" viewBox="0 0 172.194 237.814">
  <g id="Group_301" data-name="Group 301" transform="translate(6 6)">
    <path id="Path_1291" data-name="Path 1291" d="M28.657,140.8,0,84.532l28.744,49.241.261-20.14L9.313,72.959l19.766,35.35.469-36.22L8.138,39.535,29.617,66.392,31.182.275,31.19,0V.279l-.247,83.891,23.635-33.96L31.011,91.284l.934,40.493.1-1.07L59.3,94.88,32.009,134.5l.118,5.064.046.08-.034.413,1.236,53.6q-2.676.112-5.4.091l.052-4.169L3.157,148.532l24.916,37.053Z" transform="translate(0 32.069)" fill="#fff" opacity="0.41"/>
    <path id="Path_1292" data-name="Path 1292" d="M18.954,93.124,0,55.909,19.012,88.477l.173-13.321L6.159,48.255l13.073,23.38.31-23.956L5.382,26.149,19.589,43.912,20.623.182,20.629,0V.185L20.466,55.67,36.1,33.209,20.511,60.375l.617,26.782.064-.708,18.026-23.7-18.047,26.2.078,3.35.03.053-.022.273.817,35.448q-1.77.074-3.574.06l.034-2.758L2.088,98.239l16.48,24.507Z" transform="translate(60.321 94.154)" fill="#b6ffee"/>
    <path id="Path_1293" data-name="Path 1293" d="M33.4,164.106,0,98.525l33.5,57.392.3-23.474L10.854,85.035l23.037,41.2.547-42.215L9.485,46.079l25.035,31.3L36.343.32,36.352,0V.325L36.065,98.1,63.613,58.522l-27.47,47.872,1.088,47.2.113-1.248,31.765-41.756-31.8,46.174.138,5.9.053.093-.04.482L38.9,225.7q-3.118.13-6.3.106l.061-4.86L3.679,173.118,32.72,216.3Z" transform="translate(91.085)" fill="#535353"/>
  </g>
</svg>
