<svg xmlns="http://www.w3.org/2000/svg" xmlns:xlink="http://www.w3.org/1999/xlink" width="1446.284" height="1349.359" viewBox="0 0 1446.284 1349.359">
  <defs>
    <clipPath id="clip-path">
      <rect width="1440" height="189" fill="none"/>
    </clipPath>
    <clipPath id="clip-path-2">
      <path d="M129.229,0l-.982,692.7H0L34.134,0Z" fill="none"/>
    </clipPath>
  </defs>
  <g id="Group_306" data-name="Group 306" transform="translate(-8.826 -105.641)">
    <g id="sun" transform="translate(-5060.538 1194.576)">
      <path id="Path_469" data-name="Path 469" d="M795.717,482.754,727.958,349.711l67.966,116.431.617-47.621-46.563-96.173,46.735,83.583,1.109-85.642L747.2,243.318l50.788,63.5,3.7-156.334.019-.649v.66l-.583,198.36,55.885-80.3-55.726,97.117,2.207,95.745.229-2.531,64.442-84.711-64.518,93.673.28,11.975.108.189-.08.978,2.922,126.725q-6.326.264-12.778.215l.123-9.859-58.794-97.037,58.914,87.612Z" transform="translate(5169.8 -1075.418)" fill="#3f3d56"/>
      <path id="Path_468" data-name="Path 468" d="M622.322,524.506,554.563,391.462l67.966,116.431.617-47.621L576.582,364.1l46.735,83.583,1.109-85.642L573.8,285.068l50.788,63.5,3.7-156.334.019-.649v.66l-.583,198.36,55.886-80.3-55.726,97.117,2.207,95.745.229-2.531,64.442-84.71L630.248,509.6l.28,11.975.108.189-.08.978,2.922,126.725q-6.326.264-12.778.215l.123-9.859-58.794-97.037L620.943,630.4Z" transform="translate(4823.611 -1057.268)" fill="#cbcbcb"/>
      <path id="Path_470" data-name="Path 470" d="M927,383.174l-49.812-97.8,49.963,85.591.454-35.008-34.23-70.7L927.728,326.7l.815-62.958L891.33,207.156l37.336,46.683,2.719-114.926.014-.477v.485l-.429,145.82,41.083-59.029-40.967,71.393,1.622,70.385.168-1.861,47.373-62.273-35.694,51.824-11.735,17.038.206,8.8.079.139-.059.719,2.148,93.159q-4.651.194-9.393.158l.09-7.247-43.221-71.335,43.31,64.406Z" transform="translate(5167.776 -969.117)" fill="#3f3d56"/>
      <g id="bird" transform="translate(6119.775 -1085.935)">
        <path id="Path_511" data-name="Path 511" d="M486.823,283.989l9.206-7.363c-7.151-.789-10.09,3.111-11.293,6.2-5.587-2.32-11.669.72-11.669.72l18.419,6.687a13.938,13.938,0,0,0-4.663-6.243Z" transform="translate(-473.067 -201.437)" fill="#3f3d56"/>
        <path id="Path_512" data-name="Path 512" d="M486.823,283.989l9.206-7.363c-7.151-.789-10.09,3.111-11.293,6.2-5.587-2.32-11.669.72-11.669.72l18.419,6.687a13.938,13.938,0,0,0-4.663-6.243Z" transform="translate(-327.067 -202.583)" fill="#3f3d56"/>
        <path id="Path_513" data-name="Path 513" d="M486.823,283.989l9.206-7.363c-7.151-.789-10.09,3.111-11.293,6.2-5.587-2.32-11.669.72-11.669.72l18.419,6.687a13.938,13.938,0,0,0-4.663-6.243Z" transform="translate(-390.029 -276.523)" fill="#3f3d56"/>
      </g>
    </g>
    <g id="Repeat_Grid_2" data-name="Repeat Grid 2" transform="translate(14.688 625)" clip-path="url(#clip-path)">
      <g transform="translate(0 -475)">
        <rect id="Rectangle_176" data-name="Rectangle 176" width="22" height="215" rx="6" transform="translate(0 485)" fill="#bfd7ea"/>
      </g>
      <g transform="translate(31 -475)">
        <rect id="Rectangle_176-2" data-name="Rectangle 176" width="22" height="215" rx="6" transform="translate(0 485)" fill="#bfd7ea"/>
      </g>
      <g transform="translate(62 -475)">
        <rect id="Rectangle_176-3" data-name="Rectangle 176" width="22" height="215" rx="6" transform="translate(0 485)" fill="#bfd7ea"/>
      </g>
      <g transform="translate(93 -475)">
        <rect id="Rectangle_176-4" data-name="Rectangle 176" width="22" height="215" rx="6" transform="translate(0 485)" fill="#bfd7ea"/>
      </g>
      <g transform="translate(124 -475)">
        <rect id="Rectangle_176-5" data-name="Rectangle 176" width="22" height="215" rx="6" transform="translate(0 485)" fill="#bfd7ea"/>
      </g>
      <g transform="translate(155 -475)">
        <rect id="Rectangle_176-6" data-name="Rectangle 176" width="22" height="215" rx="6" transform="translate(0 485)" fill="#bfd7ea"/>
      </g>
      <g transform="translate(186 -475)">
        <rect id="Rectangle_176-7" data-name="Rectangle 176" width="22" height="215" rx="6" transform="translate(0 485)" fill="#bfd7ea"/>
      </g>
      <g transform="translate(217 -475)">
        <rect id="Rectangle_176-8" data-name="Rectangle 176" width="22" height="215" rx="6" transform="translate(0 485)" fill="#bfd7ea"/>
      </g>
      <g transform="translate(248 -475)">
        <rect id="Rectangle_176-9" data-name="Rectangle 176" width="22" height="215" rx="6" transform="translate(0 485)" fill="#bfd7ea"/>
      </g>
      <g transform="translate(279 -475)">
        <rect id="Rectangle_176-10" data-name="Rectangle 176" width="22" height="215" rx="6" transform="translate(0 485)" fill="#bfd7ea"/>
      </g>
      <g transform="translate(310 -475)">
        <rect id="Rectangle_176-11" data-name="Rectangle 176" width="22" height="215" rx="6" transform="translate(0 485)" fill="#bfd7ea"/>
      </g>
      <g transform="translate(341 -475)">
        <rect id="Rectangle_176-12" data-name="Rectangle 176" width="22" height="215" rx="6" transform="translate(0 485)" fill="#bfd7ea"/>
      </g>
      <g transform="translate(372 -475)">
        <rect id="Rectangle_176-13" data-name="Rectangle 176" width="22" height="215" rx="6" transform="translate(0 485)" fill="#bfd7ea"/>
      </g>
      <g transform="translate(403 -475)">
        <rect id="Rectangle_176-14" data-name="Rectangle 176" width="22" height="215" rx="6" transform="translate(0 485)" fill="#bfd7ea"/>
      </g>
      <g transform="translate(434 -475)">
        <rect id="Rectangle_176-15" data-name="Rectangle 176" width="22" height="215" rx="6" transform="translate(0 485)" fill="#bfd7ea"/>
      </g>
      <g transform="translate(465 -475)">
        <rect id="Rectangle_176-16" data-name="Rectangle 176" width="22" height="215" rx="6" transform="translate(0 485)" fill="#bfd7ea"/>
      </g>
      <g transform="translate(496 -475)">
        <rect id="Rectangle_176-17" data-name="Rectangle 176" width="22" height="215" rx="6" transform="translate(0 485)" fill="#bfd7ea"/>
      </g>
      <g transform="translate(527 -475)">
        <rect id="Rectangle_176-18" data-name="Rectangle 176" width="22" height="215" rx="6" transform="translate(0 485)" fill="#bfd7ea"/>
      </g>
      <g transform="translate(558 -475)">
        <rect id="Rectangle_176-19" data-name="Rectangle 176" width="22" height="215" rx="6" transform="translate(0 485)" fill="#bfd7ea"/>
      </g>
      <g transform="translate(589 -475)">
        <rect id="Rectangle_176-20" data-name="Rectangle 176" width="22" height="215" rx="6" transform="translate(0 485)" fill="#bfd7ea"/>
      </g>
      <g transform="translate(620 -475)">
        <rect id="Rectangle_176-21" data-name="Rectangle 176" width="22" height="215" rx="6" transform="translate(0 485)" fill="#bfd7ea"/>
      </g>
      <g transform="translate(651 -475)">
        <rect id="Rectangle_176-22" data-name="Rectangle 176" width="22" height="215" rx="6" transform="translate(0 485)" fill="#bfd7ea"/>
      </g>
      <g transform="translate(682 -475)">
        <rect id="Rectangle_176-23" data-name="Rectangle 176" width="22" height="215" rx="6" transform="translate(0 485)" fill="#bfd7ea"/>
      </g>
      <g transform="translate(713 -475)">
        <rect id="Rectangle_176-24" data-name="Rectangle 176" width="22" height="215" rx="6" transform="translate(0 485)" fill="#bfd7ea"/>
      </g>
      <g transform="translate(744 -475)">
        <rect id="Rectangle_176-25" data-name="Rectangle 176" width="22" height="215" rx="6" transform="translate(0 485)" fill="#bfd7ea"/>
      </g>
      <g transform="translate(775 -475)">
        <rect id="Rectangle_176-26" data-name="Rectangle 176" width="22" height="215" rx="6" transform="translate(0 485)" fill="#bfd7ea"/>
      </g>
      <g transform="translate(806 -475)">
        <rect id="Rectangle_176-27" data-name="Rectangle 176" width="22" height="215" rx="6" transform="translate(0 485)" fill="#bfd7ea"/>
      </g>
      <g transform="translate(837 -475)">
        <rect id="Rectangle_176-28" data-name="Rectangle 176" width="22" height="215" rx="6" transform="translate(0 485)" fill="#bfd7ea"/>
      </g>
      <g transform="translate(868 -475)">
        <rect id="Rectangle_176-29" data-name="Rectangle 176" width="22" height="215" rx="6" transform="translate(0 485)" fill="#bfd7ea"/>
      </g>
      <g transform="translate(899 -475)">
        <rect id="Rectangle_176-30" data-name="Rectangle 176" width="22" height="215" rx="6" transform="translate(0 485)" fill="#bfd7ea"/>
      </g>
      <g transform="translate(930 -475)">
        <rect id="Rectangle_176-31" data-name="Rectangle 176" width="22" height="215" rx="6" transform="translate(0 485)" fill="#bfd7ea"/>
      </g>
      <g transform="translate(961 -475)">
        <rect id="Rectangle_176-32" data-name="Rectangle 176" width="22" height="215" rx="6" transform="translate(0 485)" fill="#bfd7ea"/>
      </g>
      <g transform="translate(992 -475)">
        <rect id="Rectangle_176-33" data-name="Rectangle 176" width="22" height="215" rx="6" transform="translate(0 485)" fill="#bfd7ea"/>
      </g>
      <g transform="translate(1023 -475)">
        <rect id="Rectangle_176-34" data-name="Rectangle 176" width="22" height="215" rx="6" transform="translate(0 485)" fill="#bfd7ea"/>
      </g>
      <g transform="translate(1054 -475)">
        <rect id="Rectangle_176-35" data-name="Rectangle 176" width="22" height="215" rx="6" transform="translate(0 485)" fill="#bfd7ea"/>
      </g>
      <g transform="translate(1085 -475)">
        <rect id="Rectangle_176-36" data-name="Rectangle 176" width="22" height="215" rx="6" transform="translate(0 485)" fill="#bfd7ea"/>
      </g>
      <g transform="translate(1116 -475)">
        <rect id="Rectangle_176-37" data-name="Rectangle 176" width="22" height="215" rx="6" transform="translate(0 485)" fill="#bfd7ea"/>
      </g>
      <g transform="translate(1147 -475)">
        <rect id="Rectangle_176-38" data-name="Rectangle 176" width="22" height="215" rx="6" transform="translate(0 485)" fill="#bfd7ea"/>
      </g>
      <g transform="translate(1178 -475)">
        <rect id="Rectangle_176-39" data-name="Rectangle 176" width="22" height="215" rx="6" transform="translate(0 485)" fill="#bfd7ea"/>
      </g>
      <g transform="translate(1209 -475)">
        <rect id="Rectangle_176-40" data-name="Rectangle 176" width="22" height="215" rx="6" transform="translate(0 485)" fill="#bfd7ea"/>
      </g>
      <g transform="translate(1240 -475)">
        <rect id="Rectangle_176-41" data-name="Rectangle 176" width="22" height="215" rx="6" transform="translate(0 485)" fill="#bfd7ea"/>
      </g>
      <g transform="translate(1271 -475)">
        <rect id="Rectangle_176-42" data-name="Rectangle 176" width="22" height="215" rx="6" transform="translate(0 485)" fill="#bfd7ea"/>
      </g>
      <g transform="translate(1302 -475)">
        <rect id="Rectangle_176-43" data-name="Rectangle 176" width="22" height="215" rx="6" transform="translate(0 485)" fill="#bfd7ea"/>
      </g>
      <g transform="translate(1333 -475)">
        <rect id="Rectangle_176-44" data-name="Rectangle 176" width="22" height="215" rx="6" transform="translate(0 485)" fill="#bfd7ea"/>
      </g>
      <g transform="translate(1364 -475)">
        <rect id="Rectangle_176-45" data-name="Rectangle 176" width="22" height="215" rx="6" transform="translate(0 485)" fill="#bfd7ea"/>
      </g>
      <g transform="translate(1395 -475)">
        <rect id="Rectangle_176-46" data-name="Rectangle 176" width="22" height="215" rx="6" transform="translate(0 485)" fill="#bfd7ea"/>
      </g>
      <g transform="translate(1426 -475)">
        <rect id="Rectangle_176-47" data-name="Rectangle 176" width="22" height="215" rx="6" transform="translate(0 485)" fill="#bfd7ea"/>
      </g>
    </g>
    <path id="Rectangle_262" data-name="Rectangle 262" d="M20.208,0h1401.06l25.015,9.781H0Z" transform="translate(8.826 804.219)" fill="#ddd"/>
    <path id="Ellipse_53" data-name="Ellipse 53" d="M190.357,0q9.856,0,19.463.04t18.9.117q9.294.078,18.243.192t17.489.264q8.54.15,16.64.33t15.7.39q7.6.21,14.654.448t13.518.5q6.459.265,12.286.554t10.958.6q5.131.311,9.535.643c2.931.221,5.608.449,8.016.682s4.547.473,6.4.717,3.422.494,4.689.747A17.3,17.3,0,0,1,379.728,7c.649.262.982.528.982.8s-.333.535-.983.8a17.313,17.313,0,0,1-2.884.774c-1.268.254-2.837.5-4.691.748s-3.993.484-6.4.717-5.085.461-8.015.682-6.113.436-9.533.643-7.078.408-10.957.6-7.979.377-12.286.554-8.818.344-13.518.5-9.591.309-14.654.449-10.3.271-15.695.391-10.946.23-16.64.328-11.529.186-17.49.262-12.048.14-18.244.192-12.5.092-18.9.118-12.891.04-19.461.04-13.062-.013-19.461-.04-12.7-.066-18.9-.117-12.283-.116-18.244-.192-11.8-.164-17.49-.264-11.245-.21-16.64-.33-10.632-.251-15.7-.391-9.954-.289-14.656-.448-9.213-.326-13.52-.5-8.408-.361-12.288-.554-7.537-.393-10.958-.6-6.6-.422-9.534-.643-5.607-.449-8.016-.682-4.547-.473-6.4-.717-3.422-.494-4.689-.747A17.284,17.284,0,0,1,.982,8.6C.333,8.335,0,8.069,0,7.8S.333,7.264.983,7a17.3,17.3,0,0,1,2.885-.774c1.268-.254,2.837-.5,4.691-.747s3.993-.483,6.4-.717,5.086-.461,8.016-.682,6.114-.436,9.535-.643,7.078-.408,10.957-.6,7.979-.377,12.283-.554,8.816-.344,13.517-.5,9.592-.309,14.656-.449,10.3-.271,15.7-.391,10.948-.23,16.641-.328S127.79.427,133.751.351,145.8.211,151.993.159s12.5-.092,18.9-.118S183.787,0,190.357,0Z" transform="translate(58.783 1439.4)" opacity="0.1"/>
    <g id="Group_171" data-name="Group 171" transform="translate(-35.246 -55.749)">
      <g id="pie" transform="translate(145.246 1287.749)">
        <g id="Group_168" data-name="Group 168" transform="translate(191.475 23.435)">
          <path id="Path_1073" data-name="Path 1073" d="M8.153,1.853q.053.073.1.149t.1.153q.047.077.091.157t.085.16L29.785,4.909,32.876.65l6.913,3.917L33.7,14.911,7.664,7.943a4.522,4.522,0,0,1-1.127.808,4.448,4.448,0,0,1-3.952.033A4.518,4.518,0,0,1,1.445,8,4.6,4.6,0,0,1,.6,6.921a4.68,4.68,0,0,1,.42-5.229,4.562,4.562,0,0,1,1-.922,4.461,4.461,0,0,1,5.145.1,4.564,4.564,0,0,1,.983.984Z" transform="translate(12.026 57.972)" fill="#ffb8b8"/>
          <path id="Ellipse_107" data-name="Ellipse 107" d="M1.817,0A1.811,1.811,0,1,1,1.11.143,1.811,1.811,0,0,1,1.817,0Z" transform="translate(0 94.43)" fill="#3f3d56"/>
          <path id="Path_1095" data-name="Path 1095" d="M10.878,20.96q-.072-.032-.141-.068t-.136-.078q-.066-.041-.13-.088t-.123-.1L.774,12.565a2.175,2.175,0,0,1-.14-3.2L9.321.643A2.162,2.162,0,0,1,12.14.419l6.569,4.77A2.175,2.175,0,0,1,19.4,7.879L13.715,19.9a2.175,2.175,0,0,1-2.837,1.065Z" transform="translate(39.245 44.625)" fill="#6c63ff"/>
          <path id="Path_1096" data-name="Path 1096" d="M14.439,22.054,8.722,23.61,0,2.3,8.439,0Z" transform="translate(73.023 157.59)" fill="#ffb8b8"/>
          <path id="Path_1097" data-name="Path 1097" d="M6.828,3.032,17.97,0l1.889,6.943L1.889,11.832l-.031-.115a7.07,7.07,0,0,1,4.97-8.686Z" transform="translate(70.273 177.676)" fill="#2f2e41"/>
          <path id="Path_1098" data-name="Path 1098" d="M8.745,22.856H2.819L0,0H8.746Z" transform="translate(29.838 161.151)" fill="#ffb8b8"/>
          <path id="Path_1099" data-name="Path 1099" d="M7.076,0H18.623V7.2H0V7.076A7.07,7.07,0,0,1,7.076,0Z" transform="translate(21.229 182.314)" fill="#2f2e41"/>
          <path id="Ellipse_108" data-name="Ellipse 108" d="M11.871,0A11.834,11.834,0,1,1,7.25.933,11.834,11.834,0,0,1,11.871,0Z" transform="translate(35.638 9.359)" fill="#ffb8b8"/>
          <path id="Path_1100" data-name="Path 1100" d="M11.406,91.35h-8.1a2.18,2.18,0,0,1-2.173-2.041c-.6-9.589-.967-18.5-1.089-26.8S.044,46.53.41,39.4s.977-13.712,1.837-19.8A147.6,147.6,0,0,1,5.577,2.718q.009-.034.019-.068t.021-.067q.011-.033.023-.066t.025-.066L6.1,1.367A2.164,2.164,0,0,1,8.118,0H24.77A2.171,2.171,0,0,1,26.422.76L28.683,3.4l.033.039.032.039.031.04.03.041A85.532,85.532,0,0,1,36.3,16.708c2.456,5.191,4.886,11.168,7.327,17.868s4.9,14.124,7.4,22.209,5.061,16.83,7.707,26.173a2.166,2.166,0,0,1-1.43,2.666L48.6,88.41a2.185,2.185,0,0,1-2.622-1.127L23.4,40.444a1.692,1.692,0,0,0-3.2.506L13.561,89.47a2.182,2.182,0,0,1-2.155,1.88Z" transform="translate(26.814 76.361)" fill="#2f2e41"/>
          <path id="Path_1101" data-name="Path 1101" d="M22.939,43.961H22.87L2.644,43.321A2.167,2.167,0,0,1,.552,41.41,58.3,58.3,0,0,1,.217,28.52a27.1,27.1,0,0,1,2-8.229,14.647,14.647,0,0,1,3.07-4.605,10.029,10.029,0,0,1,2.875-2.018,1.672,1.672,0,0,0,.973-1.326l.272-2.175a2.166,2.166,0,0,1,.43-1.056,23.44,23.44,0,0,1,3.955-4.019,24.278,24.278,0,0,1,4.166-2.668,26.319,26.319,0,0,1,7.1-2.388A2.172,2.172,0,0,1,27.6,1.895l.407,3.124a1.721,1.721,0,0,0,.345.818,20.6,20.6,0,0,1,4.114,10.925A33.1,33.1,0,0,1,31.32,27.987,54.03,54.03,0,0,1,27.8,37.413a57.788,57.788,0,0,1-3.015,5.528h0a2.179,2.179,0,0,1-1.843,1.019Z" transform="translate(31.646 35.992)" fill="#6c63ff"/>
          <path id="Path_1102" data-name="Path 1102" d="M1.968,13.848q-.331-1-.618-2.017T.82,9.789Q.576,8.763.377,7.727T.023,5.647A7.03,7.03,0,0,1,.031,4.42a6.214,6.214,0,0,1,.233-1.2A5.114,5.114,0,0,1,.743,2.108a4.269,4.269,0,0,1,.745-.944A4.15,4.15,0,0,1,3.388.141a5.635,5.635,0,0,1,2.2-.062A8.109,8.109,0,0,1,7.8.78,8.94,8.94,0,0,1,9.761,2.049a13.705,13.705,0,0,1,2.2,2.41A16.723,16.723,0,0,1,13.594,7.3a21.179,21.179,0,0,1,1.124,3.118,26.17,26.17,0,0,1,.676,3.249c.157,1.088.258,2.181.323,3.277s.094,2.194.108,3.294.013,2.2.019,3.3.016,2.2.054,3.3.106,2.205.221,3.306a31.717,31.717,0,0,0,.506,3.272,22.943,22.943,0,0,0,.9,3.158,17.941,17.941,0,0,0,1.4,2.963,14.242,14.242,0,0,0,2.014,2.637,13.512,13.512,0,0,0,2.574,2.087,11.384,11.384,0,0,0,2.977,1.317,9.5,9.5,0,0,0,3.22.327,7.59,7.59,0,0,0,4.752-2.014,5.509,5.509,0,0,0,1.655-4.784,9.182,9.182,0,0,1,1.066,3.22,10.615,10.615,0,0,1-.091,3.407,11.363,11.363,0,0,1-1.138,3.246,10.645,10.645,0,0,1-2.076,2.737,11.557,11.557,0,0,1-2.806,1.943,13.033,13.033,0,0,1-3.242,1.1,14.1,14.1,0,0,1-3.439.252,13.943,13.943,0,0,1-3.4-.59,15.306,15.306,0,0,1-3.141-1.37,17.109,17.109,0,0,1-2.785-2.005A18.856,18.856,0,0,1,12.7,48.528a19.76,19.76,0,0,1-1.883-2.9,22.24,22.24,0,0,1-1.371-3.151,25.3,25.3,0,0,1-.9-3.319,29.072,29.072,0,0,1-.475-3.42,33.027,33.027,0,0,1-.091-3.453c.022-.882.076-1.767.135-2.651s.124-1.769.167-2.652.065-1.764.039-2.642a18.826,18.826,0,0,0-.25-2.623,12.306,12.306,0,0,0-.739-2.577,10.922,10.922,0,0,0-1.3-2.337,8.375,8.375,0,0,0-1.833-1.839,6.616,6.616,0,0,0-2.335-1.08Z" transform="translate(58.602)" fill="#2f2e41"/>
          <path id="Path_1103" data-name="Path 1103" d="M9.421,12.687A3.662,3.662,0,0,1,8.7,14a4.335,4.335,0,0,1-1.164.959,4.7,4.7,0,0,1-1.432.53,4.34,4.34,0,0,1-1.524.028A5.674,5.674,0,0,1,.3,11.58,8.106,8.106,0,0,1,.93,5.637,9.254,9.254,0,0,1,6.226.92a7.6,7.6,0,0,1,6.91,1.1A2.541,2.541,0,0,1,14.911.167a4.856,4.856,0,0,1,2.665.039,10.979,10.979,0,0,1,6.111,4.446,17.867,17.867,0,0,1,2.769,7.14,21.51,21.51,0,0,1,.321,2.917,17.656,17.656,0,0,1-.119,2.928,13.979,13.979,0,0,1-.65,2.818,11.462,11.462,0,0,1-1.271,2.586,9.369,9.369,0,0,1-1.986,2.147,9.608,9.608,0,0,1-2.54,1.45,8.23,8.23,0,0,1-2.806.553,6.742,6.742,0,0,1-2.783-.543,2.931,2.931,0,0,1-.037-.852,3.945,3.945,0,0,1,.182-.839,5.979,5.979,0,0,1,.338-.811c.132-.264.279-.52.431-.766s.312-.491.469-.737.312-.494.455-.747a7.135,7.135,0,0,0,.385-.775A4.512,4.512,0,0,0,17.1,20.3a3.04,3.04,0,0,0,.048-.879,2.943,2.943,0,0,0-.2-.855,2.26,2.26,0,0,0-.455-.712,1.745,1.745,0,0,0-.7-.449,2.079,2.079,0,0,0-.713-.1,4.207,4.207,0,0,0-.729.089c-.245.048-.492.108-.739.16a5.217,5.217,0,0,1-.741.111A3.2,3.2,0,0,1,9.8,13.051Z" transform="translate(35.727 5.736)" fill="#2f2e41"/>
          <path id="Path_1105" data-name="Path 1105" d="M12.168,20.783q-.076-.022-.149-.048t-.145-.059q-.072-.032-.141-.069t-.135-.079L1.014,13.843a2.175,2.175,0,0,1-.574-3.149L7.857.867A2.162,2.162,0,0,1,10.619.261l7.159,3.831a2.175,2.175,0,0,1,1.048,2.571L14.833,19.342a2.175,2.175,0,0,1-2.665,1.441Z" transform="translate(38.145 51.084)" fill="#6c63ff"/>
        </g>
        <g id="Group_170" data-name="Group 170">
          <path id="Path_1074" data-name="Path 1074" d="M25.574,10.251a5.117,5.117,0,0,1-7.392-2.634L0,8,5.037,0,21.53.866a5.145,5.145,0,0,1,4.043,9.385Z" transform="translate(55.322 55.875)" fill="#ffb8b8"/>
          <path id="Path_1075" data-name="Path 1075" d="M70.243,20.883a2.294,2.294,0,0,1-2.254,1.635l-33.276-.845L4.583,12.752A6.523,6.523,0,1,1,8.468.3L35.689,9.224l32.672,3.153a2.3,2.3,0,0,1,2.07,2.318l-.095,5.573q0,.078-.008.156t-.018.155q-.012.077-.029.153t-.039.151Z" transform="translate(2.661 42.954)" fill="#3f3d56"/>
          <path id="Path_1076" data-name="Path 1076" d="M0,24.066H6.24L9.208,0H0Z" transform="translate(24.647 182.831)" fill="#ffb8b8"/>
          <path id="Path_1077" data-name="Path 1077" d="M0,0H12.287a7.824,7.824,0,0,1,7.83,7.83v.254H0Z" transform="translate(23.056 204.859)" fill="#2f2e41"/>
          <path id="Path_1078" data-name="Path 1078" d="M0,24.066H6.24L9.208,0H0Z" transform="translate(6.326 182.831)" fill="#ffb8b8"/>
          <path id="Path_1079" data-name="Path 1079" d="M0,0H12.287a7.824,7.824,0,0,1,7.83,7.83v.254H0Z" transform="translate(4.736 204.859)" fill="#2f2e41"/>
          <path id="Path_1080" data-name="Path 1080" d="M0,8.651,1.49,97.046a2.036,2.036,0,0,0,2.22,1.993l7.3-.664a2.034,2.034,0,0,0,1.845-1.87L17.13,41.367a.509.509,0,0,1,1.016.02l2.136,56.4a2.034,2.034,0,0,0,2.034,1.959h7.83a2.034,2.034,0,0,0,2.032-1.911L37.659,8.143,5.089,0Z" transform="translate(2.14 100.989)" fill="#2f2e41"/>
          <path id="Ellipse_101" data-name="Ellipse 101" d="M12.5,0A12.46,12.46,0,1,1,7.634.982,12.46,12.46,0,0,1,12.5,0Z" transform="translate(13.265 1.64)" fill="#ffb8b8"/>
          <path id="Path_1081" data-name="Path 1081" d="M39.32,82.4h-.036l-29.227-.45a2.288,2.288,0,0,1-2.243-2.062l-.331-3.309a.254.254,0,0,0-.506,0L6.634,80a2.286,2.286,0,0,1-2.1,2.055l-2.065.159A2.29,2.29,0,0,1,.075,79.351L1.853,72.57A92.385,92.385,0,0,0,3.979,61.894a92.388,92.388,0,0,0,.854-10.815,92.388,92.388,0,0,0-.42-10.84,92.384,92.384,0,0,0-1.7-10.753l-.884-4.02A14.513,14.513,0,0,1,8.689,9.783l5.741-3.365,2.6-3.907A5.64,5.64,0,0,1,21.6.006,22.064,22.064,0,0,1,24.7.147a14.316,14.316,0,0,1,3.349.786,8.082,8.082,0,0,1,2.887,1.8A6.322,6.322,0,0,1,32.64,5.9,14.5,14.5,0,0,1,42.452,19.87l-.843,60.276A2.289,2.289,0,0,1,39.32,82.4Z" transform="translate(0 30.513)" fill="#3f3d56"/>
          <path id="Path_1082" data-name="Path 1082" d="M12.9,21.345a3.4,3.4,0,0,1-.245,1.2,3.614,3.614,0,0,1-.6.977,5.741,5.741,0,0,1-.874.819,12.013,12.013,0,0,1-1.063.722,9.122,9.122,0,0,1-1.173.6,12.852,12.852,0,0,1-1.241.455c-.422.132-.851.248-1.282.354s-.865.2-1.3.3a1.526,1.526,0,0,1-2.242-1.336L1.3,19.421Q1.091,18.7.91,17.972T.576,16.509Q.424,15.774.3,15.034T.083,13.549a16.624,16.624,0,0,1-.037-2.895A14.914,14.914,0,0,1,.536,7.8,12.521,12.521,0,0,1,1.6,5.153a10.592,10.592,0,0,1,1.678-2.3A9,9,0,0,1,5.59,1.137,9.374,9.374,0,0,1,8.321.212,8.243,8.243,0,0,1,11.152.2a6.846,6.846,0,0,1,2.612,1.034C14.713.027,16.508-.212,18.6.163a21.375,21.375,0,0,1,6.618,2.61,18.392,18.392,0,0,1,5.105,4.15c1.083,1.4,1.365,2.7.3,3.544a1.088,1.088,0,0,1-.637.227,2.572,2.572,0,0,1-.731-.091c-.253-.062-.513-.145-.77-.217a3.961,3.961,0,0,0-.752-.152,5.078,5.078,0,0,0-.737,0,3.792,3.792,0,0,0-.726.119,2.655,2.655,0,0,0-.66.273,2.021,2.021,0,0,0-.539.459,2.247,2.247,0,0,0-.414.813,4.777,4.777,0,0,0-.154.926c-.027.32-.039.647-.066.971a5.273,5.273,0,0,1-.149.949,3.417,3.417,0,0,1-4.317,2.213q-.3-.148-.59-.312t-.571-.344q-.28-.18-.55-.376t-.528-.407a4.908,4.908,0,0,0-.588-.337,3.572,3.572,0,0,0-.633-.238,2.465,2.465,0,0,0-.65-.087,1.829,1.829,0,0,0-1.338.581,2.623,2.623,0,0,0-.471.712,4.33,4.33,0,0,0-.284.855,6.518,6.518,0,0,0-.136.893q-.063.437-.14.872t-.168.867q-.091.432-.2.861t-.224.854Z" transform="translate(11.887)" fill="#2f2e41"/>
          <path id="Path_1083" data-name="Path 1083" d="M3.053,0,5.089,24.937,15.776,50.891,0,25.446Z" transform="translate(24.652 54.844)" opacity="0.2"/>
          <path id="Rectangle_235" data-name="Rectangle 235" d="M0,.239.142,0,1.576.851l-.142.239Z" transform="translate(84.418 77.804)" fill="#e6e6e6"/>
          <path id="Rectangle_238" data-name="Rectangle 238" d="M0,.239.142,0,1.576.851l-.142.239Z" transform="translate(89.52 119.308)" fill="#e6e6e6"/>
          <path id="Path_1093" data-name="Path 1093" d="M6.97,24.709a5.117,5.117,0,0,1-.162-7.845L0,0,9.263,1.871,14.309,17.6A5.145,5.145,0,0,1,6.97,24.709Z" transform="translate(35.957 90.692)" fill="#ffb8b8"/>
          <path id="Path_1094" data-name="Path 1094" d="M15.718,71.189a2.294,2.294,0,0,1-2.329-1.526L2.368,38.254.012,6.919a6.523,6.523,0,1,1,13.023-.789l1.318,28.617L23,66.41a2.3,2.3,0,0,1-1.433,2.758l-5.244,1.89q-.073.027-.149.048t-.151.038q-.076.016-.153.028t-.155.017Z" transform="translate(27.096 36.905)" fill="#3f3d56"/>
        </g>
      </g>
      <g id="Group_156" data-name="Group 156" transform="translate(200.932 699.687)">
        <g id="Rectangle_261" data-name="Rectangle 261" transform="translate(124.301)" fill="#50f8ff">
          <path d="M19.149,9h9.857L26.748,795.243H12.909Z" stroke="none"/>
          <path d="M 25.36593818664551 793.859130859375 L 28.01617240905762 9.702686309814453 L 20.13135719299316 9.702686309814453 L 14.30546569824219 793.859130859375 L 25.36593818664551 793.859130859375 M 26.74760818481445 795.2429809570312 L 12.90884113311768 795.2429809570312 L 19.14913368225098 9.00007152557373 L 29.00598907470703 9.00007152557373 L 26.74760818481445 795.2429809570312 Z" stroke="none" fill="#707070"/>
        </g>
        <g id="Rectangle_273" data-name="Rectangle 273" transform="translate(0 0)" fill="#50f8ff">
          <path d="M55.614,9h9.857L27.729,795.243H13.89Z" stroke="none"/>
          <path d="M 26.40932464599609 793.859130859375 L 64.4490966796875 9.70252513885498 L 56.56428527832031 9.70252513885498 L 15.34885406494141 793.859130859375 L 26.40932464599609 793.859130859375 M 27.72853851318359 795.242919921875 L 13.88977527618408 795.242919921875 L 55.61376953125 8.999909400939941 L 65.47062683105469 8.999909400939941 L 27.72853851318359 795.242919921875 Z" stroke="none" fill="#707070"/>
        </g>
        <g id="Repeat_Grid_3" data-name="Repeat Grid 3" transform="translate(26.853 49.691)" clip-path="url(#clip-path-2)">
          <g transform="translate(-105.892 -6)">
            <path id="Rectangle_176-48" data-name="Rectangle 176" d="M225.016,9.667a2.844,2.844,0,0,1-.406,1.431,3.917,3.917,0,0,1-1.091,1.17,5.512,5.512,0,0,1-1.614.79,6.721,6.721,0,0,1-1.972.29H12.511a6.373,6.373,0,0,1-1.936-.29,4.762,4.762,0,0,1-1.517-.79,3.277,3.277,0,0,1-.949-1.17,2.636,2.636,0,0,1-.232-1.431,3.126,3.126,0,0,1,.562-1.429A4.582,4.582,0,0,1,9.655,7.073a6.226,6.226,0,0,1,1.693-.785A7.028,7.028,0,0,1,13.342,6H220a6.671,6.671,0,0,1,1.96.288,5.4,5.4,0,0,1,1.6.785,3.824,3.824,0,0,1,1.073,1.165A2.81,2.81,0,0,1,225.016,9.667Z" transform="translate(0)" fill="#50f8ff"/>
          </g>
          <g transform="translate(-108.565 16.955)">
            <path id="Rectangle_176-49" data-name="Rectangle 176" d="M227.539,9.752a2.935,2.935,0,0,1-.411,1.464,3.991,3.991,0,0,1-1.1,1.2,5.551,5.551,0,0,1-1.632.808,6.728,6.728,0,0,1-1.994.3H12.57a6.375,6.375,0,0,1-1.958-.3,4.791,4.791,0,0,1-1.534-.808,3.34,3.34,0,0,1-.958-1.2,2.724,2.724,0,0,1-.232-1.464,3.225,3.225,0,0,1,.57-1.462A4.668,4.668,0,0,1,9.688,7.1a6.275,6.275,0,0,1,1.713-.8A7.038,7.038,0,0,1,13.42,6H222.465a6.676,6.676,0,0,1,1.982.294,5.441,5.441,0,0,1,1.615.8,3.9,3.9,0,0,1,1.085,1.192A2.9,2.9,0,0,1,227.539,9.752Z" transform="translate(0)" fill="#50f8ff"/>
          </g>
          <g transform="translate(-111.3 40.447)">
            <path id="Rectangle_176-50" data-name="Rectangle 176" d="M230.122,9.841a3.031,3.031,0,0,1-.416,1.5,4.068,4.068,0,0,1-1.117,1.226,5.591,5.591,0,0,1-1.652.827,6.734,6.734,0,0,1-2.018.3H12.63a6.377,6.377,0,0,1-1.981-.3A4.821,4.821,0,0,1,9.1,12.565a3.406,3.406,0,0,1-.968-1.226,2.815,2.815,0,0,1-.233-1.5,3.328,3.328,0,0,1,.579-1.5A4.757,4.757,0,0,1,9.723,7.123,6.325,6.325,0,0,1,11.457,6.3,7.048,7.048,0,0,1,13.5,6H224.988a6.682,6.682,0,0,1,2.005.3,5.48,5.48,0,0,1,1.634.822,3.972,3.972,0,0,1,1.1,1.221A3,3,0,0,1,230.122,9.841Z" transform="translate(0)" fill="#50f8ff"/>
          </g>
          <g transform="translate(-114.1 64.495)">
            <path id="Rectangle_176-51" data-name="Rectangle 176" d="M232.765,9.932a3.132,3.132,0,0,1-.421,1.535,4.148,4.148,0,0,1-1.131,1.255,5.632,5.632,0,0,1-1.671.847,6.741,6.741,0,0,1-2.042.311H12.691a6.38,6.38,0,0,1-2-.311,4.852,4.852,0,0,1-1.568-.847,3.474,3.474,0,0,1-.977-1.255,2.911,2.911,0,0,1-.234-1.535A3.436,3.436,0,0,1,8.5,8.4,4.851,4.851,0,0,1,9.759,7.15a6.377,6.377,0,0,1,1.756-.842A7.058,7.058,0,0,1,13.582,6h213.99a6.688,6.688,0,0,1,2.029.308,5.519,5.519,0,0,1,1.653.842,4.05,4.05,0,0,1,1.111,1.25A3.1,3.1,0,0,1,232.765,9.932Z" transform="translate(0)" fill="#50f8ff"/>
          </g>
          <g transform="translate(-116.968 89.118)">
            <path id="Rectangle_176-52" data-name="Rectangle 176" d="M235.472,10.027a3.237,3.237,0,0,1-.426,1.572,4.232,4.232,0,0,1-1.144,1.285,5.676,5.676,0,0,1-1.691.867,6.747,6.747,0,0,1-2.066.318H12.754a6.382,6.382,0,0,1-2.028-.318,4.884,4.884,0,0,1-1.586-.867A3.546,3.546,0,0,1,8.153,11.6a3.012,3.012,0,0,1-.235-1.572,3.549,3.549,0,0,1,.6-1.569A4.948,4.948,0,0,1,9.8,7.178a6.431,6.431,0,0,1,1.778-.862A7.069,7.069,0,0,1,13.666,6H230.217a6.694,6.694,0,0,1,2.053.316,5.561,5.561,0,0,1,1.673.862,4.132,4.132,0,0,1,1.124,1.28A3.2,3.2,0,0,1,235.472,10.027Z" transform="translate(0)" fill="#50f8ff"/>
          </g>
          <g transform="translate(-119.905 114.338)">
            <path id="Rectangle_176-53" data-name="Rectangle 176" d="M238.245,10.125a3.347,3.347,0,0,1-.432,1.61,4.319,4.319,0,0,1-1.158,1.317,5.72,5.72,0,0,1-1.712.889,6.754,6.754,0,0,1-2.092.326H12.818a6.385,6.385,0,0,1-2.052-.326,4.918,4.918,0,0,1-1.6-.889,3.621,3.621,0,0,1-1-1.317,3.117,3.117,0,0,1-.235-1.61,3.667,3.667,0,0,1,.606-1.608,5.049,5.049,0,0,1,1.3-1.311,6.487,6.487,0,0,1,1.8-.883A7.08,7.08,0,0,1,13.752,6H232.926A6.7,6.7,0,0,1,235,6.324a5.6,5.6,0,0,1,1.693.883,4.217,4.217,0,0,1,1.138,1.311A3.308,3.308,0,0,1,238.245,10.125Z" fill="#50f8ff"/>
          </g>
          <g transform="translate(-122.915 140.176)">
            <path id="Rectangle_176-54" data-name="Rectangle 176" d="M241.087,10.227a3.463,3.463,0,0,1-.437,1.65,4.411,4.411,0,0,1-1.173,1.349,5.767,5.767,0,0,1-1.733.911,6.762,6.762,0,0,1-2.117.334H12.884a6.388,6.388,0,0,1-2.077-.334,4.953,4.953,0,0,1-1.622-.911,3.7,3.7,0,0,1-1.008-1.349,3.228,3.228,0,0,1-.236-1.65A3.79,3.79,0,0,1,8.558,8.58,5.155,5.155,0,0,1,9.873,7.236a6.545,6.545,0,0,1,1.824-.9A7.091,7.091,0,0,1,13.842,6H235.7a6.707,6.707,0,0,1,2.1.332,5.648,5.648,0,0,1,1.714.9,4.306,4.306,0,0,1,1.151,1.343A3.422,3.422,0,0,1,241.087,10.227Z" transform="translate(0)" fill="#50f8ff"/>
          </g>
          <g transform="translate(-125.999 166.655)">
            <path id="Rectangle_176-55" data-name="Rectangle 176" d="M244,10.333a3.584,3.584,0,0,1-.443,1.691,4.506,4.506,0,0,1-1.187,1.383,5.815,5.815,0,0,1-1.755.933,6.77,6.77,0,0,1-2.144.342H12.952a6.391,6.391,0,0,1-2.1-.342,4.989,4.989,0,0,1-1.641-.933A3.781,3.781,0,0,1,8.19,12.024a3.344,3.344,0,0,1-.236-1.691A3.92,3.92,0,0,1,8.58,8.644,5.265,5.265,0,0,1,9.914,7.267a6.605,6.605,0,0,1,1.848-.927A7.1,7.1,0,0,1,13.933,6H238.548a6.714,6.714,0,0,1,2.13.34,5.694,5.694,0,0,1,1.735.927,4.4,4.4,0,0,1,1.166,1.377A3.543,3.543,0,0,1,244,10.333Z" transform="translate(0)" fill="#50f8ff"/>
          </g>
          <g transform="translate(-129.162 193.801)">
            <path id="Rectangle_176-56" data-name="Rectangle 176" d="M246.984,10.442a3.711,3.711,0,0,1-.448,1.734,4.606,4.606,0,0,1-1.2,1.418,5.866,5.866,0,0,1-1.777.957,6.777,6.777,0,0,1-2.171.351H13.021a6.394,6.394,0,0,1-2.128-.351,5.028,5.028,0,0,1-1.66-.957A3.867,3.867,0,0,1,8.2,12.176a3.466,3.466,0,0,1-.237-1.734A4.057,4.057,0,0,1,8.6,8.711,5.38,5.38,0,0,1,9.956,7.3a6.668,6.668,0,0,1,1.873-.951A7.115,7.115,0,0,1,14.027,6H241.466a6.721,6.721,0,0,1,2.156.348,5.743,5.743,0,0,1,1.757.951,4.5,4.5,0,0,1,1.18,1.412A3.669,3.669,0,0,1,246.984,10.442Z" fill="#50f8ff"/>
          </g>
          <g transform="translate(-132.405 221.637)">
            <path id="Rectangle_176-57" data-name="Rectangle 176" d="M250.046,10.556a3.845,3.845,0,0,1-.454,1.779,4.711,4.711,0,0,1-1.218,1.455,5.919,5.919,0,0,1-1.8.982,6.786,6.786,0,0,1-2.2.36H13.092a6.4,6.4,0,0,1-2.155-.36,5.067,5.067,0,0,1-1.68-.982,3.957,3.957,0,0,1-1.04-1.455,3.6,3.6,0,0,1-.237-1.779,4.2,4.2,0,0,1,.647-1.776A5.5,5.5,0,0,1,10,7.333a6.733,6.733,0,0,1,1.9-.975A7.128,7.128,0,0,1,14.124,6H244.458a6.729,6.729,0,0,1,2.184.357,5.793,5.793,0,0,1,1.779.975,4.6,4.6,0,0,1,1.2,1.448A3.8,3.8,0,0,1,250.046,10.556Z" transform="translate(0)" fill="#50f8ff"/>
          </g>
          <g transform="translate(-135.733 250.192)">
            <path id="Rectangle_176-58" data-name="Rectangle 176" d="M253.188,10.675a3.986,3.986,0,0,1-.46,1.825,4.82,4.82,0,0,1-1.234,1.492A5.973,5.973,0,0,1,249.67,15a6.794,6.794,0,0,1-2.227.37H13.165A6.4,6.4,0,0,1,10.983,15a5.109,5.109,0,0,1-1.7-1.007A4.05,4.05,0,0,1,8.231,12.5a3.73,3.73,0,0,1-.238-1.825,4.35,4.35,0,0,1,.658-1.822,5.626,5.626,0,0,1,1.392-1.486,6.8,6.8,0,0,1,1.924-1A7.141,7.141,0,0,1,14.224,6h233.3a6.736,6.736,0,0,1,2.212.367,5.845,5.845,0,0,1,1.8,1,4.7,4.7,0,0,1,1.21,1.486A3.941,3.941,0,0,1,253.188,10.675Z" transform="translate(0)" fill="#50f8ff"/>
          </g>
          <g transform="translate(-139.147 279.492)">
            <path id="Rectangle_176-59" data-name="Rectangle 176" d="M256.411,10.8a4.133,4.133,0,0,1-.466,1.873,4.933,4.933,0,0,1-1.25,1.532,6.03,6.03,0,0,1-1.847,1.034,6.8,6.8,0,0,1-2.256.379H13.24a6.4,6.4,0,0,1-2.21-.379A5.152,5.152,0,0,1,9.309,14.2a4.149,4.149,0,0,1-1.063-1.532A3.872,3.872,0,0,1,8.008,10.8a4.508,4.508,0,0,1,.67-1.87A5.757,5.757,0,0,1,10.089,7.4,6.871,6.871,0,0,1,12.04,6.376,7.154,7.154,0,0,1,14.327,6H250.678a6.745,6.745,0,0,1,2.241.376A5.9,5.9,0,0,1,254.744,7.4a4.816,4.816,0,0,1,1.226,1.525A4.087,4.087,0,0,1,256.411,10.8Z" transform="translate(0)" fill="#50f8ff"/>
          </g>
          <g transform="translate(-142.653 309.567)">
            <path id="Rectangle_176-60" data-name="Rectangle 176" d="M259.721,10.926a4.289,4.289,0,0,1-.473,1.923,5.055,5.055,0,0,1-1.267,1.573,6.09,6.09,0,0,1-1.872,1.062,6.812,6.812,0,0,1-2.286.39H13.317a6.408,6.408,0,0,1-2.239-.39,5.2,5.2,0,0,1-1.742-1.062A4.253,4.253,0,0,1,8.26,12.849a4.022,4.022,0,0,1-.238-1.923A4.675,4.675,0,0,1,8.7,9.006a5.9,5.9,0,0,1,1.433-1.565,6.945,6.945,0,0,1,1.978-1.054A7.168,7.168,0,0,1,14.433,6H253.912a6.753,6.753,0,0,1,2.27.386,5.957,5.957,0,0,1,1.849,1.054,4.933,4.933,0,0,1,1.242,1.565A4.242,4.242,0,0,1,259.721,10.926Z" transform="translate(0)" fill="#50f8ff"/>
          </g>
          <g transform="translate(-146.253 340.45)">
            <path id="Rectangle_176-61" data-name="Rectangle 176" d="M263.119,11.059a4.453,4.453,0,0,1-.479,1.975,5.179,5.179,0,0,1-1.284,1.615,6.152,6.152,0,0,1-1.9,1.09,6.822,6.822,0,0,1-2.317.4H13.4a6.412,6.412,0,0,1-2.268-.4,5.246,5.246,0,0,1-1.764-1.09,4.361,4.361,0,0,1-1.087-1.615,4.18,4.18,0,0,1-.238-1.975,4.85,4.85,0,0,1,.694-1.972,6.039,6.039,0,0,1,1.455-1.608A7.021,7.021,0,0,1,12.192,6.4,7.183,7.183,0,0,1,14.542,6H257.233a6.762,6.762,0,0,1,2.3.4,6.016,6.016,0,0,1,1.874,1.083,5.054,5.054,0,0,1,1.259,1.608A4.4,4.4,0,0,1,263.119,11.059Z" fill="#50f8ff"/>
          </g>
          <g transform="translate(-149.951 372.172)">
            <path id="Rectangle_176-62" data-name="Rectangle 176" d="M266.611,11.2a4.626,4.626,0,0,1-.486,2.029,5.311,5.311,0,0,1-1.3,1.66,6.217,6.217,0,0,1-1.923,1.12,6.832,6.832,0,0,1-2.349.411H13.477a6.417,6.417,0,0,1-2.3-.411,5.3,5.3,0,0,1-1.787-1.12,4.476,4.476,0,0,1-1.1-1.66A4.347,4.347,0,0,1,8.054,11.2,5.034,5.034,0,0,1,8.76,9.172,6.191,6.191,0,0,1,10.237,7.52a7.1,7.1,0,0,1,2.035-1.112A7.2,7.2,0,0,1,14.654,6h245.99a6.77,6.77,0,0,1,2.332.408,6.079,6.079,0,0,1,1.9,1.112,5.183,5.183,0,0,1,1.276,1.652A4.576,4.576,0,0,1,266.611,11.2Z" transform="translate(0)" fill="#50f8ff"/>
          </g>
          <g transform="translate(-153.752 404.769)">
            <path id="Rectangle_176-63" data-name="Rectangle 176" d="M270.2,11.342a4.808,4.808,0,0,1-.493,2.086,5.449,5.449,0,0,1-1.32,1.706,6.284,6.284,0,0,1-1.95,1.152,6.842,6.842,0,0,1-2.382.423H13.56a6.421,6.421,0,0,1-2.33-.423,5.348,5.348,0,0,1-1.809-1.152,4.6,4.6,0,0,1-1.112-1.706,4.523,4.523,0,0,1-.238-2.086A5.229,5.229,0,0,1,8.79,9.26a6.349,6.349,0,0,1,1.5-1.7A7.239,7.239,0,0,1,14.77,6H264.151a6.78,6.78,0,0,1,2.364.419,6.143,6.143,0,0,1,1.925,1.143,5.318,5.318,0,0,1,1.293,1.7A4.757,4.757,0,0,1,270.2,11.342Z" transform="translate(0)" fill="#50f8ff"/>
          </g>
          <g transform="translate(-157.659 438.276)">
            <path id="Rectangle_176-64" data-name="Rectangle 176" d="M273.888,11.492a5,5,0,0,1-.5,2.145,5.6,5.6,0,0,1-1.339,1.754,6.354,6.354,0,0,1-1.977,1.184,6.853,6.853,0,0,1-2.415.434H13.646a6.426,6.426,0,0,1-2.362-.434,5.4,5.4,0,0,1-1.833-1.184,4.657,4.657,0,0,1-1.363-3.9,5.434,5.434,0,0,1,.733-2.141,6.515,6.515,0,0,1,1.524-1.745A7.288,7.288,0,0,1,14.89,6H267.756a6.79,6.79,0,0,1,2.4.431,6.211,6.211,0,0,1,1.952,1.175,5.459,5.459,0,0,1,1.311,1.745A4.947,4.947,0,0,1,273.888,11.492Z" fill="#50f8ff"/>
          </g>
          <g transform="translate(-161.678 472.734)">
            <path id="Rectangle_176-65" data-name="Rectangle 176" d="M277.682,11.649a5.206,5.206,0,0,1-.507,2.206,5.749,5.749,0,0,1-1.358,1.8,6.429,6.429,0,0,1-2.006,1.218,6.864,6.864,0,0,1-2.449.447H13.734a6.432,6.432,0,0,1-2.395-.447A5.46,5.46,0,0,1,9.482,15.66a4.856,4.856,0,0,1-1.138-1.8,4.906,4.906,0,0,1-.238-2.206,5.651,5.651,0,0,1,.747-2.2,6.69,6.69,0,0,1,1.549-1.8,7.361,7.361,0,0,1,2.127-1.209A7.246,7.246,0,0,1,15.014,6h256.45a6.8,6.8,0,0,1,2.431.443,6.282,6.282,0,0,1,1.98,1.209,5.608,5.608,0,0,1,1.329,1.8A5.15,5.15,0,0,1,277.682,11.649Z" fill="#50f8ff"/>
          </g>
          <g transform="translate(-165.812 508.182)">
            <path id="Rectangle_176-66" data-name="Rectangle 176" d="M281.585,11.813a5.421,5.421,0,0,1-.515,2.27,5.909,5.909,0,0,1-1.378,1.857,6.506,6.506,0,0,1-2.035,1.253,6.876,6.876,0,0,1-2.485.46H13.825a6.437,6.437,0,0,1-2.429-.46A5.521,5.521,0,0,1,9.514,15.94a5,5,0,0,1-1.151-1.857,5.113,5.113,0,0,1-.238-2.27,5.88,5.88,0,0,1,.761-2.266A6.874,6.874,0,0,1,10.46,7.7a7.456,7.456,0,0,1,2.16-1.244A7.263,7.263,0,0,1,15.142,6H275.278a6.811,6.811,0,0,1,2.466.456A6.356,6.356,0,0,1,279.752,7.7,5.766,5.766,0,0,1,281.1,9.547,5.363,5.363,0,0,1,281.585,11.813Z" fill="#50f8ff"/>
          </g>
          <g transform="translate(-170.068 544.664)">
            <path id="Rectangle_176-67" data-name="Rectangle 176" d="M285.6,11.984a5.648,5.648,0,0,1-.523,2.337,6.079,6.079,0,0,1-1.4,1.912,6.588,6.588,0,0,1-2.065,1.29A6.888,6.888,0,0,1,279.1,18H13.918a6.443,6.443,0,0,1-2.464-.474,5.584,5.584,0,0,1-1.907-1.29,5.146,5.146,0,0,1-1.165-1.912,5.334,5.334,0,0,1-.237-2.337,6.123,6.123,0,0,1,.776-2.333,7.068,7.068,0,0,1,1.6-1.9,7.555,7.555,0,0,1,2.194-1.281A7.281,7.281,0,0,1,15.274,6H279.2a6.822,6.822,0,0,1,2.5.469,6.434,6.434,0,0,1,2.037,1.281,5.93,5.93,0,0,1,1.368,1.9A5.589,5.589,0,0,1,285.6,11.984Z" transform="translate(0)" fill="#50f8ff"/>
          </g>
          <g transform="translate(-174.451 582.226)">
            <path id="Rectangle_176-68" data-name="Rectangle 176" d="M289.741,12.163a5.89,5.89,0,0,1-.531,2.407,6.258,6.258,0,0,1-1.419,1.969,6.672,6.672,0,0,1-2.1,1.329,6.9,6.9,0,0,1-2.559.488H14.014a6.449,6.449,0,0,1-2.5-.488,5.651,5.651,0,0,1-1.933-1.329A5.3,5.3,0,0,1,8.4,14.57a5.568,5.568,0,0,1-.237-2.407,6.379,6.379,0,0,1,.792-2.4A7.271,7.271,0,0,1,10.585,7.8a7.659,7.659,0,0,1,2.228-1.319A7.3,7.3,0,0,1,15.411,6H283.248a6.834,6.834,0,0,1,2.539.483A6.515,6.515,0,0,1,287.855,7.8a6.105,6.105,0,0,1,1.388,1.958A5.828,5.828,0,0,1,289.741,12.163Z" transform="translate(0)" fill="#50f8ff"/>
          </g>
          <g transform="translate(-178.966 620.918)">
            <path id="Rectangle_176-69" data-name="Rectangle 176" d="M294,12.35a6.146,6.146,0,0,1-.539,2.48,6.447,6.447,0,0,1-1.441,2.029,6.762,6.762,0,0,1-2.127,1.369,6.914,6.914,0,0,1-2.6.5H14.113a6.456,6.456,0,0,1-2.536-.5,5.721,5.721,0,0,1-1.96-1.369,5.468,5.468,0,0,1-1.193-2.029,5.816,5.816,0,0,1-.236-2.48A6.651,6.651,0,0,1,9,9.874a7.486,7.486,0,0,1,1.655-2.018A7.767,7.767,0,0,1,12.915,6.5,7.32,7.32,0,0,1,15.552,6H287.414a6.846,6.846,0,0,1,2.577.5,6.6,6.6,0,0,1,2.1,1.359A6.29,6.29,0,0,1,293.5,9.874,6.082,6.082,0,0,1,294,12.35Z" fill="#50f8ff"/>
          </g>
          <g transform="translate(-183.619 660.789)">
            <path id="Rectangle_176-70" data-name="Rectangle 176" d="M298.4,12.545a6.418,6.418,0,0,1-.547,2.556,6.648,6.648,0,0,1-1.463,2.091,6.856,6.856,0,0,1-2.16,1.412,6.928,6.928,0,0,1-2.637.518H14.216a6.463,6.463,0,0,1-2.574-.518,5.8,5.8,0,0,1-1.988-1.412A5.644,5.644,0,0,1,8.446,15.1a6.08,6.08,0,0,1-.235-2.556,6.939,6.939,0,0,1,.825-2.551,7.712,7.712,0,0,1,1.684-2.08,7.881,7.881,0,0,1,2.3-1.4A7.34,7.34,0,0,1,15.7,6H291.707a6.859,6.859,0,0,1,2.616.513,6.691,6.691,0,0,1,2.13,1.4,6.484,6.484,0,0,1,1.43,2.08A6.351,6.351,0,0,1,298.4,12.545Z" transform="translate(0)" fill="#50f8ff"/>
          </g>
        </g>
      </g>
      <path id="Path_1104" data-name="Path 1104" d="M9.679,7.009q.083.073.163.15T10,7.314q.077.079.151.162t.144.167l27.073-2L40.166,0l9.556,2.97-5,13.446L10.486,14.224a5.638,5.638,0,0,1-1.222,1.2,5.88,5.88,0,0,1-1.51.786,6.027,6.027,0,0,1-3.432.159,5.882,5.882,0,0,1-1.61-.662,5.663,5.663,0,0,1-1.3-1.067A5.429,5.429,0,0,1,.5,13.26,5.244,5.244,0,0,1,.15,9.978,5.342,5.342,0,0,1,.742,8.444a5.55,5.55,0,0,1,1.038-1.3,5.783,5.783,0,0,1,1.426-.97,5.974,5.974,0,0,1,1.664-.518,6.047,6.047,0,0,1,1.711-.024,5.964,5.964,0,0,1,1.642.456,5.755,5.755,0,0,1,1.455.921Z" transform="translate(341.8 1374.983)" fill="#ffb8b8"/>
    </g>
  </g>
</svg>
