<svg xmlns="http://www.w3.org/2000/svg" width="700" height="289.431" viewBox="0 0 700 289.431">
  <g id="Group_307" data-name="Group 307" transform="translate(-549 -2017.481)">
    <g id="Group_306" data-name="Group 306" transform="translate(549 2017.481)">
      <path id="Rectangle_391" data-name="Rectangle 391" d="M20.332.053,154.5.405a20.134,20.134,0,0,1,18.487,12.242,19.854,19.854,0,0,1,1.575,7.774V246.662a19.926,19.926,0,0,1-1.575,7.784A20.267,20.267,0,0,1,154.5,266.8L20.332,268a20.348,20.348,0,0,1-7.91-1.509,20.137,20.137,0,0,1-6.463-4.252A19.764,19.764,0,0,1,0,248.071V20.115a19.829,19.829,0,0,1,1.6-7.826,20.07,20.07,0,0,1,4.36-6.383A20.325,20.325,0,0,1,20.332.053Z" transform="translate(525.437 10.406)" fill="#fff" opacity="0.03"/>
      <path id="Rectangle_392" data-name="Rectangle 392" d="M20.332.053,154.5.405a20.134,20.134,0,0,1,18.487,12.242,19.854,19.854,0,0,1,1.575,7.774V246.662a19.926,19.926,0,0,1-1.575,7.784A20.267,20.267,0,0,1,154.5,266.8L20.332,268a20.348,20.348,0,0,1-7.91-1.509,20.137,20.137,0,0,1-6.463-4.252A19.764,19.764,0,0,1,0,248.071V20.115a19.829,19.829,0,0,1,1.6-7.826,20.07,20.07,0,0,1,4.36-6.383A20.325,20.325,0,0,1,20.332.053Z" transform="translate(0 10.137)" fill="#fff" opacity="0.03"/>
      <path id="Rectangle_390" data-name="Rectangle 390" d="M20.752.066,167.457.53A20.541,20.541,0,0,1,186.3,13.025a20.259,20.259,0,0,1,1.606,7.929v246.01A20.331,20.331,0,0,1,186.3,274.9a20.67,20.67,0,0,1-18.847,12.611L20.752,288.877a20.768,20.768,0,0,1-8.073-1.537A20.544,20.544,0,0,1,6.082,283,20.158,20.158,0,0,1,0,268.544V20.525A20.223,20.223,0,0,1,1.632,12.54a20.465,20.465,0,0,1,4.45-6.511A20.737,20.737,0,0,1,20.752.066Z" transform="translate(397.817 0.361)" fill="#fff" opacity="0.14"/>
      <path id="Rectangle_389" data-name="Rectangle 389" d="M20.778.066,167.667.531a20.567,20.567,0,0,1,18.871,12.51,20.284,20.284,0,0,1,1.608,7.939V267.294a20.356,20.356,0,0,1-1.608,7.949,20.7,20.7,0,0,1-18.871,12.626L20.778,289.237a20.794,20.794,0,0,1-8.083-1.539,20.569,20.569,0,0,1-6.605-4.342A20.183,20.183,0,0,1,0,268.879V20.551a20.248,20.248,0,0,1,1.634-8A20.49,20.49,0,0,1,6.09,6.037,20.763,20.763,0,0,1,20.778.066Z" transform="translate(84.283)" fill="#fff" opacity="0.14"/>
    </g>
  </g>
</svg>
