<svg id="left_gate" data-name="left gate" xmlns="http://www.w3.org/2000/svg" xmlns:xlink="http://www.w3.org/1999/xlink" width="122.065" height="428.83" viewBox="0 0 122.065 428.83">
  <defs>
    <filter id="Rectangle_361" x="0" y="0" width="122.065" height="428.83" filterUnits="userSpaceOnUse">
      <feOffset dy="1" input="SourceAlpha"/>
      <feGaussianBlur stdDeviation="18" result="blur"/>
      <feFlood flood-opacity="0.161" result="color"/>
      <feComposite operator="out" in="SourceGraphic" in2="blur"/>
      <feComposite operator="in" in="color"/>
      <feComposite operator="in" in2="SourceGraphic"/>
    </filter>
    <filter id="Path_1661">
      <feOffset dy="3" input="SourceAlpha"/>
      <feGaussianBlur stdDeviation="3" result="blur-2"/>
      <feFlood flood-opacity="0.161" result="color-2"/>
      <feComposite operator="out" in="SourceGraphic" in2="blur-2"/>
      <feComposite operator="in" in="color-2"/>
      <feComposite operator="in" in2="SourceGraphic"/>
    </filter>
    <filter id="Path_1663">
      <feOffset dy="3" input="SourceAlpha"/>
      <feGaussianBlur stdDeviation="3" result="blur-3"/>
      <feFlood flood-opacity="0.161" result="color-3"/>
      <feComposite operator="out" in="SourceGraphic" in2="blur-3"/>
      <feComposite operator="in" in="color-3"/>
      <feComposite operator="in" in2="SourceGraphic"/>
    </filter>
    <filter id="Path_1662">
      <feOffset dy="1" input="SourceAlpha"/>
      <feGaussianBlur stdDeviation="4" result="blur-4"/>
      <feFlood flood-opacity="0.69" result="color-4"/>
      <feComposite operator="out" in="SourceGraphic" in2="blur-4"/>
      <feComposite operator="in" in="color-4"/>
      <feComposite operator="in" in2="SourceGraphic"/>
    </filter>
  </defs>
  <g data-type="innerShadowGroup">
    <path id="Rectangle_361-2" data-name="Rectangle 361" d="M0,0H122.065V428.83H0Z" fill="#00abd1"/>
    <g transform="matrix(1, 0, 0, 1, 0, 0)" filter="url(#Rectangle_361)">
      <path id="Rectangle_361-3" data-name="Rectangle 361" d="M0,0H122.065V428.83H0Z" fill="#fff"/>
    </g>
  </g>
  <g id="Line_19" data-name="Line 19" transform="translate(57.416 46.479)" fill="none">
    <path d="M4.06,0,.515,370.947" stroke="none"/>
    <path d="M 1.030908107757568 370.9523315429688 L 2.590040094219148e-05 370.9425354003906 L 3.544406890869141 -1.541052733955439e-05 L 4.575289726257324 0.009825277142226696 L 1.030908107757568 370.9523315429688 Z" stroke="none" fill="#077b95"/>
  </g>
  <g data-type="innerShadowGroup">
    <path id="Path_1661-2" data-name="Path 1661" d="M88.587,0H0V14.784H88.587L101.818,7.9Z" transform="translate(7.023 86.184)" fill="#3a7d83"/>
    <g transform="matrix(1, 0, 0, 1, 0, 0)" filter="url(#Path_1661)">
      <path id="Path_1661-3" data-name="Path 1661" d="M88.587,0H0V14.784H88.587L101.818,7.9Z" transform="translate(7.02 86.18)" fill="#fff"/>
    </g>
  </g>
  <g data-type="innerShadowGroup">
    <path id="Path_1663-2" data-name="Path 1663" d="M88.587,0H0V14.784H88.587L101.818,7.9Z" transform="translate(7.29 339.894)" fill="#3a7d83"/>
    <g transform="matrix(1, 0, 0, 1, 0, 0)" filter="url(#Path_1663)">
      <path id="Path_1663-3" data-name="Path 1663" d="M88.587,0H0V14.784H88.587L101.818,7.9Z" transform="translate(7.29 339.89)" fill="#fff"/>
    </g>
  </g>
  <g data-type="innerShadowGroup">
    <path id="Path_1662-2" data-name="Path 1662" d="M0,0H114.775V17.578H0Z" transform="translate(7.29 217.155)" fill="#0ea3c7"/>
    <g transform="matrix(1, 0, 0, 1, 0, 0)" filter="url(#Path_1662)">
      <path id="Path_1662-3" data-name="Path 1662" d="M0,0H114.775V17.578H0Z" transform="translate(7.29 217.16)" fill="#fff"/>
    </g>
  </g>
  <g id="Path_1664" data-name="Path 1664" transform="translate(74.07 365.767)" fill="none" opacity="0.44">
    <path d="M.514,51.659s.15-2.295.481-5.966.845-8.721,1.573-14.231,1.67-11.48,2.858-16.993A71.191,71.191,0,0,1,9.763.217" stroke="none"/>
    <path d="M 1.028915524482727 51.69281387329102 L 0 51.62567520141602 C 0.001510150032117963 51.60267639160156 0.04077405110001564 51.00859069824219 0.1213153824210167 49.95991516113281 C 0.201856717467308 48.9112434387207 0.3241788744926453 47.40801239013672 0.4907987713813782 45.56673049926758 C 0.6579220294952393 43.72544860839844 0.8693430423736572 41.54608535766602 1.129088878631592 39.14516448974609 C 1.38933801651001 36.74427795410156 1.697911977767944 34.12180709838867 2.057831048965454 31.39431953430176 C 2.269755601882935 29.79142189025879 2.488727331161499 28.23106002807617 2.714746475219727 26.71571731567383 C 2.940765380859375 25.20037651062012 3.173831939697266 23.73005676269531 3.412939071655273 22.30727577209473 C 3.652046203613281 20.88449478149414 3.89769721031189 19.50918769836426 4.149892330169678 18.18390464782715 C 4.402087211608887 16.85862350463867 4.659819602966309 15.58336448669434 4.923089027404785 14.36055183410645 C 5.253811836242676 12.82689952850342 5.593595504760742 11.37470149993896 5.94193696975708 10.0060338973999 C 6.290278434753418 8.63736629486084 6.647177219390869 7.352259635925293 7.012633323669434 6.152760028839111 C 7.378089904785156 4.95326042175293 7.751096725463867 3.839367628097534 8.131654739379883 2.813220739364624 C 8.512212753295898 1.787073850631714 8.900321006774902 0.8486728668212891 9.295476913452148 6.292291800491512e-05 L 10.22975635528564 0.4349232017993927 C 9.534584045410156 1.928839087486267 8.859043121337891 3.721261262893677 8.206658363342285 5.794068336486816 C 7.554777145385742 7.866874694824219 6.926051616668701 10.22009754180908 6.324508190155029 12.83551979064941 C 5.722965240478516 15.45094299316406 5.149108409881592 18.32856559753418 4.606964588165283 21.45026588439941 C 4.064820289611816 24.57196617126465 3.554389715194702 27.93771362304688 3.080202579498291 31.52932167053223 C 2.720787048339844 34.24843978881836 2.413723230361938 36.86251068115234 2.154983997344971 39.25553131103516 C 1.895741701126099 41.64855194091797 1.684824109077454 43.82049560546875 1.518204212188721 45.65542221069336 C 1.351584315299988 47.49034881591797 1.230268836021423 48.98826217651367 1.150230884552002 50.03315734863281 C 1.069689631462097 51.07802581787109 1.030425667762756 51.6699104309082 1.028915524482727 51.69281387329102 Z" stroke="none" fill="#000"/>
  </g>
  <g id="Path_1666" data-name="Path 1666" transform="translate(41.135 354.669)" fill="none" opacity="0.52">
    <path d="M5.644.009S5.622,1.272,5.51,3.194s-.316,4.5-.68,7.136a39.8,39.8,0,0,1-1.643,7.457c-.755,2.136-1.74,3.72-3.024,4.148" stroke="none"/>
    <path d="M 0.3261924088001251 22.42352485656738 L 0 21.44551467895508 C 0.4686498939990997 21.28934097290039 0.9156543016433716 20.92410469055176 1.336986184120178 20.36122703552246 C 1.758318066596985 19.79831886291504 2.154480695724487 19.03776931762695 2.520440340042114 18.09103202819824 C 2.885896682739258 17.1442928314209 3.221653461456299 16.01130294799805 3.52318000793457 14.70351314544678 C 3.824203252792358 13.39575481414795 4.090996265411377 11.91319561004639 4.318525791168213 10.267258644104 C 4.497730255126953 8.973028182983398 4.637670516967773 7.687355995178223 4.746904850006104 6.486063003540039 C 4.856139183044434 5.284770011901855 4.934667110443115 4.167856693267822 4.991045951843262 3.211145162582397 C 5.047424793243408 2.254465341567993 5.081655025482178 1.457955479621887 5.101790428161621 0.8974695801734924 C 5.121925354003906 0.3370151519775391 5.127965927124023 0.01258458383381367 5.128469467163086 0 L 6.159398555755615 0.01752403192222118 C 6.158895015716553 0.03023446165025234 6.152854442596436 0.3581572473049164 6.13271951675415 0.9247152209281921 C 6.112584114074707 1.491273164749146 6.078353881835938 2.29646635055542 6.020967960357666 3.26374888420105 C 5.964086055755615 4.23103141784668 5.884551525115967 5.360403537750244 5.774310111999512 6.575287818908691 C 5.663566112518311 7.790172100067139 5.52161169052124 9.09060001373291 5.340897083282471 10.39996242523193 C 5.233676433563232 11.17312812805176 5.118402004241943 11.91193771362305 4.995072841644287 12.61525821685791 C 4.871744155883789 13.31857967376709 4.740360736846924 13.98644351959229 4.60142707824707 14.61774921417236 C 4.461989879608154 15.24905490875244 4.314498424530029 15.84377098083496 4.159456729888916 16.40079498291016 C 4.004918098449707 16.95785140991211 3.84232497215271 17.47721862792969 3.672684907913208 17.95779228210449 C 3.44666576385498 18.59661674499512 3.209068775177002 19.16701316833496 2.958383798599243 19.67030143737793 C 2.707699060440063 20.17359161376953 2.443926095962524 20.60980415344238 2.166561841964722 20.98019981384277 C 1.889197707176208 21.35059547424316 1.597738742828369 21.65520477294922 1.291178226470947 21.89535140991211 C 0.9851211905479431 22.13546371459961 0.6634592413902283 22.31108283996582 0.3261924088001251 22.42352485656738 Z" stroke="none" fill="#000"/>
  </g>
  <g id="Ellipse_221" data-name="Ellipse 221" transform="translate(91.511 64.384)" fill="none">
    <path d="M3.981,0A2.326,2.326,0,0,1,5.53.66,5.641,5.641,0,0,1,6.8,2.461a11.623,11.623,0,0,1,.853,2.671A16.744,16.744,0,0,1,7.961,8.4a16.744,16.744,0,0,1-.313,3.271A11.623,11.623,0,0,1,6.8,14.346a5.641,5.641,0,0,1-1.265,1.8,2.326,2.326,0,0,1-1.549.66,2.326,2.326,0,0,1-1.549-.66,5.641,5.641,0,0,1-1.265-1.8,11.623,11.623,0,0,1-.853-2.671A16.744,16.744,0,0,1,0,8.4,16.744,16.744,0,0,1,.313,5.132a11.623,11.623,0,0,1,.853-2.671A5.641,5.641,0,0,1,2.431.66,2.326,2.326,0,0,1,3.981,0Z" stroke="none"/>
    <path d="M 3.980601072311401 15.77605628967285 C 4.136580467224121 15.77605628967285 4.297561645507812 15.73232460021973 4.459969043731689 15.64841365814209 C 4.622376441955566 15.56450271606445 4.786210060119629 15.4404125213623 4.947895050048828 15.27969932556152 C 5.109580039978027 15.11898517608643 5.269116401672363 14.92164516448975 5.422929763793945 14.69123268127441 C 5.576742649078369 14.46082019805908 5.724832057952881 14.1973352432251 5.863624095916748 13.90433311462402 C 6.035583019256592 13.54130363464355 6.188228130340576 13.14693355560303 6.320468902587891 12.72684669494629 C 6.452709674835205 12.30675888061523 6.564546585083008 11.86095428466797 6.654888153076172 11.39505290985107 C 6.745229721069336 10.9291524887085 6.814075946807861 10.44315624237061 6.860337257385254 9.94268798828125 C 6.906598567962646 9.442220687866211 6.930274486541748 8.927280426025391 6.930274486541748 8.403491020202637 C 6.930274486541748 7.879702091217041 6.906598567962646 7.364762306213379 6.860337257385254 6.864294528961182 C 6.814075946807861 6.363826274871826 6.745229721069336 5.877830505371094 6.654888153076172 5.411930084228516 C 6.564546585083008 4.946029186248779 6.452709674835205 4.500223636627197 6.320468902587891 4.080135822296143 C 6.188228130340576 3.660048246383667 6.035583019256592 3.265678405761719 5.863624095916748 2.902649641036987 C 5.724832057952881 2.609646797180176 5.576742649078369 2.346162557601929 5.422929763793945 2.115750312805176 C 5.269116401672363 1.885338306427002 5.109580039978027 1.687998175621033 4.947895050048828 1.527283430099487 C 4.786210060119629 1.366568565368652 4.622376441955566 1.242479085922241 4.459969043731689 1.158568501472473 C 4.297561645507812 1.074657678604126 4.136580467224121 1.030925750732422 3.980601072311401 1.030925750732422 C 3.824621677398682 1.030925750732422 3.663640737533569 1.074657678604126 3.501233339309692 1.158568501472473 C 3.338826179504395 1.242479085922241 3.174992561340332 1.366568565368652 3.013307571411133 1.527283430099487 C 2.851622343063354 1.687998175621033 2.692085742950439 1.885338306427002 2.538272619247437 2.115750312805176 C 2.384459495544434 2.346162557601929 2.236369609832764 2.609646797180176 2.097578287124634 2.902649641036987 C 1.9256192445755 3.265678405761719 1.772974133491516 3.660048246383667 1.640733242034912 4.080135822296143 C 1.508492350578308 4.500223636627197 1.396656036376953 4.946029186248779 1.306314468383789 5.411930084228516 C 1.215972900390625 5.877830505371094 1.147126078605652 6.363826274871826 1.100864768028259 6.864294528961182 C 1.054603338241577 7.364762306213379 1.030927419662476 7.879702091217041 1.030927419662476 8.403491020202637 C 1.030927419662476 8.927280426025391 1.054603338241577 9.442220687866211 1.100864768028259 9.94268798828125 C 1.147126078605652 10.44315624237061 1.215972900390625 10.9291524887085 1.306314468383789 11.39505290985107 C 1.396656036376953 11.86095428466797 1.508492350578308 12.30675888061523 1.640733242034912 12.72684669494629 C 1.772974133491516 13.14693355560303 1.9256192445755 13.54130363464355 2.097578287124634 13.90433311462402 C 2.236369609832764 14.1973352432251 2.384459495544434 14.46082019805908 2.538272619247437 14.69123268127441 C 2.692085742950439 14.92164516448975 2.851622343063354 15.11898517608643 3.013307571411133 15.27969932556152 C 3.174992561340332 15.4404125213623 3.338826179504395 15.56450271606445 3.501233339309692 15.64841365814209 C 3.663640737533569 15.73232460021973 3.824621677398682 15.77605628967285 3.980601072311401 15.77605628967285 M 3.980601072311401 16.80698585510254 C 3.430994749069214 16.80698585510254 2.907403945922852 16.57183837890625 2.431171178817749 16.14659690856934 C 1.954938530921936 15.72135734558105 1.526063919067383 15.10602474212646 1.165890097618103 14.34565830230713 C 0.8057163953781128 13.58529186248779 0.514243483543396 12.67989063262939 0.3128139674663544 11.67451000213623 C 0.1113844439387321 10.66912937164307 -1.651411935199576e-06 9.56377124786377 -1.651411935199576e-06 8.403491020202637 C -1.651411935199576e-06 7.243211269378662 0.1113844364881516 6.137853622436523 0.312813937664032 5.132473468780518 C 0.5142434239387512 4.127093315124512 0.8057163953781128 3.221691370010376 1.165890097618103 2.461324214935303 C 1.526063919067383 1.700957417488098 1.954938530921936 1.085625529289246 2.431171178817749 0.6603853702545166 C 2.907403945922852 0.2351451069116592 3.430994749069214 -3.377072971488815e-06 3.980601072311401 -3.377072971488815e-06 C 4.53020715713501 -3.377072971488815e-06 5.053798198699951 0.2351451069116592 5.530030727386475 0.6603853106498718 C 6.006263732910156 1.085625410079956 6.435138702392578 1.700957417488098 6.795312404632568 2.461324214935303 C 7.155486106872559 3.221691370010376 7.446959018707275 4.127092838287354 7.648388385772705 5.132472991943359 C 7.849817752838135 6.137853622436523 7.961203575134277 7.243211269378662 7.961203575134277 8.403491020202637 C 7.961203575134277 9.56377124786377 7.849817752838135 10.66912937164307 7.648388385772705 11.67451000213623 C 7.446959018707275 12.67989063262939 7.155486106872559 13.58529186248779 6.795312404632568 14.34565830230713 C 6.435138702392578 15.10602474212646 6.006263732910156 15.72135734558105 5.530030727386475 16.14659690856934 C 5.053798198699951 16.57183837890625 4.53020715713501 16.80698585510254 3.980601072311401 16.80698585510254 Z" stroke="none" fill="#310a0a"/>
  </g>
  <g id="Ellipse_224" data-name="Ellipse 224" transform="translate(91.511 99.767)" fill="none">
    <path d="M3.981,0A2.269,2.269,0,0,1,5.53.7,5.944,5.944,0,0,1,6.8,2.591,12.7,12.7,0,0,1,7.648,5.4a18.524,18.524,0,0,1,.313,3.443,18.524,18.524,0,0,1-.313,3.443A12.7,12.7,0,0,1,6.8,15.1,5.944,5.944,0,0,1,5.53,17a2.269,2.269,0,0,1-1.549.7A2.269,2.269,0,0,1,2.431,17a5.944,5.944,0,0,1-1.265-1.9,12.7,12.7,0,0,1-.853-2.812A18.524,18.524,0,0,1,0,8.846,18.524,18.524,0,0,1,.313,5.4a12.7,12.7,0,0,1,.853-2.812A5.944,5.944,0,0,1,2.431.7,2.269,2.269,0,0,1,3.981,0Z" stroke="none"/>
    <path d="M 3.980601072311401 16.66063499450684 C 4.132067680358887 16.66063499450684 4.290561199188232 16.61314392089844 4.451702117919922 16.52279853820801 C 4.612843036651611 16.43245315551758 4.776630878448486 16.29924964904785 4.938685894012451 16.12782287597656 C 5.100741386413574 15.95639514923096 5.261062622070312 15.74674320220947 5.415272235870361 15.50350093841553 C 5.569480895996094 15.26025867462158 5.717577457427979 14.98342418670654 5.855180740356445 14.67763328552246 C 6.02850341796875 14.29247760772705 6.182357788085938 13.87416553497314 6.315645694732666 13.4286584854126 C 6.448933601379395 12.98315143585205 6.561655044555664 12.51044940948486 6.652711391448975 12.01651382446289 C 6.743767738342285 11.5225772857666 6.813158512115479 11.00740718841553 6.859784603118896 10.47696495056152 C 6.906411647796631 9.94652271270752 6.930274486541748 9.400806427001953 6.930274486541748 8.845780372619629 C 6.930274486541748 8.290754318237305 6.906411647796631 7.745038986206055 6.859784603118896 7.214596271514893 C 6.813158512115479 6.68415355682373 6.743767738342285 6.168983459472656 6.652711391448975 5.675047397613525 C 6.561655044555664 5.181111335754395 6.448933601379395 4.708408832550049 6.315645694732666 4.262901782989502 C 6.182357788085938 3.817394733428955 6.02850341796875 3.399083137512207 5.855180740356445 3.013928174972534 C 5.717577457427979 2.708136558532715 5.569480895996094 2.431303262710571 5.415272235870361 2.188060760498047 C 5.261062622070312 1.944818258285522 5.100741386413574 1.735166788101196 4.938685894012451 1.563739418983459 C 4.776630878448486 1.392312169075012 4.612843036651611 1.259108662605286 4.451702117919922 1.168761968612671 C 4.290561199188232 1.078415393829346 4.132067680358887 1.030925631523132 3.980601072311401 1.030925631523132 C 3.829134464263916 1.030925631523132 3.670640707015991 1.078415393829346 3.509499788284302 1.168761968612671 C 3.348359107971191 1.259108662605286 3.184571266174316 1.392312169075012 3.022516012191772 1.563739418983459 C 2.860460996627808 1.735166788101196 2.700138807296753 1.944818258285522 2.545929908752441 2.188060760498047 C 2.391720771789551 2.431303262710571 2.243624687194824 2.708136558532715 2.106021404266357 3.013928174972534 C 1.932699084281921 3.399083137512207 1.778844475746155 3.817394733428955 1.645556449890137 4.262901782989502 C 1.512268543243408 4.708408832550049 1.399546980857849 5.181111335754395 1.308490872383118 5.675047397613525 C 1.217434883117676 6.168983459472656 1.148043870925903 6.68415355682373 1.101417064666748 7.214596271514893 C 1.054790258407593 7.745038986206055 1.030927419662476 8.290754318237305 1.030927419662476 8.845780372619629 C 1.030927419662476 9.400806427001953 1.054790258407593 9.94652271270752 1.101417064666748 10.47696495056152 C 1.148043870925903 11.00740718841553 1.217434883117676 11.5225772857666 1.308490872383118 12.01651382446289 C 1.399546980857849 12.51044940948486 1.512268543243408 12.98315143585205 1.645556449890137 13.4286584854126 C 1.778844475746155 13.87416553497314 1.932699084281921 14.29247760772705 2.106021404266357 14.67763328552246 C 2.243624687194824 14.98342418670654 2.391720771789551 15.26025867462158 2.545929908752441 15.50350093841553 C 2.700138807296753 15.74674320220947 2.860460996627808 15.95639514923096 3.022516012191772 16.12782287597656 C 3.184571266174316 16.29924964904785 3.348359107971191 16.43245315551758 3.509499788284302 16.52279853820801 C 3.670640707015991 16.61314392089844 3.829134464263916 16.66063499450684 3.980601072311401 16.66063499450684 M 3.980601072311401 17.69156455993652 C 3.430994749069214 17.69156455993652 2.907403945922852 17.44404029846191 2.431171178817749 16.99641799926758 C 1.954938530921936 16.54879570007324 1.526063919067383 15.90107822418213 1.165890097618103 15.10069179534912 C 0.8057163953781128 14.30030632019043 0.514243483543396 13.34725189208984 0.3128139674663544 12.28895568847656 C 0.1113844439387321 11.23066139221191 -1.651411935199576e-06 10.0671272277832 -1.651411935199576e-06 8.845780372619629 C -1.651411935199576e-06 7.624433994293213 0.1113844364881516 6.460898876190186 0.312813937664032 5.402604103088379 C 0.5142434239387512 4.344308853149414 0.8057163953781128 3.391254186630249 1.165890097618103 2.59086799621582 C 1.526063919067383 1.790481925010681 1.954938530921936 1.14276397228241 2.431171178817749 0.6951426863670349 C 2.907403945922852 0.2475213408470154 3.430994749069214 -3.451322072578478e-06 3.980601072311401 -3.451322072578478e-06 C 4.53020715713501 -3.451322072578478e-06 5.053798198699951 0.2475213259458542 5.530030727386475 0.6951426863670349 C 6.006263732910156 1.14276397228241 6.435138702392578 1.790481925010681 6.795312404632568 2.590868473052979 C 7.155486106872559 3.391254425048828 7.446959018707275 4.344308853149414 7.648388385772705 5.402604103088379 C 7.849817752838135 6.460898876190186 7.961203575134277 7.624433994293213 7.961203575134277 8.845780372619629 C 7.961203575134277 10.0671272277832 7.849817752838135 11.23066139221191 7.648388385772705 12.28895568847656 C 7.446959018707275 13.34725189208984 7.155486106872559 14.30030632019043 6.795312404632568 15.10069179534912 C 6.435138702392578 15.90107822418213 6.006263732910156 16.54879570007324 5.530030727386475 16.99641799926758 C 5.053798198699951 17.44404029846191 4.53020715713501 17.69156455993652 3.980601072311401 17.69156455993652 Z" stroke="none" fill="#310a0a"/>
  </g>
  <g id="Ellipse_223" data-name="Ellipse 223" transform="translate(91.511 88.268)" fill="none">
    <path d="M3.981,0A2.326,2.326,0,0,1,5.53.66,5.641,5.641,0,0,1,6.8,2.461a11.623,11.623,0,0,1,.853,2.671A16.744,16.744,0,0,1,7.961,8.4a16.744,16.744,0,0,1-.313,3.271A11.623,11.623,0,0,1,6.8,14.346a5.641,5.641,0,0,1-1.265,1.8,2.326,2.326,0,0,1-1.549.66,2.326,2.326,0,0,1-1.549-.66,5.641,5.641,0,0,1-1.265-1.8,11.623,11.623,0,0,1-.853-2.671A16.744,16.744,0,0,1,0,8.4,16.744,16.744,0,0,1,.313,5.132a11.623,11.623,0,0,1,.853-2.671A5.641,5.641,0,0,1,2.431.66,2.326,2.326,0,0,1,3.981,0Z" stroke="none"/>
    <path d="M 3.980601072311401 15.77605628967285 C 4.136580467224121 15.77605628967285 4.297561645507812 15.73232460021973 4.459969043731689 15.64841365814209 C 4.622376441955566 15.56450271606445 4.786210060119629 15.4404125213623 4.947895050048828 15.27969932556152 C 5.109580039978027 15.11898517608643 5.269116401672363 14.92164516448975 5.422929763793945 14.69123268127441 C 5.576742649078369 14.46082019805908 5.724832057952881 14.1973352432251 5.863624095916748 13.90433311462402 C 6.035583019256592 13.54130363464355 6.188228130340576 13.14693355560303 6.320468902587891 12.72684669494629 C 6.452709674835205 12.30675888061523 6.564546585083008 11.86095428466797 6.654888153076172 11.39505290985107 C 6.745229721069336 10.9291524887085 6.814075946807861 10.44315624237061 6.860337257385254 9.94268798828125 C 6.906598567962646 9.442220687866211 6.930274486541748 8.927280426025391 6.930274486541748 8.403491020202637 C 6.930274486541748 7.879702091217041 6.906598567962646 7.364762306213379 6.860337257385254 6.864294528961182 C 6.814075946807861 6.363826274871826 6.745229721069336 5.877830505371094 6.654888153076172 5.411930084228516 C 6.564546585083008 4.946029186248779 6.452709674835205 4.500223636627197 6.320468902587891 4.080135822296143 C 6.188228130340576 3.660048246383667 6.035583019256592 3.265678405761719 5.863624095916748 2.902649641036987 C 5.724832057952881 2.609646797180176 5.576742649078369 2.346162557601929 5.422929763793945 2.115750312805176 C 5.269116401672363 1.885338306427002 5.109580039978027 1.687998175621033 4.947895050048828 1.527283430099487 C 4.786210060119629 1.366568565368652 4.622376441955566 1.242479085922241 4.459969043731689 1.158568501472473 C 4.297561645507812 1.074657678604126 4.136580467224121 1.030925750732422 3.980601072311401 1.030925750732422 C 3.824621677398682 1.030925750732422 3.663640737533569 1.074657678604126 3.501233339309692 1.158568501472473 C 3.338826179504395 1.242479085922241 3.174992561340332 1.366568565368652 3.013307571411133 1.527283430099487 C 2.851622343063354 1.687998175621033 2.692085742950439 1.885338306427002 2.538272619247437 2.115750312805176 C 2.384459495544434 2.346162557601929 2.236369609832764 2.609646797180176 2.097578287124634 2.902649641036987 C 1.9256192445755 3.265678405761719 1.772974133491516 3.660048246383667 1.640733242034912 4.080135822296143 C 1.508492350578308 4.500223636627197 1.396656036376953 4.946029186248779 1.306314468383789 5.411930084228516 C 1.215972900390625 5.877830505371094 1.147126078605652 6.363826274871826 1.100864768028259 6.864294528961182 C 1.054603338241577 7.364762306213379 1.030927419662476 7.879702091217041 1.030927419662476 8.403491020202637 C 1.030927419662476 8.927280426025391 1.054603338241577 9.442220687866211 1.100864768028259 9.94268798828125 C 1.147126078605652 10.44315624237061 1.215972900390625 10.9291524887085 1.306314468383789 11.39505290985107 C 1.396656036376953 11.86095428466797 1.508492350578308 12.30675888061523 1.640733242034912 12.72684669494629 C 1.772974133491516 13.14693355560303 1.9256192445755 13.54130363464355 2.097578287124634 13.90433311462402 C 2.236369609832764 14.1973352432251 2.384459495544434 14.46082019805908 2.538272619247437 14.69123268127441 C 2.692085742950439 14.92164516448975 2.851622343063354 15.11898517608643 3.013307571411133 15.27969932556152 C 3.174992561340332 15.4404125213623 3.338826179504395 15.56450271606445 3.501233339309692 15.64841365814209 C 3.663640737533569 15.73232460021973 3.824621677398682 15.77605628967285 3.980601072311401 15.77605628967285 M 3.980601072311401 16.80698585510254 C 3.430994749069214 16.80698585510254 2.907403945922852 16.57183837890625 2.431171178817749 16.14659690856934 C 1.954938530921936 15.72135734558105 1.526063919067383 15.10602474212646 1.165890097618103 14.34565830230713 C 0.8057163953781128 13.58529186248779 0.514243483543396 12.67989063262939 0.3128139674663544 11.67451000213623 C 0.1113844439387321 10.66912937164307 -1.651411935199576e-06 9.56377124786377 -1.651411935199576e-06 8.403491020202637 C -1.651411935199576e-06 7.243211269378662 0.1113844364881516 6.137853622436523 0.312813937664032 5.132473468780518 C 0.5142434239387512 4.127093315124512 0.8057163953781128 3.221691370010376 1.165890097618103 2.461324214935303 C 1.526063919067383 1.700957417488098 1.954938530921936 1.085625529289246 2.431171178817749 0.6603853702545166 C 2.907403945922852 0.2351451069116592 3.430994749069214 -3.377072971488815e-06 3.980601072311401 -3.377072971488815e-06 C 4.53020715713501 -3.377072971488815e-06 5.053798198699951 0.2351451069116592 5.530030727386475 0.6603853106498718 C 6.006263732910156 1.085625410079956 6.435138702392578 1.700957417488098 6.795312404632568 2.461324214935303 C 7.155486106872559 3.221691370010376 7.446959018707275 4.127092838287354 7.648388385772705 5.132472991943359 C 7.849817752838135 6.137853622436523 7.961203575134277 7.243211269378662 7.961203575134277 8.403491020202637 C 7.961203575134277 9.56377124786377 7.849817752838135 10.66912937164307 7.648388385772705 11.67451000213623 C 7.446959018707275 12.67989063262939 7.155486106872559 13.58529186248779 6.795312404632568 14.34565830230713 C 6.435138702392578 15.10602474212646 6.006263732910156 15.72135734558105 5.530030727386475 16.14659690856934 C 5.053798198699951 16.57183837890625 4.53020715713501 16.80698585510254 3.980601072311401 16.80698585510254 Z" stroke="none" fill="#310a0a"/>
  </g>
  <g id="Ellipse_226" data-name="Ellipse 226" transform="translate(91.511 123.651)" fill="none">
    <path d="M3.981,0A2.269,2.269,0,0,1,5.53.7,5.944,5.944,0,0,1,6.8,2.591,12.7,12.7,0,0,1,7.648,5.4a18.524,18.524,0,0,1,.313,3.443,18.524,18.524,0,0,1-.313,3.443A12.7,12.7,0,0,1,6.8,15.1,5.944,5.944,0,0,1,5.53,17a2.269,2.269,0,0,1-1.549.7A2.269,2.269,0,0,1,2.431,17a5.944,5.944,0,0,1-1.265-1.9,12.7,12.7,0,0,1-.853-2.812A18.524,18.524,0,0,1,0,8.846,18.524,18.524,0,0,1,.313,5.4a12.7,12.7,0,0,1,.853-2.812A5.944,5.944,0,0,1,2.431.7,2.269,2.269,0,0,1,3.981,0Z" stroke="none"/>
    <path d="M 3.980601072311401 16.66050910949707 C 4.132067680358887 16.66050910949707 4.290561199188232 16.61301803588867 4.451702117919922 16.52267265319824 C 4.612843036651611 16.43232727050781 4.776630878448486 16.29912376403809 4.938685894012451 16.1276969909668 C 5.100741386413574 15.95626926422119 5.261062622070312 15.74661731719971 5.415272235870361 15.50337505340576 C 5.569480895996094 15.26013278961182 5.717577457427979 14.98329830169678 5.855180740356445 14.6775074005127 C 6.02850341796875 14.29235172271729 6.182357788085938 13.87403964996338 6.315645694732666 13.42853260040283 C 6.448933601379395 12.98302555084229 6.561655044555664 12.5103235244751 6.652711391448975 12.01638793945312 C 6.743767738342285 11.52245140075684 6.813158512115479 11.00728130340576 6.859784603118896 10.47683906555176 C 6.906411647796631 9.946396827697754 6.930274486541748 9.400680541992188 6.930274486541748 8.845654487609863 C 6.930274486541748 8.290628433227539 6.906411647796631 7.744913101196289 6.859784603118896 7.214470386505127 C 6.813158512115479 6.684027671813965 6.743767738342285 6.168857574462891 6.652711391448975 5.67492151260376 C 6.561655044555664 5.180985450744629 6.448933601379395 4.708282947540283 6.315645694732666 4.262775897979736 C 6.182357788085938 3.817268848419189 6.02850341796875 3.398957490921021 5.855180740356445 3.013802289962769 C 5.717577457427979 2.708010673522949 5.569480895996094 2.431177377700806 5.415272235870361 2.187934875488281 C 5.261062622070312 1.944692373275757 5.100741386413574 1.73504102230072 4.938685894012451 1.563613653182983 C 4.776630878448486 1.392186284065247 4.612843036651611 1.25898277759552 4.451702117919922 1.168636083602905 C 4.290561199188232 1.07828950881958 4.132067680358887 1.030799746513367 3.980601072311401 1.030799746513367 C 3.829134464263916 1.030799746513367 3.670640707015991 1.07828950881958 3.509499788284302 1.168636083602905 C 3.348359107971191 1.25898277759552 3.184571266174316 1.392186284065247 3.022516012191772 1.563613653182983 C 2.860460996627808 1.73504102230072 2.700138807296753 1.944692373275757 2.545929908752441 2.187934875488281 C 2.391720771789551 2.431177377700806 2.243624687194824 2.708010673522949 2.106021404266357 3.013802289962769 C 1.932699084281921 3.398957490921021 1.778844475746155 3.817268848419189 1.645556449890137 4.262775897979736 C 1.512268543243408 4.708282947540283 1.399546980857849 5.180985450744629 1.308490872383118 5.67492151260376 C 1.217434883117676 6.168857574462891 1.148043870925903 6.684027671813965 1.101417064666748 7.214470386505127 C 1.054790258407593 7.744913101196289 1.030927419662476 8.290628433227539 1.030927419662476 8.845654487609863 C 1.030927419662476 9.400680541992188 1.054790258407593 9.946396827697754 1.101417064666748 10.47683906555176 C 1.148043870925903 11.00728130340576 1.217434883117676 11.52245140075684 1.308490872383118 12.01638793945312 C 1.399546980857849 12.5103235244751 1.512268543243408 12.98302555084229 1.645556449890137 13.42853260040283 C 1.778844475746155 13.87403964996338 1.932699084281921 14.29235172271729 2.106021404266357 14.6775074005127 C 2.243624687194824 14.98329830169678 2.391720771789551 15.26013278961182 2.545929908752441 15.50337505340576 C 2.700138807296753 15.74661731719971 2.860460996627808 15.95626926422119 3.022516012191772 16.1276969909668 C 3.184571266174316 16.29912376403809 3.348359107971191 16.43232727050781 3.509499788284302 16.52267265319824 C 3.670640707015991 16.61301803588867 3.829134464263916 16.66050910949707 3.980601072311401 16.66050910949707 M 3.980601072311401 17.69143867492676 C 3.430994749069214 17.69143867492676 2.907403945922852 17.44391441345215 2.431171178817749 16.99629211425781 C 1.954938530921936 16.54866981506348 1.526063919067383 15.90095233917236 1.165890097618103 15.10056591033936 C 0.8057163953781128 14.30018043518066 0.514243483543396 13.34712600708008 0.3128139674663544 12.2888298034668 C 0.1113844439387321 11.23053550720215 -1.651411935199576e-06 10.06700134277344 -1.651411935199576e-06 8.845654487609863 C -1.651411935199576e-06 7.624308109283447 0.1113844364881516 6.46077299118042 0.312813937664032 5.402478218078613 C 0.5142434239387512 4.344182968139648 0.8057163953781128 3.391128301620483 1.165890097618103 2.590742349624634 C 1.526063919067383 1.790356159210205 1.954938530921936 1.142638206481934 2.431171178817749 0.6950168013572693 C 2.907403945922852 0.2473954856395721 3.430994749069214 -0.0001292971574002877 3.980601072311401 -0.0001292971574002877 C 4.53020715713501 -0.0001292971574002877 5.053798198699951 0.2473954707384109 5.530030727386475 0.6950168013572693 C 6.006263732910156 1.142638206481934 6.435138702392578 1.790356159210205 6.795312404632568 2.590742588043213 C 7.155486106872559 3.391128778457642 7.446959018707275 4.344182968139648 7.648388385772705 5.402478218078613 C 7.849817752838135 6.46077299118042 7.961203575134277 7.624308109283447 7.961203575134277 8.845654487609863 C 7.961203575134277 10.06700134277344 7.849817752838135 11.23053550720215 7.648388385772705 12.2888298034668 C 7.446959018707275 13.34712600708008 7.155486106872559 14.30018043518066 6.795312404632568 15.10056591033936 C 6.435138702392578 15.90095233917236 6.006263732910156 16.54866981506348 5.530030727386475 16.99629211425781 C 5.053798198699951 17.44391441345215 4.53020715713501 17.69143867492676 3.980601072311401 17.69143867492676 Z" stroke="none" fill="#310a0a"/>
  </g>
  <g id="Ellipse_227" data-name="Ellipse 227" transform="translate(91.511 136.035)" fill="none">
    <path d="M3.981,0A2.326,2.326,0,0,1,5.53.661,5.641,5.641,0,0,1,6.8,2.461a11.623,11.623,0,0,1,.853,2.671A16.744,16.744,0,0,1,7.961,8.4a16.744,16.744,0,0,1-.313,3.271A11.623,11.623,0,0,1,6.8,14.346a5.641,5.641,0,0,1-1.265,1.8,2.326,2.326,0,0,1-1.549.66,2.326,2.326,0,0,1-1.549-.66,5.641,5.641,0,0,1-1.265-1.8,11.623,11.623,0,0,1-.853-2.671A16.744,16.744,0,0,1,0,8.4,16.744,16.744,0,0,1,.313,5.133a11.623,11.623,0,0,1,.853-2.671A5.641,5.641,0,0,1,2.431.661,2.326,2.326,0,0,1,3.981,0Z" stroke="none"/>
    <path d="M 3.980601072311401 15.77618217468262 C 4.136580467224121 15.77618217468262 4.297561645507812 15.73245048522949 4.459969043731689 15.64853954315186 C 4.622376441955566 15.56462860107422 4.786210060119629 15.44053840637207 4.947895050048828 15.27982521057129 C 5.109580039978027 15.11911106109619 5.269116401672363 14.92177104949951 5.422929763793945 14.69135856628418 C 5.576742649078369 14.46094608306885 5.724832057952881 14.19746112823486 5.863624095916748 13.90445899963379 C 6.035583019256592 13.54142951965332 6.188228130340576 13.14705944061279 6.320468902587891 12.72697257995605 C 6.452709674835205 12.306884765625 6.564546585083008 11.86108016967773 6.654888153076172 11.39517879486084 C 6.745229721069336 10.92927837371826 6.814075946807861 10.44328212738037 6.860337257385254 9.942813873291016 C 6.906598567962646 9.442346572875977 6.930274486541748 8.927406311035156 6.930274486541748 8.403616905212402 C 6.930274486541748 7.879827976226807 6.906598567962646 7.364888191223145 6.860337257385254 6.864420413970947 C 6.814075946807861 6.363952159881592 6.745229721069336 5.877956390380859 6.654888153076172 5.412055492401123 C 6.564546585083008 4.946155071258545 6.452709674835205 4.500349521636963 6.320468902587891 4.080261707305908 C 6.188228130340576 3.660174131393433 6.035583019256592 3.265804052352905 5.863624095916748 2.902775526046753 C 5.724832057952881 2.609772682189941 5.576742649078369 2.346288442611694 5.422929763793945 2.115876197814941 C 5.269116401672363 1.885464072227478 5.109580039978027 1.688124060630798 4.947895050048828 1.527409195899963 C 4.786210060119629 1.366694331169128 4.622376441955566 1.242604970932007 4.459969043731689 1.158694267272949 C 4.297561645507812 1.074783563613892 4.136580467224121 1.031051516532898 3.980601072311401 1.031051516532898 C 3.824621677398682 1.031051516532898 3.663640737533569 1.074783563613892 3.501233339309692 1.158694267272949 C 3.338826179504395 1.242604970932007 3.174992561340332 1.366694331169128 3.013307571411133 1.527409195899963 C 2.851622343063354 1.688124060630798 2.692085742950439 1.885464072227478 2.538272619247437 2.115876197814941 C 2.384459495544434 2.346288442611694 2.236369609832764 2.609772682189941 2.097578287124634 2.902775526046753 C 1.9256192445755 3.265804052352905 1.772974133491516 3.660174131393433 1.640733242034912 4.080261707305908 C 1.508492350578308 4.500349521636963 1.396656036376953 4.946155071258545 1.306314468383789 5.412055492401123 C 1.215972900390625 5.877956390380859 1.147126078605652 6.363952159881592 1.100864768028259 6.864420413970947 C 1.054603338241577 7.364888191223145 1.030927419662476 7.879827976226807 1.030927419662476 8.403616905212402 C 1.030927419662476 8.927406311035156 1.054603338241577 9.442346572875977 1.100864768028259 9.942813873291016 C 1.147126078605652 10.44328212738037 1.215972900390625 10.92927837371826 1.306314468383789 11.39517879486084 C 1.396656036376953 11.86108016967773 1.508492350578308 12.306884765625 1.640733242034912 12.72697257995605 C 1.772974133491516 13.14705944061279 1.9256192445755 13.54142951965332 2.097578287124634 13.90445899963379 C 2.236369609832764 14.19746112823486 2.384459495544434 14.46094608306885 2.538272619247437 14.69135856628418 C 2.692085742950439 14.92177104949951 2.851622343063354 15.11911106109619 3.013307571411133 15.27982521057129 C 3.174992561340332 15.44053840637207 3.338826179504395 15.56462860107422 3.501233339309692 15.64853954315186 C 3.663640737533569 15.73245048522949 3.824621677398682 15.77618217468262 3.980601072311401 15.77618217468262 M 3.980601072311401 16.8071117401123 C 3.430994749069214 16.8071117401123 2.907403945922852 16.57196426391602 2.431171178817749 16.1467227935791 C 1.954938530921936 15.72148323059082 1.526063919067383 15.10615062713623 1.165890097618103 14.34578418731689 C 0.8057163953781128 13.58541774749756 0.514243483543396 12.68001556396484 0.3128139674663544 11.674635887146 C 0.1113844439387321 10.66925525665283 -1.651411935199576e-06 9.563897132873535 -1.651411935199576e-06 8.403616905212402 C -1.651411935199576e-06 7.243337154388428 0.1113844364881516 6.137979030609131 0.312813937664032 5.132599353790283 C 0.5142434239387512 4.127219200134277 0.8057163953781128 3.221817016601562 1.165890097618103 2.461450099945068 C 1.526063919067383 1.701083183288574 1.954938530921936 1.085751414299011 2.431171178817749 0.6605111956596375 C 2.907403945922852 0.2352709621191025 3.430994749069214 0.0001224687584908679 3.980601072311401 0.0001224687584908679 C 4.53020715713501 0.0001224687584908679 5.053798198699951 0.2352709621191025 5.530030727386475 0.6605111360549927 C 6.006263732910156 1.085751295089722 6.435138702392578 1.701083183288574 6.795312404632568 2.461450099945068 C 7.155486106872559 3.221817016601562 7.446959018707275 4.127218723297119 7.648388385772705 5.132598876953125 C 7.849817752838135 6.137979030609131 7.961203575134277 7.243337154388428 7.961203575134277 8.403616905212402 C 7.961203575134277 9.563897132873535 7.849817752838135 10.66925525665283 7.648388385772705 11.674635887146 C 7.446959018707275 12.68001556396484 7.155486106872559 13.58541774749756 6.795312404632568 14.34578418731689 C 6.435138702392578 15.10615062713623 6.006263732910156 15.72148323059082 5.530030727386475 16.1467227935791 C 5.053798198699951 16.57196426391602 4.53020715713501 16.8071117401123 3.980601072311401 16.8071117401123 Z" stroke="none" fill="#310a0a"/>
  </g>
  <g id="Ellipse_222" data-name="Ellipse 222" transform="translate(91.357 75.884)" fill="none">
    <path d="M3.1,0A1.616,1.616,0,0,1,4.3.7a6.257,6.257,0,0,1,.984,1.9A15.489,15.489,0,0,1,5.949,5.4a23.678,23.678,0,0,1,.243,3.443,23.678,23.678,0,0,1-.243,3.443A15.489,15.489,0,0,1,5.285,15.1,6.257,6.257,0,0,1,4.3,17a1.616,1.616,0,0,1-1.205.7A1.616,1.616,0,0,1,1.891,17a6.257,6.257,0,0,1-.984-1.9,15.489,15.489,0,0,1-.664-2.812A23.678,23.678,0,0,1,0,8.846,23.678,23.678,0,0,1,.243,5.4,15.489,15.489,0,0,1,.907,2.591,6.257,6.257,0,0,1,1.891.7,1.616,1.616,0,0,1,3.1,0Z" stroke="none"/>
    <path d="M 3.096023082733154 16.66063499450684 C 3.123353004455566 16.66063499450684 3.178852558135986 16.63949966430664 3.255272388458252 16.58338165283203 C 3.331692457199097 16.52726745605469 3.429033041000366 16.43617057800293 3.540045499801636 16.29625129699707 C 3.651057958602905 16.15633392333984 3.775742292404175 15.9675931930542 3.906849384307861 15.7161865234375 C 4.037956237792969 15.4647798538208 4.175486087799072 15.15070819854736 4.31218957901001 14.76012802124023 C 4.449050426483154 14.36909961700439 4.570538997650146 13.94455146789551 4.675787448883057 13.49252986907959 C 4.781036376953125 13.04050922393799 4.870044708251953 12.56101512908936 4.941945552825928 12.06009197235107 C 5.013846397399902 11.55916881561279 5.068639755249023 11.0368185043335 5.105457305908203 10.49908447265625 C 5.142275810241699 9.961350440979004 5.161118507385254 9.408234596252441 5.161118507385254 8.845780372619629 C 5.161118507385254 8.283326148986816 5.142275810241699 7.730209827423096 5.105457305908203 7.19247579574585 C 5.068639755249023 6.654742240905762 5.013846397399902 6.132390975952148 4.941945552825928 5.631468296051025 C 4.870044708251953 5.130546092987061 4.781036376953125 4.65105152130127 4.675787448883057 4.199030876159668 C 4.570538997650146 3.747009515762329 4.449050426483154 3.322461843490601 4.31218957901001 2.931432962417603 C 4.175486087799072 2.540852546691895 4.037956237792969 2.226780652999878 3.906849384307861 1.975374341011047 C 3.775742292404175 1.723968029022217 3.651057958602905 1.535227179527283 3.540045499801636 1.39530885219574 C 3.429033041000366 1.255390524864197 3.331692457199097 1.164294719696045 3.255272388458252 1.108178496360779 C 3.178852558135986 1.052062392234802 3.123353004455566 1.030925631523132 3.096023082733154 1.030925631523132 C 3.068693161010742 1.030925631523132 3.013193607330322 1.052062392234802 2.936773777008057 1.108178496360779 C 2.860353708267212 1.164294719696045 2.763013124465942 1.255390524864197 2.652000665664673 1.39530885219574 C 2.540988206863403 1.535227179527283 2.416304111480713 1.723968029022217 2.285197257995605 1.975374341011047 C 2.154090404510498 2.226780652999878 2.016560554504395 2.540852546691895 1.879856705665588 2.931432962417603 C 1.742995858192444 3.322461843490601 1.621507287025452 3.747009515762329 1.516258716583252 4.199030876159668 C 1.411010146141052 4.65105152130127 1.322001695632935 5.130546092987061 1.25010085105896 5.631468296051025 C 1.178199887275696 6.132390975952148 1.123406767845154 6.654742240905762 1.086588740348816 7.19247579574585 C 1.049770712852478 7.730209827423096 1.030927896499634 8.283326148986816 1.030927896499634 8.845780372619629 C 1.030927896499634 9.408234596252441 1.049770712852478 9.961350440979004 1.086588740348816 10.49908447265625 C 1.123406767845154 11.0368185043335 1.178199887275696 11.55916881561279 1.25010085105896 12.06009197235107 C 1.322001695632935 12.56101512908936 1.411010146141052 13.04050922393799 1.516258716583252 13.49252986907959 C 1.621507287025452 13.94455146789551 1.742995858192444 14.36909961700439 1.879856705665588 14.76012802124023 C 2.016560554504395 15.15070819854736 2.154090404510498 15.4647798538208 2.285197257995605 15.7161865234375 C 2.416304111480713 15.9675931930542 2.540988206863403 16.15633392333984 2.652000665664673 16.29625129699707 C 2.763013124465942 16.43617057800293 2.860353708267212 16.52726745605469 2.936773777008057 16.58338165283203 C 3.013193607330322 16.63949966430664 3.068693161010742 16.66063499450684 3.096023082733154 16.66063499450684 M 3.096023082733154 17.69156455993652 C 2.668551206588745 17.69156455993652 2.261313438415527 17.44404029846191 1.890910148620605 16.99641799926758 C 1.520506739616394 16.54879570007324 1.186937689781189 15.90107822418213 0.906802773475647 15.10069179534912 C 0.6266677379608154 14.30030632019043 0.399966686964035 13.34725189208984 0.2432994693517685 12.28895568847656 C 0.08663222938776016 11.23066139221191 -1.257121311937226e-06 10.0671272277832 -1.257121311937226e-06 8.845780372619629 C -1.257121311937226e-06 7.624433994293213 0.08663222193717957 6.460898876190186 0.2432994544506073 5.402604103088379 C 0.399966686964035 4.344308853149414 0.6266676783561707 3.391254186630249 0.9068026542663574 2.59086799621582 C 1.186937570571899 1.790481925010681 1.520506739616394 1.14276397228241 1.890910148620605 0.6951426863670349 C 2.261313438415527 0.2475213408470154 2.668551206588745 -3.451322072578478e-06 3.096023082733154 -3.451322072578478e-06 C 3.523495197296143 -3.451322072578478e-06 3.930732727050781 0.2475213259458542 4.301136016845703 0.6951426863670349 C 4.671538829803467 1.14276397228241 5.00510835647583 1.790481925010681 5.285243511199951 2.590868473052979 C 5.565378665924072 3.391254425048828 5.792079448699951 4.344308853149414 5.948747158050537 5.402604103088379 C 6.105414390563965 6.460898876190186 6.192047595977783 7.624433994293213 6.192047595977783 8.845780372619629 C 6.192047595977783 10.0671272277832 6.105414390563965 11.23066139221191 5.948747158050537 12.28895568847656 C 5.792079448699951 13.34725189208984 5.565378665924072 14.30030632019043 5.285243511199951 15.10069179534912 C 5.00510835647583 15.90107822418213 4.671538829803467 16.54879570007324 4.301136016845703 16.99641799926758 C 3.930732727050781 17.44404029846191 3.523495197296143 17.69156455993652 3.096023082733154 17.69156455993652 Z" stroke="none" fill="#310a0a"/>
  </g>
  <g id="Ellipse_225" data-name="Ellipse 225" transform="translate(91.357 112.152)" fill="none">
    <path d="M3.1,0A1.637,1.637,0,0,1,4.3.66a5.848,5.848,0,0,1,.984,1.8,14.1,14.1,0,0,1,.664,2.671A21.39,21.39,0,0,1,6.192,8.4a21.39,21.39,0,0,1-.243,3.271,14.1,14.1,0,0,1-.664,2.671,5.848,5.848,0,0,1-.984,1.8,1.637,1.637,0,0,1-1.205.66,1.637,1.637,0,0,1-1.205-.66,5.848,5.848,0,0,1-.984-1.8,14.1,14.1,0,0,1-.664-2.671A21.39,21.39,0,0,1,0,8.4,21.39,21.39,0,0,1,.243,5.132,14.1,14.1,0,0,1,.907,2.461,5.848,5.848,0,0,1,1.891.66,1.637,1.637,0,0,1,3.1,0Z" stroke="none"/>
    <path d="M 3.096023082733154 15.77593040466309 C 3.141992330551147 15.77593040466309 3.210256576538086 15.74863338470459 3.294566869735718 15.6865930557251 C 3.378877401351929 15.62455272674561 3.479233741760254 15.52777099609375 3.589387178421021 15.38879871368408 C 3.699540615081787 15.24982738494873 3.819491147994995 15.06866645812988 3.942989587783813 14.83787059783936 C 4.066488265991211 14.60707569122314 4.193534851074219 14.32664585113525 4.317880153656006 13.98913478851318 C 4.453823566436768 13.62014770507812 4.574498176574707 13.21942234039307 4.679040908813477 12.79267311096191 C 4.783584117889404 12.36592292785645 4.871996402740479 11.91314506530762 4.94341516494751 11.44005107879639 C 5.014833450317383 10.96695709228516 5.069259643554688 10.47354602813721 5.105831146240234 9.965529441833496 C 5.142402172088623 9.457510948181152 5.161118507385254 8.934886932373047 5.161118507385254 8.403365135192871 C 5.161118507385254 7.871844291687012 5.142402172088623 7.349219799041748 5.105831146240234 6.841202259063721 C 5.069259643554688 6.333184719085693 5.014833450317383 5.839773654937744 4.94341516494751 5.366680145263672 C 4.871996402740479 4.893586158752441 4.783584117889404 4.44080924987793 4.679040908813477 4.014058589935303 C 4.574498176574707 3.587307691574097 4.453823566436768 3.186583518981934 4.317880153656006 2.817595958709717 C 4.193534851074219 2.480085134506226 4.066488265991211 2.199655055999756 3.942989587783813 1.968859553337097 C 3.819491147994995 1.738064169883728 3.699540615081787 1.556903600692749 3.589387178421021 1.417931795120239 C 3.479233741760254 1.27895987033844 3.378877401351929 1.182176947593689 3.294566869735718 1.120136976242065 C 3.210256576538086 1.058096885681152 3.141992330551147 1.030799865722656 3.096023082733154 1.030799865722656 C 3.05005407333374 1.030799865722656 2.981789827346802 1.058096885681152 2.89747953414917 1.120136976242065 C 2.81316876411438 1.182176947593689 2.712812423706055 1.27895987033844 2.602658987045288 1.417931795120239 C 2.492505550384521 1.556903600692749 2.372555017471313 1.738064169883728 2.249056577682495 1.968859553337097 C 2.125558137893677 2.199655055999756 1.998511552810669 2.480085134506226 1.874166011810303 2.817595958709717 C 1.738222479820251 3.186583518981934 1.61754834651947 3.587307691574097 1.513005375862122 4.014058589935303 C 1.408462405204773 4.44080924987793 1.320050716400146 4.893586158752441 1.248631834983826 5.366680145263672 C 1.177212834358215 5.839773654937744 1.12278687953949 6.333184719085693 1.086215615272522 6.841202259063721 C 1.049644351005554 7.349219799041748 1.030927896499634 7.871844291687012 1.030927896499634 8.403365135192871 C 1.030927896499634 8.934886932373047 1.049644351005554 9.457510948181152 1.086215615272522 9.965529441833496 C 1.12278687953949 10.47354602813721 1.177212834358215 10.96695709228516 1.248631834983826 11.44005107879639 C 1.320050716400146 11.91314506530762 1.408462405204773 12.36592292785645 1.513005375862122 12.79267311096191 C 1.61754834651947 13.21942234039307 1.738222479820251 13.62014770507812 1.874166011810303 13.98913478851318 C 1.998511552810669 14.32664585113525 2.125558137893677 14.60707569122314 2.249056577682495 14.83787059783936 C 2.372555017471313 15.06866645812988 2.492505550384521 15.24982738494873 2.602658987045288 15.38879871368408 C 2.712812423706055 15.52777099609375 2.81316876411438 15.62455272674561 2.89747953414917 15.6865930557251 C 2.981789827346802 15.74863338470459 3.05005407333374 15.77593040466309 3.096023082733154 15.77593040466309 M 3.096023082733154 16.80685997009277 C 2.668551206588745 16.80685997009277 2.261313438415527 16.57171249389648 1.890910148620605 16.14647102355957 C 1.520506739616394 15.72123146057129 1.186937689781189 15.1058988571167 0.906802773475647 14.34553241729736 C 0.6266677379608154 13.58516597747803 0.399966686964035 12.67976474761963 0.2432994693517685 11.67438411712646 C 0.08663222938776016 10.6690034866333 -1.257121311937226e-06 9.563645362854004 -1.257121311937226e-06 8.403365135192871 C -1.257121311937226e-06 7.243085384368896 0.08663222193717957 6.137727737426758 0.2432994544506073 5.132347583770752 C 0.399966686964035 4.126967906951904 0.6266676783561707 3.22156548500061 0.9068026542663574 2.461198568344116 C 1.186937570571899 1.700831532478333 1.520506739616394 1.08549976348877 1.890910148620605 0.6602595448493958 C 2.261313438415527 0.2350192666053772 2.668551206588745 -0.0001292228989768773 3.096023082733154 -0.0001292228989768773 C 3.523495197296143 -0.0001292228989768773 3.930732727050781 0.2350192666053772 4.301136016845703 0.660259485244751 C 4.671538829803467 1.08549964427948 5.00510835647583 1.700831532478333 5.285243511199951 2.461198568344116 C 5.565378665924072 3.22156548500061 5.792079448699951 4.126967430114746 5.948747158050537 5.132347106933594 C 6.105414390563965 6.137727737426758 6.192047595977783 7.243085384368896 6.192047595977783 8.403365135192871 C 6.192047595977783 9.563645362854004 6.105414390563965 10.6690034866333 5.948747158050537 11.67438411712646 C 5.792079448699951 12.67976474761963 5.565378665924072 13.58516597747803 5.285243511199951 14.34553241729736 C 5.00510835647583 15.1058988571167 4.671538829803467 15.72123146057129 4.301136016845703 16.14647102355957 C 3.930732727050781 16.57171249389648 3.523495197296143 16.80685997009277 3.096023082733154 16.80685997009277 Z" stroke="none" fill="#310a0a"/>
  </g>
</svg>
