<svg xmlns="http://www.w3.org/2000/svg" width="60.147" height="23.234" viewBox="0 0 60.147 23.234"><defs><style>.a{fill:#bf8b67;}.b{fill:none;}.c,.d{stroke:none;}.d{fill:#66442e;}</style></defs><path d="M.252,3.031V1.051H.493v1.98Zm1.88-.876q.182.262.36.539H2.5Q2.48,2.405,2.48,2.1V1.051h.243v1.98H2.482L1.7,1.927q-.2-.289-.36-.539H1.336q.019.271.019.632V3.031H1.114V1.051h.24Zm2.229,0q.182.262.36.539h.009q-.019-.289-.019-.589V1.051h.243v1.98H4.711l-.777-1.1q-.2-.289-.36-.539H3.565q.019.271.019.632V3.031H3.343V1.051h.24ZM7.1,2.043q0-.2-.052-.352t-.144-.255q-.092-.1-.217-.155T6.42,1.229q-.144,0-.269.053t-.217.155q-.092.1-.144.255t-.052.352q0,.2.053.352t.145.254q.092.1.217.154t.27.052q.144,0,.267-.052t.215-.154q.092-.1.144-.254T7.1,2.043Zm.24,0q0,.225-.065.413t-.185.324q-.12.136-.29.212t-.38.076q-.217,0-.389-.076T5.743,2.78q-.119-.136-.182-.324T5.5,2.043q0-.226.065-.415T5.748,1.3q.12-.136.29-.212t.382-.076q.216,0,.387.076T7.1,1.3q.119.136.182.325T7.342,2.043Zm1.2.681q.107-.324.231-.654l.38-1.018H9.4l-.751,1.98H8.434l-.751-1.98h.241L8.3,2.069q.125.33.233.654Zm.928.308.807-1.98h.209l.807,1.98H11.03l-.236-.6H9.966l-.236.6Zm.909-1.673q-.133.37-.253.672l-.074.186h.656l-.075-.186q-.122-.308-.248-.672Zm1.883,1.673H12.02V1.268h-.662V1.051h1.564v.218h-.662Zm1.332-.218h1.015v.218H13.352V1.051h1.2v.218h-.961v.639h.854v.218h-.854Zm2.776.218h-.241V1.268h-.662V1.051h1.564v.218H16.37ZM17.7,1.908h1.038V1.051h.241v1.98h-.241V2.125H17.7v.906h-.241V1.051H17.7Zm2.142.906h1.015v.218H19.6V1.051h1.2v.218h-.961v.639H20.7v.218h-.854Zm2.392-1.239q0,.087.035.144t.1.094q.06.037.139.061t.165.044q.115.028.227.062t.2.094q.087.06.141.156t.054.247q0,.154-.058.266t-.161.184q-.1.072-.244.107t-.308.035q-.077,0-.158-.01t-.154-.026q-.073-.016-.132-.037t-.093-.041V2.734q.053.027.12.049t.138.038q.071.016.144.024t.136.009q.1,0,.2-.018t.165-.059q.071-.041.112-.113t.041-.18q0-.089-.036-.147t-.1-.1q-.061-.038-.14-.061t-.167-.044q-.115-.027-.226-.06t-.2-.093q-.087-.059-.139-.152t-.053-.238q0-.151.055-.26t.149-.18q.094-.071.217-.105t.262-.034q.158,0,.3.03t.251.079v.223q-.123-.052-.254-.084t-.28-.034q-.112,0-.2.024t-.138.07q-.055.045-.081.11T22.235,1.575ZM24.6,2.854q.108,0,.192-.025t.146-.071q.062-.046.1-.11T25.1,2.5q.015-.049.021-.109t.006-.116V1.051h.241V2.273q0,.07-.007.145t-.024.141q-.028.11-.084.2t-.147.161q-.09.068-.217.107t-.3.038q-.163,0-.286-.036t-.211-.1q-.088-.063-.144-.149T23.867,2.6q-.022-.074-.032-.158t-.01-.164V1.051h.241V2.279q0,.067.01.137t.03.128q.052.144.172.226T24.6,2.854Zm2.344-1.625q-.166,0-.311.053t-.251.157q-.106.1-.168.259t-.061.36q0,.2.057.354t.162.249q.1.1.252.146t.329.047q.049,0,.1-.005t.112-.015q.056-.01.109-.022t.1-.027V3q-.087.034-.2.053t-.237.019q-.247,0-.438-.069t-.32-.2q-.13-.129-.2-.315t-.067-.421q0-.231.07-.425t.2-.333q.132-.139.321-.217t.424-.078q.062,0,.123.005t.116.015q.056.01.1.023t.081.028V1.3q-.09-.03-.2-.05T26.942,1.229Zm1.875,0q-.166,0-.311.053t-.251.157q-.106.1-.168.259t-.061.36q0,.2.057.354t.162.249q.1.1.252.146t.329.047q.049,0,.1-.005t.112-.015q.056-.01.109-.022t.1-.027V3q-.087.034-.2.053t-.237.019q-.247,0-.438-.069t-.32-.2q-.13-.129-.2-.315t-.067-.421q0-.231.07-.425t.2-.333q.132-.139.321-.217t.424-.078q.062,0,.123.005t.116.015q.056.01.1.023t.081.028V1.3q-.09-.03-.2-.05T28.817,1.229Zm1.189,1.585h1.015v.218H29.765V1.051h1.2v.218h-.961v.639h.854v.218h-.854Zm1.74-1.239q0,.087.035.144t.1.094q.06.037.139.061t.165.044q.115.028.227.062t.2.094q.087.06.141.156t.054.247q0,.154-.058.266t-.161.184q-.1.072-.244.107t-.308.035q-.077,0-.158-.01t-.154-.026q-.073-.016-.132-.037t-.093-.041V2.734q.053.027.12.049t.138.038q.071.016.144.024t.136.009q.1,0,.2-.018t.165-.059q.071-.041.112-.113t.041-.18q0-.089-.036-.147t-.1-.1q-.061-.038-.14-.061t-.167-.044q-.115-.027-.226-.06t-.2-.093q-.087-.059-.139-.152t-.053-.238q0-.151.055-.26t.149-.18q.094-.071.217-.105t.262-.034q.158,0,.3.03t.251.079v.223q-.123-.052-.254-.084t-.28-.034q-.112,0-.2.024t-.138.07q-.055.045-.081.11T31.747,1.575Zm1.791,0q0,.087.035.144t.1.094q.06.037.139.061t.165.044q.115.028.227.062t.2.094q.087.06.141.156t.054.247q0,.154-.058.266t-.161.184q-.1.072-.244.107t-.308.035q-.077,0-.158-.01t-.154-.026q-.073-.016-.132-.037t-.093-.041V2.734q.053.027.12.049t.138.038q.071.016.144.024t.136.009q.1,0,.2-.018t.165-.059q.071-.041.112-.113t.041-.18q0-.089-.036-.147t-.1-.1q-.061-.038-.14-.061T33.9,2.136q-.115-.027-.226-.06t-.2-.093q-.087-.059-.139-.152t-.053-.238q0-.151.055-.26t.149-.18q.094-.071.217-.105t.262-.034q.158,0,.3.03t.251.079v.223q-.123-.052-.254-.084t-.28-.034q-.112,0-.2.024t-.138.07q-.055.045-.081.11T33.538,1.575Z" transform="translate(17.058 12.47)"/><path class="a" d="M.631,15.588s-.115-.325-.247-.862a13.486,13.486,0,0,1-.348-2.132A9.665,9.665,0,0,1,.18,9.871,6,6,0,0,1,1.407,7.234,7.51,7.51,0,0,1,4.182,5.346c1.139-.507,2.438-.931,3.731-1.383a23.714,23.714,0,0,0,3.694-1.556A6.886,6.886,0,0,0,14.272,0a1.724,1.724,0,0,1,.35.38,5.074,5.074,0,0,1,.669,1.2A6.109,6.109,0,0,1,15.706,3.6a8.174,8.174,0,0,1-.414,2.81A4.707,4.707,0,0,1,13.1,8.846a19.52,19.52,0,0,1-3.781,1.666c-1.375.475-2.789.893-4.017,1.328a9.671,9.671,0,0,0-2.9,1.423c-.02.016-.082.076-.164.159s-.186.19-.289.3-.207.224-.291.322a1.574,1.574,0,0,0-.17.222s-.058.085-.139.21l-.3.454-.293.453Z" transform="translate(0)"/><path d="M1.669,13.977s-.141-.312-.311-.818A11.9,11.9,0,0,1,.87,11.171,7.334,7.334,0,0,1,.877,8.714,4.06,4.06,0,0,1,2.048,6.488s.049-.061.16-.172a4.189,4.189,0,0,1,.525-.44,6.1,6.1,0,0,1,.958-.556A8.412,8.412,0,0,1,5.152,4.8C6.309,4.47,7.278,4.156,8.1,3.86s1.483-.574,2.031-.832a13.545,13.545,0,0,0,1.33-.711c.35-.215.619-.407.841-.574,0-.009-.006.176-.041.5s-.1.8-.213,1.366a16.762,16.762,0,0,1-.5,1.926,14.283,14.283,0,0,1-.913,2.183,3.318,3.318,0,0,1-.906,1.069,5.768,5.768,0,0,1-1.27.734,15.193,15.193,0,0,1-1.484.539c-.514.163-1.038.317-1.547.485a8.863,8.863,0,0,0-1.979,1.115,5.99,5.99,0,0,0-1.135,1.114,4.18,4.18,0,0,0-.516.856A2.05,2.05,0,0,0,1.669,13.977Z" transform="translate(0 7.794)"/><g class="b" transform="translate(17.772 11.25)"><path class="c" d="M0,.505H42.375"/><path class="d" d="M 42.37457656860352 1.01043164730072 L 3.580051043172716e-06 1.01043164730072 L 3.580051043172716e-06 0 L 42.37457656860352 0 L 42.37457656860352 1.01043164730072 Z"/></g><path d="M4.884,6.063H4.39V3.215q0-.337.041-.826H4.42q-.071.287-.127.411L2.842,6.063H2.6L1.152,2.824q-.062-.142-.127-.435H1.012q.024.255.024.832V6.063H.557V1.818h.657l1.3,2.96q.151.34.2.509h.018q.127-.349.2-.521L4.263,1.818h.622Zm5.063,0H9.4l-.45-1.19h-1.8l-.423,1.19H6.17L7.8,1.818h.515ZM8.784,4.426,8.118,2.617q-.033-.089-.065-.284H8.041q-.03.181-.068.284l-.66,1.809Zm5.622,1.347q-.639.361-1.421.361-.909,0-1.47-.586T10.954,4q0-.986.623-1.618t1.579-.632q.693,0,1.163.225v.551Q13.805,2.2,13.1,2.2t-1.169.491q-.456.491-.456,1.273,0,.805.423,1.266t1.149.46q.5,0,.861-.2V4.3h-.93v-.45h1.427Zm5.069.29h-.61L16.68,2.679q-.083-.127-.136-.266h-.018q.024.136.024.583V6.063h-.5V1.818H16.7l2.125,3.33q.133.207.172.284h.012q-.03-.184-.03-.625V1.818h.5Zm3.485.071q-.9,0-1.446-.6T20.97,3.99q0-1.024.554-1.634t1.507-.61q.879,0,1.416.592t.537,1.548q0,1.039-.551,1.643T22.959,6.134ZM23,2.2q-.669,0-1.086.483t-.417,1.267q0,.784.407,1.263t1.061.478q.7,0,1.1-.456t.4-1.276q0-.841-.391-1.3T23,2.2Zm6.641-.379L28.064,6.063h-.548L25.977,1.818h.554l1.175,3.366q.056.163.086.376H27.8q.024-.178.1-.382l1.2-3.36Zm4.557,4.245h-.551l-.45-1.19h-1.8l-.423,1.19h-.554l1.628-4.245h.515ZM33.029,4.426l-.666-1.809q-.033-.089-.065-.284h-.012q-.03.181-.068.284l-.66,1.809Z" transform="translate(18.01 1.043)"/></svg>