<svg xmlns="http://www.w3.org/2000/svg" width="128.827" height="48.799" viewBox="0 0 128.827 48.799"><defs><style>.a,.b,.e{fill:#50f8ff;}.a{font-size:8px;font-family:Corbel;letter-spacing:0.039em;}.c{fill:#ff6584;}.d{fill:none;stroke:#ff6584;}.e{font-size:16px;font-family:Ebrima;letter-spacing:0.109em;}</style></defs><g transform="translate(-87.173 -48.81)"><text class="a" transform="translate(123 83)"><tspan x="0" y="0">INNOVATE THE SUCCESS</tspan></text><path class="b" d="M151.5,25.55S147.622,14.632,153.128,8s21.923-6.628,27.021-15.193c0-.1,5,4.487,2.141,13.46-2.644,8.309-21.778,9.87-27.065,14.395a19.031,19.031,0,0,0-1.921,2.106C153.283,22.787,151.5,25.55,151.5,25.55Z" transform="translate(-63 56)"/><path class="c" d="M155.7,20.2s-6.485-9.49-1.947-15.629c.006.035,1.238-2.533,5.8-4.627,9.093-4.407,12.072-7.222,13.668-8.925A33.287,33.287,0,0,1,171.954,4c-1.231,3.869-5.771,5.61-9.739,7.746C155.887,15.788,155.7,20.2,155.7,20.2Z" transform="matrix(0.985, 0.174, -0.174, 0.985, -59.153, 47.604)"/><line class="d" x2="89" transform="translate(124.5 73.5)"/><text class="e" transform="translate(125 68)"><tspan x="0" y="0">MAGNOVA</tspan></text></g></svg>