<svg id="NOTEBOOK" xmlns="http://www.w3.org/2000/svg" width="258.998" height="333.772" viewBox="0 0 258.998 333.772">
  <path id="Path_1643" data-name="Path 1643" d="M463.16,220.586H223.126V554.358H463.16a3.251,3.251,0,0,0,3.251-3.251V223.837a3.251,3.251,0,0,0-3.251-3.251ZM236.672,545.147a5.96,5.96,0,1,1,5.96-5.96,5.96,5.96,0,0,1-5.96,5.96Zm0-30.343a5.96,5.96,0,1,1,5.96-5.96,5.96,5.96,0,0,1-5.96,5.96Zm0-30.343a5.96,5.96,0,1,1,5.96-5.96,5.96,5.96,0,0,1-5.96,5.96Zm0-30.343a5.96,5.96,0,1,1,5.96-5.96,5.96,5.96,0,0,1-5.96,5.96Zm0-30.343a5.96,5.96,0,1,1,5.96-5.96,5.96,5.96,0,0,1-5.96,5.96Zm0-30.343a5.96,5.96,0,1,1,5.96-5.96,5.96,5.96,0,0,1-5.96,5.96Zm0-30.343a5.96,5.96,0,1,1,5.96-5.96,5.96,5.96,0,0,1-5.96,5.96Zm0-30.343a5.96,5.96,0,1,1,5.96-5.96,5.96,5.96,0,0,1-5.96,5.96Zm0-30.343a5.96,5.96,0,1,1,5.96-5.96,5.96,5.96,0,0,1-5.96,5.96Zm0-30.343a5.96,5.96,0,1,1,5.96-5.96,5.96,5.96,0,0,1-5.96,5.96Zm0-30.343a5.96,5.96,0,1,1,5.96-5.96,5.96,5.96,0,0,1-5.96,5.96Z" transform="translate(-207.413 -220.586)" fill="#4a4947"/>
  <path id="Path_1644" data-name="Path 1644" d="M218.6,242.758c-1.608,0-15.713-.076-15.713-2.709s14.1-2.709,15.713-2.709v1.084c-8.308,0-13.695.93-14.562,1.626.868.7,6.254,1.626,14.562,1.626,8.289,0,13.67-.926,14.556-1.621-.421-.3-2.143-.921-6.761-1.321l.093-1.079c7.825.676,7.825,1.925,7.825,2.4C234.309,242.682,220.2,242.758,218.6,242.758Z" transform="translate(-202.882 -224.335)" fill="#2f2e41"/>
  <path id="Path_1645" data-name="Path 1645" d="M218.6,281.15c-1.608,0-15.713-.076-15.713-2.709s14.1-2.709,15.713-2.709v1.084c-8.308,0-13.695.93-14.562,1.626.868.7,6.254,1.625,14.562,1.625,8.289,0,13.67-.926,14.556-1.621-.421-.3-2.143-.921-6.761-1.321l.093-1.079c7.825.676,7.825,1.925,7.825,2.4C234.309,281.075,220.2,281.15,218.6,281.15Z" transform="translate(-202.882 -232.927)" fill="#2f2e41"/>
  <path id="Path_1646" data-name="Path 1646" d="M218.6,320.241c-1.608,0-15.713-.076-15.713-2.709s14.1-2.709,15.713-2.709v1.084c-8.308,0-13.695.93-14.562,1.626.868.7,6.254,1.625,14.562,1.625,8.289,0,13.67-.926,14.556-1.621-.421-.3-2.143-.922-6.761-1.321l.093-1.079c7.825.676,7.825,1.925,7.825,2.4C234.309,320.165,220.2,320.241,218.6,320.241Z" transform="translate(-202.882 -241.675)" fill="#2f2e41"/>
  <path id="Path_1647" data-name="Path 1647" d="M218.6,359.332c-1.608,0-15.713-.076-15.713-2.709s14.1-2.709,15.713-2.709V355c-8.308,0-13.695.93-14.562,1.625.868.7,6.254,1.625,14.562,1.625,8.289,0,13.67-.926,14.556-1.621-.421-.3-2.143-.921-6.761-1.321l.093-1.079c7.825.676,7.825,1.925,7.825,2.4C234.309,359.256,220.2,359.332,218.6,359.332Z" transform="translate(-202.882 -250.423)" fill="#2f2e41"/>
  <path id="Path_1648" data-name="Path 1648" d="M218.6,398.423c-1.608,0-15.713-.076-15.713-2.709S216.987,393,218.6,393v1.084c-8.308,0-13.695.93-14.562,1.625.868.7,6.254,1.626,14.562,1.626,8.289,0,13.67-.926,14.556-1.621-.421-.3-2.143-.921-6.761-1.321l.093-1.079c7.825.676,7.825,1.925,7.825,2.4C234.309,398.347,220.2,398.423,218.6,398.423Z" transform="translate(-202.882 -259.171)" fill="#2f2e41"/>
  <path id="Path_1649" data-name="Path 1649" d="M218.6,437.514c-1.608,0-15.713-.076-15.713-2.709s14.1-2.709,15.713-2.709v1.084c-8.308,0-13.695.93-14.562,1.625.868.7,6.254,1.626,14.562,1.626,8.289,0,13.67-.926,14.556-1.621-.421-.3-2.143-.921-6.761-1.321l.093-1.079c7.825.676,7.825,1.925,7.825,2.4C234.309,437.438,220.2,437.514,218.6,437.514Z" transform="translate(-202.882 -267.919)" fill="#2f2e41"/>
  <path id="Path_1650" data-name="Path 1650" d="M218.6,476.6c-1.608,0-15.713-.076-15.713-2.709s14.1-2.709,15.713-2.709v1.084c-8.308,0-13.695.93-14.562,1.625.868.7,6.254,1.626,14.562,1.626,8.289,0,13.67-.926,14.556-1.621-.421-.3-2.143-.922-6.761-1.321l.093-1.079c7.825.676,7.825,1.925,7.825,2.4C234.309,476.529,220.2,476.6,218.6,476.6Z" transform="translate(-202.882 -276.667)" fill="#2f2e41"/>
  <path id="Path_1651" data-name="Path 1651" d="M218.6,515.7c-1.608,0-15.713-.076-15.713-2.709s14.1-2.709,15.713-2.709v1.084c-8.308,0-13.695.93-14.562,1.626.868.7,6.254,1.625,14.562,1.625,8.289,0,13.67-.926,14.556-1.621-.421-.3-2.143-.921-6.761-1.321l.093-1.079c7.825.676,7.825,1.925,7.825,2.4C234.309,515.62,220.2,515.7,218.6,515.7Z" transform="translate(-202.882 -285.415)" fill="#2f2e41"/>
  <path id="Path_1652" data-name="Path 1652" d="M218.6,554.787c-1.608,0-15.713-.076-15.713-2.709s14.1-2.709,15.713-2.709v1.084c-8.308,0-13.695.93-14.562,1.625.868.7,6.254,1.626,14.562,1.626,8.289,0,13.67-.926,14.556-1.621-.421-.3-2.143-.921-6.761-1.321l.093-1.079c7.825.676,7.825,1.925,7.825,2.4C234.309,554.711,220.2,554.787,218.6,554.787Z" transform="translate(-202.882 -294.163)" fill="#2f2e41"/>
  <path id="Path_1653" data-name="Path 1653" d="M218.6,593.878c-1.608,0-15.713-.076-15.713-2.709s14.1-2.709,15.713-2.709v1.084c-8.308,0-13.695.93-14.562,1.625.868.7,6.254,1.626,14.562,1.626,8.289,0,13.67-.926,14.556-1.621-.421-.3-2.143-.921-6.761-1.321l.093-1.079c7.825.676,7.825,1.925,7.825,2.4C234.309,593.8,220.2,593.878,218.6,593.878Z" transform="translate(-202.882 -302.911)" fill="#2f2e41"/>
  <path id="Path_1654" data-name="Path 1654" d="M218.6,632.969c-1.608,0-15.713-.076-15.713-2.709s14.1-2.709,15.713-2.709v1.084c-8.308,0-13.695.93-14.562,1.626.868.7,6.254,1.625,14.562,1.625,8.289,0,13.67-.926,14.556-1.621-.421-.3-2.143-.921-6.761-1.321l.093-1.079c7.825.676,7.825,1.925,7.825,2.4C234.309,632.893,220.2,632.969,218.6,632.969Z" transform="translate(-202.882 -311.659)" fill="#2f2e41"/>
  <text id="CERIFICATE" transform="translate(230.581 177.987) rotate(90)" fill="#25ffff" font-size="26" font-family="NunitoSans-Bold, Nunito Sans" font-weight="700"><tspan x="0" y="0">CERIFICATE</tspan></text>
  <text id="DEMO" transform="translate(209.213 267.817) rotate(90)" fill="#fff" font-size="19" font-family="NunitoSans-Bold, Nunito Sans" font-weight="700"><tspan x="0" y="0">DEMO</tspan></text>
</svg>
