<svg id="right_gate" data-name="right gate" xmlns="http://www.w3.org/2000/svg" xmlns:xlink="http://www.w3.org/1999/xlink" width="136.713" height="425.403" viewBox="0 0 136.713 425.403">
  <defs>
    <filter id="Rectangle_361" x="17.783" y="0" width="118.93" height="425.403" filterUnits="userSpaceOnUse">
      <feOffset dy="1" input="SourceAlpha"/>
      <feGaussianBlur stdDeviation="18" result="blur"/>
      <feFlood flood-opacity="0.161" result="color"/>
      <feComposite operator="out" in="SourceGraphic" in2="blur"/>
      <feComposite operator="in" in="color"/>
      <feComposite operator="in" in2="SourceGraphic"/>
    </filter>
    <filter id="Path_1661">
      <feOffset dy="3" input="SourceAlpha"/>
      <feGaussianBlur stdDeviation="3" result="blur-2"/>
      <feFlood flood-opacity="0.161" result="color-2"/>
      <feComposite operator="out" in="SourceGraphic" in2="blur-2"/>
      <feComposite operator="in" in="color-2"/>
      <feComposite operator="in" in2="SourceGraphic"/>
    </filter>
    <filter id="Path_1663">
      <feOffset dy="3" input="SourceAlpha"/>
      <feGaussianBlur stdDeviation="3" result="blur-3"/>
      <feFlood flood-opacity="0.161" result="color-3"/>
      <feComposite operator="out" in="SourceGraphic" in2="blur-3"/>
      <feComposite operator="in" in="color-3"/>
      <feComposite operator="in" in2="SourceGraphic"/>
    </filter>
    <filter id="Path_1662">
      <feOffset dy="1" input="SourceAlpha"/>
      <feGaussianBlur stdDeviation="4" result="blur-4"/>
      <feFlood flood-opacity="0.69" result="color-4"/>
      <feComposite operator="out" in="SourceGraphic" in2="blur-4"/>
      <feComposite operator="in" in="color-4"/>
      <feComposite operator="in" in2="SourceGraphic"/>
    </filter>
    <filter id="Path_1660">
      <feOffset dy="3" input="SourceAlpha"/>
      <feGaussianBlur stdDeviation="4.5" result="blur-5"/>
      <feFlood result="color-5"/>
      <feComposite operator="out" in="SourceGraphic" in2="blur-5"/>
      <feComposite operator="in" in="color-5"/>
      <feComposite operator="in" in2="SourceGraphic"/>
    </filter>
  </defs>
  <g data-type="innerShadowGroup">
    <path id="Rectangle_361-2" data-name="Rectangle 361" d="M0,0H118.93V425.4H0Z" transform="translate(17.783 0)" fill="#00abd1"/>
    <g transform="matrix(1, 0, 0, 1, 0, 0)" filter="url(#Rectangle_361)">
      <path id="Rectangle_361-3" data-name="Rectangle 361" d="M0,0H118.93V425.4H0Z" transform="translate(17.78 0)" fill="#fff"/>
    </g>
  </g>
  <g id="Line_19" data-name="Line 19" transform="translate(76.254 29.862)" fill="none">
    <path d="M.515,0,4.06,384.137" stroke="none"/>
    <path d="M 3.544406890869141 384.1417236328125 L 2.590040094219148e-05 0.009530659765005112 L 1.030908107757568 1.799614983610809e-05 L 4.575289726257324 384.1322021484375 L 3.544406890869141 384.1417236328125 Z" stroke="none" fill="#077b95"/>
  </g>
  <g data-type="innerShadowGroup">
    <path id="Path_1661-2" data-name="Path 1661" d="M12.823,0H98.683V14.784H12.823L0,7.9Z" transform="translate(30.74 83.269)" fill="#3a7d83"/>
    <g transform="matrix(1, 0, 0, 1, 0, 0)" filter="url(#Path_1661)">
      <path id="Path_1661-3" data-name="Path 1661" d="M12.823,0H98.683V14.784H12.823L0,7.9Z" transform="translate(30.74 83.27)" fill="#fff"/>
    </g>
  </g>
  <g data-type="innerShadowGroup">
    <path id="Path_1663-2" data-name="Path 1663" d="M12.823,0H98.683V14.784H12.823L0,7.9Z" transform="translate(30.74 334.006)" fill="#3a7d83"/>
    <g transform="matrix(1, 0, 0, 1, 0, 0)" filter="url(#Path_1663)">
      <path id="Path_1663-3" data-name="Path 1663" d="M12.823,0H98.683V14.784H12.823L0,7.9Z" transform="translate(30.74 334.01)" fill="#fff"/>
    </g>
  </g>
  <g data-type="innerShadowGroup">
    <path id="Path_1662-2" data-name="Path 1662" d="M111.64,0H0V17.578H111.64Z" transform="translate(17.783 207.241)" fill="#0ea3c7"/>
    <g transform="matrix(1, 0, 0, 1, 0, 0)" filter="url(#Path_1662)">
      <path id="Path_1662-3" data-name="Path 1662" d="M111.64,0H0V17.578H111.64Z" transform="translate(17.78 207.24)" fill="#fff"/>
    </g>
  </g>
  <g id="Path_1664" data-name="Path 1664" transform="translate(45.837 281.557)" fill="none" opacity="0.44">
    <path d="M9.715,51.659s-.15-2.295-.481-5.966-.845-8.721-1.573-14.231S5.991,19.982,4.8,14.469A71.191,71.191,0,0,0,.467.217" stroke="none"/>
    <path d="M 9.200840950012207 51.69268798828125 C 9.19933032989502 51.66978454589844 9.160066604614258 51.07755279541016 9.079524993896484 50.03215026855469 C 8.99948787689209 48.98671722412109 8.878171920776367 47.48811340332031 8.711552619934082 45.6524658203125 C 8.54493236541748 43.81681442260742 8.334014892578125 41.64411926269531 8.074771881103516 39.2504997253418 C 7.815529823303223 36.85688018798828 7.507962703704834 34.24233627319336 7.149050235748291 31.52302932739258 C 6.674359798431396 27.93217468261719 6.163928985595703 24.56715202331543 5.622288703918457 21.44611167907715 C 5.080647945404053 18.3250732421875 4.506791114807129 15.44801712036133 3.905247926712036 12.83312892913818 C 3.303704977035522 10.21824169158936 2.674978971481323 7.865490436553955 2.02309775352478 5.793061256408691 C 1.370712876319885 3.720600605010986 0.6951723694801331 1.92846155166626 0 0.4347973763942719 L 0.9342795014381409 -6.292291800491512e-05 C 1.329435467720032 0.8485469818115234 1.717543959617615 1.786947965621948 2.098101854324341 2.813094854354858 C 2.478659629821777 3.839241743087769 2.851666688919067 4.953135013580322 3.217123031616211 6.152634620666504 C 3.582579374313354 7.352133750915527 3.939478158950806 8.637240409851074 4.287819385528564 10.00590801239014 C 4.636160373687744 11.3745756149292 4.975944519042969 12.82677364349365 5.306667327880859 14.36042594909668 C 5.569936752319336 15.58323860168457 5.827669143676758 16.85849761962891 6.079864025115967 18.18377876281738 C 6.332058906555176 19.50906181335449 6.577710151672363 20.88436889648438 6.816817283630371 22.30714988708496 C 7.055924415588379 23.72993087768555 7.28899097442627 25.20025062561035 7.515009880065918 26.71559143066406 C 7.741029262542725 28.23093414306641 7.960000991821289 29.79129600524902 8.17192554473877 31.39419364929199 C 8.531844139099121 34.12168121337891 8.840417861938477 36.7441520690918 9.100667953491211 39.14503860473633 C 9.360413551330566 41.54595947265625 9.571834564208984 43.72532272338867 9.738957405090332 45.56660461425781 C 9.905577659606934 47.40788650512695 10.02789974212646 48.91111755371094 10.10844135284424 49.95978927612305 C 10.1889820098877 51.00846481323242 10.22824573516846 51.6025505065918 10.22975635528564 51.62554931640625 L 9.200840950012207 51.69268798828125 Z" stroke="none" fill="#000"/>
  </g>
  <g id="Path_1665" data-name="Path 1665" transform="translate(32.841 399.813)" fill="none" opacity="0.38">
    <path d="M5.412,18.31s-.15-1.01-.418-2.552-.652-3.615-1.124-5.742A56.9,56.9,0,0,0,2.233,3.952C1.622,2.2.958.865.273.437" stroke="none"/>
    <path d="M 4.901947021484375 18.38557243347168 C 4.900436878204346 18.3755054473877 4.861676216125488 18.11575889587402 4.789692401885986 17.6663646697998 C 4.717708587646484 17.21700096130371 4.612501621246338 16.5779857635498 4.479104995727539 15.8093204498291 C 4.34570837020874 15.04068565368652 4.183115482330322 14.14242935180664 3.996360301971436 13.1745491027832 C 3.809101819992065 12.20670032501221 3.597680807113647 11.16925811767578 3.366124391555786 10.12225246429443 C 2.951336622238159 8.251145362854004 2.562724590301514 6.755561828613281 2.205322504043579 5.560183525085449 C 1.847920298576355 4.364805698394775 1.522231221199036 3.469632625579834 1.233792543411255 2.799377679824829 C 0.9453539252281189 2.129122734069824 0.6941656470298767 1.683785796165466 0.4867717027664185 1.388048052787781 C 0.2793777585029602 1.092310428619385 0.1152747869491577 0.9461719393730164 0 0.8743454217910767 L 0.5466743111610413 9.438437700737268e-05 C 0.7334295511245728 0.1169107779860497 0.9166610836982727 0.2796923816204071 1.098382472991943 0.4911448359489441 C 1.280103802680969 0.7025973200798035 1.459308266639709 0.9627206325531006 1.638009428977966 1.274283528327942 C 1.816710472106934 1.585846304893494 1.99541163444519 1.948880076408386 2.175119400024414 2.366090536117554 C 2.354827165603638 2.783332347869873 2.535542011260986 3.254782199859619 2.719276905059814 3.783177614212036 C 2.855693817138672 4.176257133483887 2.993117332458496 4.599791049957275 3.130541086196899 5.052867412567139 C 3.268468141555786 5.50594425201416 3.406395196914673 5.988563060760498 3.544825553894043 6.499843120574951 C 3.683255910873413 7.011123180389404 3.8211829662323 7.551064968109131 3.95961332321167 8.118786811828613 C 4.098043918609619 8.686509132385254 4.235970973968506 9.282011032104492 4.37339448928833 9.90438175201416 C 4.607467651367188 10.96013450622559 4.820902347564697 12.00607013702393 5.009167671203613 12.98178482055664 C 5.197432994842529 13.95749855041504 5.361536026000977 14.86295986175537 5.495939254760742 15.63772964477539 C 5.630342483520508 16.41249847412109 5.736052989959717 17.05654716491699 5.808540344238281 17.50943374633789 C 5.881027698516846 17.96235466003418 5.920291423797607 18.22411346435547 5.921801567077637 18.23424339294434 L 4.901947021484375 18.38557243347168 Z" stroke="none" fill="#000"/>
  </g>
  <g id="Path_1666" data-name="Path 1666" transform="translate(90.528 351.242)" fill="none" opacity="0.52">
    <path d="M.515.009S.537,1.272.649,3.194s.316,4.5.68,7.136a39.8,39.8,0,0,0,1.643,7.457c.755,2.136,1.74,3.72,3.024,4.148" stroke="none"/>
    <path d="M 5.833206176757812 22.42352485656738 C 5.495939254760742 22.31108283996582 5.174277305603027 22.13546371459961 4.868220329284668 21.89535140991211 C 4.561659812927246 21.65520477294922 4.270200729370117 21.35059547424316 3.992836713790894 20.98019981384277 C 3.715472459793091 20.60980415344238 3.451699495315552 20.17359161376953 3.201014757156372 19.67030143737793 C 2.950329780578613 19.16701316833496 2.712732791900635 18.59661674499512 2.486713647842407 17.95779228210449 C 2.317073583602905 17.47721862792969 2.154480695724487 16.95785140991211 1.999942064285278 16.40079498291016 C 1.844900012016296 15.84377098083496 1.697408676147461 15.24905490875244 1.557971477508545 14.61774921417236 C 1.419037699699402 13.98644351959229 1.287654638290405 13.31857967376709 1.164325714111328 12.61525821685791 C 1.040996789932251 11.91193771362305 0.9257219433784485 11.17312812805176 0.8185012936592102 10.39996242523193 C 0.6377866864204407 9.09060001373291 0.4958325922489166 7.790172100067139 0.3850882649421692 6.575287818908691 C 0.2748472988605499 5.360403537750244 0.1953127384185791 4.23103141784668 0.1384304165840149 3.26374888420105 C 0.08104471862316132 2.29646635055542 0.04681465029716492 1.491273164749146 0.02667931653559208 0.9247152209281921 C 0.006543983705341816 0.3581572473049164 0.0005033833440393209 0.03023446165025234 0 0.01752403192222118 L 1.030929088592529 0 C 1.031432509422302 0.01258458383381367 1.037473082542419 0.3370151519775391 1.057608366012573 0.8974695801734924 C 1.077743768692017 1.457955479621887 1.111973762512207 2.254465341567993 1.168352723121643 3.211145162582397 C 1.224731683731079 4.167856693267822 1.303259491920471 5.284770011901855 1.412493705749512 6.486063003540039 C 1.521727800369263 7.687355995178223 1.661668419837952 8.973028182983398 1.840872883796692 10.267258644104 C 2.068402051925659 11.91319561004639 2.335195302963257 13.39575481414795 2.636218547821045 14.70351314544678 C 2.937745094299316 16.01130294799805 3.273501873016357 17.1442928314209 3.638958215713501 18.09103202819824 C 4.004918098449707 19.03776931762695 4.40108060836792 19.79831886291504 4.822412490844727 20.36122703552246 C 5.243744373321533 20.92410469055176 5.690748691558838 21.28934097290039 6.159398555755615 21.44551467895508 L 5.833206176757812 22.42352485656738 Z" stroke="none" fill="#000"/>
  </g>
  <g data-type="innerShadowGroup">
    <path id="Path_1660-2" data-name="Path 1660" d="M0,0H27.225V425.4H0Z" fill="#00a7ce"/>
    <g transform="matrix(1, 0, 0, 1, 0, 0)" filter="url(#Path_1660)">
      <path id="Path_1660-3" data-name="Path 1660" d="M0,0H27.225V425.4H0Z" fill="#fff"/>
    </g>
  </g>
</svg>
