<svg xmlns="http://www.w3.org/2000/svg" width="1439.161" height="3256" viewBox="0 0 1439.161 3256"><defs><style>.a{fill:#252422;}.b{fill:#f2f2f2;}.c{fill:#ff6584;}.d{fill:#50f8ff;font-size:186px;}.d,.e{font-family:LucidaSansUnicode, Lucida Sans Unicode;letter-spacing:0.082em;}.e{fill:#fff;font-size:28px;}.f{fill:#3f3d56;}.g{fill:#cbcbcb;}</style></defs><g transform="translate(-5061.376 1194.576)"><g transform="translate(5061.376 -1194.576)"><path class="a" d="M0,0H1439.161V3256H0Z" transform="translate(0 0)"/><circle class="b" cx="7.594" cy="7.594" r="7.594" transform="translate(481 6)"/><circle class="b" cx="7.594" cy="7.594" r="7.594" transform="translate(650.01 794.761)"/><circle class="b" cx="7.594" cy="7.594" r="7.594" transform="translate(493 804.112)"/><circle class="b" cx="7.594" cy="7.594" r="7.594" transform="translate(662.01 1228.764)"/><circle class="b" cx="7.594" cy="7.594" r="7.594" transform="translate(360 793.702)"/><circle class="b" cx="7.594" cy="7.594" r="7.594" transform="translate(529.01 1350.568)"/><circle class="b" cx="3.037" cy="3.037" r="3.037" transform="translate(321.38 288.148)"/><circle class="b" cx="3.037" cy="3.037" r="3.037" transform="translate(490.39 913.55)"/><circle class="b" cx="3.037" cy="3.037" r="3.037" transform="translate(695.407 376.909)"/><circle class="b" cx="3.037" cy="3.037" r="3.037" transform="translate(864.418 950.509)"/><circle class="b" cx="3.037" cy="3.037" r="3.037" transform="translate(12.145 442.941)"/><circle class="b" cx="3.037" cy="3.037" r="3.037" transform="translate(122.155 973.424)"/><circle class="b" cx="3.037" cy="3.037" r="3.037" transform="translate(1112.76 244.11)"/><circle class="b" cx="3.037" cy="3.037" r="3.037" transform="translate(1281.77 895.213)"/><circle class="b" cx="3.037" cy="3.037" r="3.037" transform="translate(40.732 182.11)"/><circle class="b" cx="3.037" cy="3.037" r="3.037" transform="translate(209.742 869.396)"/><circle class="b" cx="3.037" cy="3.037" r="3.037" transform="translate(626.877 198.254)"/><circle class="b" cx="3.037" cy="3.037" r="3.037" transform="translate(795.887 876.118)"/><circle class="b" cx="3.037" cy="3.037" r="3.037" transform="translate(805.114 109.69)"/><circle class="b" cx="3.037" cy="3.037" r="3.037" transform="translate(974.124 839.241)"/><rect class="b" width="3.037" height="1.519" transform="translate(148.319 427.016)"/><rect class="b" width="3.037" height="1.519" transform="translate(149.838 795.786)"/><rect class="b" width="3.037" height="1.519" transform="translate(149.838 717.351)"/><rect class="b" width="3.037" height="1.519" transform="translate(276.925 242.649)"/><rect class="b" width="3.037" height="1.519" transform="translate(278.444 753.147)"/><rect class="b" width="3.037" height="1.519" transform="translate(278.444 696.427)"/><rect class="b" width="3.037" height="1.519" transform="translate(505.623 424.785)"/><rect class="b" width="3.037" height="1.519" transform="translate(507.141 794.856)"/><rect class="b" width="3.037" height="1.519" transform="translate(507.141 710.509)"/><rect class="b" width="3.037" height="1.519" transform="translate(1053.78 456.609)"/><rect class="b" width="3.037" height="1.519" transform="translate(1055.299 808.119)"/><rect class="b" width="3.037" height="1.519" transform="translate(1055.299 808.119)"/><rect class="b" width="3.037" height="1.519" transform="translate(873.05 233.243)"/><rect class="b" width="3.037" height="1.519" transform="translate(874.569 749.227)"/><rect class="b" width="3.037" height="1.519" transform="translate(874.569 689.216)"/><path class="c" d="M1012.729,669.609c1.368,5.347-.929,4.07-3.024,4.5s-1.683,2.362-4.563-2.933c-1.992-3.662.929-4.07,3.024-4.5S1011.8,665.958,1012.729,669.609Z" transform="translate(264.447 15.889)"/></g><text class="d" transform="translate(5222.377 -793.14)"><tspan x="0" y="0">MAGNOVA</tspan></text><circle class="c" cx="86.483" cy="86.483" r="86.483" transform="translate(5831.175 -943.041)"/><text class="e" transform="translate(5237.376 -750.576)"><tspan x="0" y="0">ENGINEERS</tspan></text><path class="f" d="M795.717,482.754,727.958,349.711l67.966,116.431.617-47.621-46.563-96.173,46.735,83.583,1.109-85.642L747.2,243.318l50.788,63.5,3.7-156.334.019-.649v.66l-.583,198.36,55.885-80.3-55.726,97.117,2.207,95.745.229-2.531,64.442-84.711-64.518,93.673.28,11.975.108.189-.08.978,2.922,126.725q-6.326.264-12.778.215l.123-9.859-58.794-97.037,58.914,87.612Z" transform="translate(5161.8 -1075.418)"/><path class="g" d="M622.322,524.506,554.563,391.462l67.966,116.431.617-47.621L576.582,364.1l46.735,83.583,1.109-85.642L573.8,285.068l50.788,63.5,3.7-156.334.019-.649v.66l-.583,198.36,55.886-80.3-55.726,97.117,2.207,95.745.229-2.531,64.442-84.71L630.248,509.6l.28,11.975.108.189-.08.978,2.922,126.725q-6.326.264-12.778.215l.123-9.859-58.794-97.037L620.943,630.4Z" transform="translate(4823.611 -1057.268)"/><path class="f" d="M927,383.174l-49.812-97.8,49.963,85.591.454-35.008-34.23-70.7L927.728,326.7l.815-62.958L891.33,207.156l37.336,46.683,2.719-114.926.014-.477v.485l-.429,145.82,41.083-59.029-40.967,71.393,1.622,70.385.168-1.861,47.373-62.273-35.694,51.824-11.735,17.038.206,8.8.079.139-.059.719,2.148,93.159q-4.651.194-9.393.158l.09-7.247-43.221-71.335,43.31,64.406Z" transform="translate(5152.776 -975.117)"/><g transform="translate(6119.775 -1085.935)"><path class="f" d="M486.823,283.989l9.206-7.363c-7.151-.789-10.09,3.111-11.293,6.2-5.587-2.32-11.669.72-11.669.72l18.419,6.687a13.938,13.938,0,0,0-4.663-6.243Z" transform="translate(-473.067 -201.437)"/><path class="f" d="M486.823,283.989l9.206-7.363c-7.151-.789-10.09,3.111-11.293,6.2-5.587-2.32-11.669.72-11.669.72l18.419,6.687a13.938,13.938,0,0,0-4.663-6.243Z" transform="translate(-327.067 -202.583)"/><path class="f" d="M486.823,283.989l9.206-7.363c-7.151-.789-10.09,3.111-11.293,6.2-5.587-2.32-11.669.72-11.669.72l18.419,6.687a13.938,13.938,0,0,0-4.663-6.243Z" transform="translate(-390.029 -276.523)"/></g></g></svg>